<svg width="24" height="24" viewBox="0 0 24 24" fill="none" xmlns="http://www.w3.org/2000/svg">
<path d="M7.9387 21.5462C7.65749 21.2649 7.49952 20.8834 7.49952 20.4857C7.49952 20.0879 7.65749 19.7065 7.9387 19.4252L15.3637 12.0002L7.93869 4.57517C7.66546 4.29227 7.51427 3.91337 7.51768 3.52007C7.5211 3.12677 7.67885 2.75056 7.95697 2.47244C8.23508 2.19433 8.6113 2.03658 9.00459 2.03316C9.39789 2.02974 9.77679 2.18094 10.0597 2.45417L18.5452 10.9397C18.8264 11.221 18.9844 11.6024 18.9844 12.0002C18.9844 12.3979 18.8264 12.7794 18.5452 13.0607L10.0597 21.5462C9.7784 21.8274 9.39694 21.9854 8.9992 21.9854C8.60145 21.9854 8.21999 21.8274 7.9387 21.5462Z" fill="#C21B17"/>
</svg>
