<svg width="81" height="81" viewBox="0 0 81 81" fill="none" xmlns="http://www.w3.org/2000/svg">
<path d="M4.79999 76.6554L9.88434 58.0834C6.74899 52.6601 5.1107 46.4882 5.1107 40.1752C5.1107 20.4168 21.197 4.34465 40.9553 4.34465C50.545 4.34465 59.5415 8.08729 66.3065 14.8523C73.0715 21.6314 76.8 30.6279 76.8 40.2034C76.7859 59.9617 60.7137 76.0339 40.9553 76.0339H40.9412C34.9389 76.0339 29.0495 74.5228 23.8098 71.6699L4.79999 76.6554ZM24.6854 65.1873L25.7729 65.837C30.3488 68.5486 35.5885 69.9892 40.9412 69.9892H40.9553C57.3806 69.9892 70.7411 56.6287 70.7411 40.2034C70.7411 32.2521 67.6482 24.7668 62.0271 19.1316C56.4061 13.4965 48.9208 10.4035 40.9695 10.4035C24.5301 10.4035 11.1695 23.764 11.1695 40.1893C11.1695 45.8103 12.7372 51.2901 15.7172 56.0355L16.4234 57.1654L13.4151 68.1532L24.6854 65.1873Z" fill="white"/>
<path d="M6.05695 75.3984L10.9718 57.4761C7.93533 52.2364 6.33941 46.2764 6.33941 40.1893C6.35353 21.1089 21.8749 5.60161 40.9412 5.60161C50.1919 5.60161 58.8918 9.20302 65.4167 15.7421C71.9557 22.2811 75.5571 30.9668 75.543 40.2175C75.5289 59.2838 60.0075 74.8052 40.9412 74.8052H40.9271C35.1366 74.8052 29.4449 73.3505 24.3888 70.5965L6.05695 75.3984Z" fill="url(#paint0_linear_957_24009)"/>
<path d="M4.79999 76.6554L9.88434 58.0834C6.74899 52.6601 5.1107 46.4882 5.1107 40.1752C5.1107 20.4168 21.197 4.34465 40.9553 4.34465C50.545 4.34465 59.5415 8.08729 66.3065 14.8523C73.0715 21.6314 76.8 30.6279 76.8 40.2034C76.7859 59.9617 60.7137 76.0339 40.9553 76.0339H40.9412C34.9389 76.0339 29.0495 74.5228 23.8098 71.6699L4.79999 76.6554ZM24.6854 65.1873L25.7729 65.837C30.3488 68.5486 35.5885 69.9892 40.9412 69.9892H40.9553C57.3806 69.9892 70.7411 56.6287 70.7411 40.2034C70.7411 32.2521 67.6482 24.7668 62.0271 19.1316C56.4061 13.4965 48.9208 10.4035 40.9695 10.4035C24.5301 10.4035 11.1695 23.764 11.1695 40.1893C11.1695 45.8103 12.7372 51.2901 15.7172 56.0355L16.4234 57.1654L13.4151 68.1532L24.6854 65.1873Z" fill="url(#paint1_linear_957_24009)"/>
<path fill-rule="evenodd" clip-rule="evenodd" d="M31.9871 25.1905C31.3092 23.6934 30.603 23.6652 29.9675 23.6369C29.4449 23.6087 28.8518 23.6228 28.2445 23.6228C27.6513 23.6228 26.6768 23.8488 25.8576 24.7385C25.0385 25.6283 22.7223 27.8033 22.7223 32.2097C22.7223 36.6161 25.9283 40.8813 26.3802 41.4745C26.8321 42.0677 32.5803 51.4031 41.6756 54.9904C49.2456 57.9704 50.7851 57.3772 52.4233 57.236C54.0616 57.0947 57.7195 55.0751 58.4681 52.9849C59.2166 50.8947 59.2166 49.101 58.9906 48.7338C58.7647 48.3666 58.1715 48.1406 57.2676 47.6887C56.3778 47.2368 51.9714 45.0759 51.1523 44.7793C50.3331 44.4827 49.7399 44.3274 49.1326 45.2313C48.5395 46.121 46.8164 48.1406 46.2939 48.7338C45.7713 49.327 45.2488 49.4117 44.359 48.9598C43.4693 48.5078 40.574 47.5616 37.1562 44.511C34.4869 42.1383 32.6933 39.2007 32.1707 38.3109C31.6481 37.4211 32.1142 36.9268 32.5662 36.489C32.9616 36.0936 33.4559 35.4439 33.9079 34.9213C34.3598 34.3988 34.501 34.0316 34.7976 33.4243C35.0942 32.8311 34.953 32.3086 34.727 31.8566C34.5293 31.3905 32.7921 26.97 31.9871 25.1905Z" fill="white"/>
<defs>
<linearGradient id="paint0_linear_957_24009" x1="40.7997" y1="75.4042" x2="40.7997" y2="5.59681" gradientUnits="userSpaceOnUse">
<stop stop-color="#20B038"/>
<stop offset="1" stop-color="#60D66A"/>
</linearGradient>
<linearGradient id="paint1_linear_957_24009" x1="40.8" y1="76.6554" x2="40.8" y2="4.34465" gradientUnits="userSpaceOnUse">
<stop stop-color="#F9F9F9"/>
<stop offset="1" stop-color="white"/>
</linearGradient>
</defs>
</svg>
