<svg width="24" height="25" viewBox="0 0 24 25" fill="none" xmlns="http://www.w3.org/2000/svg">
<path d="M12.0025 8.64062C11.2069 8.64062 10.4438 8.9567 9.88119 9.5193C9.31858 10.0819 9.00251 10.845 9.00251 11.6406C9.00251 12.4363 9.31858 13.1993 9.88119 13.7619C10.4438 14.3246 11.2069 14.6406 12.0025 14.6406C12.7982 14.6406 13.5612 14.3246 14.1238 13.7619C14.6864 13.1993 15.0025 12.4363 15.0025 11.6406C15.0025 10.845 14.6864 10.0819 14.1238 9.5193C13.5612 8.9567 12.7982 8.64062 12.0025 8.64062ZM10.2525 11.6406C10.2525 11.1765 10.4369 10.7314 10.7651 10.4032C11.0933 10.075 11.5384 9.89062 12.0025 9.89062C12.4666 9.89062 12.9118 10.075 13.24 10.4032C13.5681 10.7314 13.7525 11.1765 13.7525 11.6406C13.7525 12.1048 13.5681 12.5499 13.24 12.8781C12.9118 13.2063 12.4666 13.3906 12.0025 13.3906C11.5384 13.3906 11.0933 13.2063 10.7651 12.8781C10.4369 12.5499 10.2525 12.1048 10.2525 11.6406ZM18.5 16.8906L13.456 22.2456C13.269 22.4442 13.0434 22.6024 12.793 22.7105C12.5426 22.8187 12.2728 22.8745 12 22.8745C11.7273 22.8745 11.4574 22.8187 11.207 22.7105C10.9566 22.6024 10.731 22.4442 10.544 22.2456L5.50001 16.8906H5.51901L5.51051 16.8806L5.50001 16.8681C4.20528 15.337 3.49649 13.3958 3.50001 11.3906C3.50001 6.69613 7.30551 2.89062 12 2.89062C16.6945 2.89062 20.5 6.69613 20.5 11.3906C20.5035 13.3958 19.7947 15.337 18.5 16.8681L18.4895 16.8806L18.481 16.8906H18.5ZM17.5285 16.0811C18.6427 14.7726 19.2531 13.1093 19.25 11.3906C19.25 7.38662 16.004 4.14062 12 4.14062C7.99601 4.14062 4.75001 7.38662 4.75001 11.3906C4.74689 13.1093 5.35735 14.7726 6.47151 16.0811L6.62551 16.2626L11.454 21.3881C11.5241 21.4626 11.6087 21.5219 11.7026 21.5625C11.7965 21.603 11.8977 21.6239 12 21.6239C12.1023 21.6239 12.2035 21.603 12.2974 21.5625C12.3913 21.5219 12.4759 21.4626 12.546 21.3881L17.3745 16.2626L17.5285 16.0811Z" fill="white"/>
</svg>
