<svg width="177" height="82" viewBox="0 0 177 82" fill="none" xmlns="http://www.w3.org/2000/svg">
<g filter="url(#filter0_d_947_307)">
<rect x="21" y="13" width="135" height="40" rx="10" fill="white"/>
<rect x="21" y="13" width="135" height="40" rx="10" stroke="#979797" stroke-opacity="0.2"/>
<path d="M51.5685 31.8778L36.9376 43.2278C36.3774 42.7897 36 42.1091 36 41.2977V22.4579C36 21.6464 36.3774 20.9659 36.9376 20.5283L51.5685 31.8778Z" fill="#9DC6FB"/>
<path d="M55.9979 34.0029L52.4578 36.047L49.3548 35.659L48.2891 31.8777L48.8303 28.2575L52.4578 27.709L55.9979 29.7524C57.6342 30.6971 57.6342 33.0583 55.9979 34.0029Z" fill="#FFE07D"/>
<path d="M52.4562 36.0467L39.6808 43.4226C38.7473 43.9612 37.6811 43.8087 36.9375 43.2275L48.2875 31.8774L52.4562 36.0467Z" fill="#DD5790"/>
<path d="M52.4562 27.7088L48.2875 31.8775L36.9375 20.5281C37.6811 19.9462 38.7473 19.7937 39.6808 20.3324L52.4562 27.7088Z" fill="#95D6A4"/>
<path d="M38.766 41.2972C38.766 41.4621 38.7813 41.6213 38.8109 41.7742L36.9378 43.2273C36.3776 42.7894 36 42.1089 36 41.2972V22.4574C36 21.6463 36.3776 20.9657 36.9378 20.5278L38.8109 21.9809C38.7813 22.1338 38.766 22.293 38.766 22.4574V41.2972Z" fill="#80B4FB"/>
<path d="M39.8436 43.3294L39.6811 43.4231C38.7476 43.9613 37.6812 43.8088 36.9375 43.2276L38.7677 41.3975C38.7973 42.1651 39.1663 42.808 39.7031 43.2276H39.7035C39.749 43.263 39.7958 43.2974 39.8436 43.3294Z" fill="#DA387D"/>
<path d="M39.7035 20.5284L39.704 20.5293L39.703 20.5284C39.1658 20.948 38.7973 21.5914 38.7676 22.3585L36.9375 20.5284C37.6812 19.9467 38.7476 19.7942 39.681 20.3329L39.8436 20.4266C39.7958 20.4586 39.7489 20.493 39.7035 20.5284Z" fill="#78C2A4"/>
<path d="M65.79 18.88H68.1C69.31 18.88 70.2 19.16 70.77 19.72C71.35 20.28 71.63 21.17 71.63 22.38C71.63 23.58 71.37 24.48 70.83 25.09C70.3 25.7 69.45 26 68.28 26H65.79V18.88ZM66.72 19.69L66.73 25.2H68.16C69.05 25.2 69.7 24.98 70.1 24.54C70.5 24.1 70.7 23.42 70.7 22.49C70.7 21.52 70.51 20.81 70.11 20.36C69.72 19.92 69.05 19.69 68.11 19.69H66.72ZM74.941 20.69C75.721 20.69 76.321 20.93 76.761 21.41C77.191 21.88 77.411 22.54 77.411 23.39C77.411 24.27 77.191 24.95 76.761 25.43C76.321 25.92 75.711 26.16 74.931 26.16C74.141 26.16 73.521 25.92 73.081 25.44C72.631 24.96 72.411 24.3 72.411 23.44C72.411 22.6 72.631 21.93 73.091 21.43C73.541 20.94 74.161 20.69 74.941 20.69ZM74.921 21.41C74.421 21.41 74.021 21.59 73.731 21.95C73.431 22.32 73.291 22.81 73.291 23.42C73.291 24.06 73.431 24.55 73.721 24.91C74.011 25.27 74.421 25.44 74.941 25.44C75.441 25.44 75.831 25.26 76.111 24.9C76.391 24.54 76.541 24.05 76.541 23.41C76.541 22.8 76.391 22.31 76.101 21.95C75.811 21.59 75.421 21.41 74.921 21.41ZM77.9532 20.84H78.8932L80.0732 25.09L81.1232 20.84H82.0532L83.1432 25.09L84.3132 20.84H85.1932L83.5432 26H82.6432L81.5832 21.92L80.5332 26H79.6132L77.9532 20.84ZM86.8013 20.84V21.64C87.2213 21.02 87.8113 20.7 88.5613 20.7C89.1613 20.7 89.6013 20.86 89.8713 21.18C90.1413 21.5 90.2813 21.96 90.2813 22.57V26H89.4313V22.96C89.4313 22.71 89.4213 22.51 89.4013 22.37C89.3813 22.23 89.3413 22.07 89.2813 21.91C89.2113 21.75 89.1013 21.63 88.9413 21.55C88.7813 21.48 88.5713 21.44 88.3213 21.44C87.3413 21.44 86.8513 22.06 86.8513 23.3V26H86.0013V20.84H86.8013ZM92.458 18.88V26H91.598V18.88H92.458ZM96.0348 20.69C96.8148 20.69 97.4148 20.93 97.8548 21.41C98.2848 21.88 98.5048 22.54 98.5048 23.39C98.5048 24.27 98.2848 24.95 97.8548 25.43C97.4148 25.92 96.8048 26.16 96.0248 26.16C95.2348 26.16 94.6148 25.92 94.1748 25.44C93.7248 24.96 93.5048 24.3 93.5048 23.44C93.5048 22.6 93.7248 21.93 94.1848 21.43C94.6348 20.94 95.2548 20.69 96.0348 20.69ZM96.0148 21.41C95.5148 21.41 95.1148 21.59 94.8248 21.95C94.5248 22.32 94.3848 22.81 94.3848 23.42C94.3848 24.06 94.5248 24.55 94.8148 24.91C95.1048 25.27 95.5148 25.44 96.0348 25.44C96.5348 25.44 96.9248 25.26 97.2048 24.9C97.4848 24.54 97.6348 24.05 97.6348 23.41C97.6348 22.8 97.4848 22.31 97.1948 21.95C96.9048 21.59 96.5148 21.41 96.0148 21.41ZM104.087 25.32V25.99C103.907 26.05 103.717 26.09 103.507 26.09C103.017 26.09 102.767 25.83 102.757 25.33C102.267 25.87 101.647 26.15 100.887 26.15C100.377 26.15 99.977 26.02 99.677 25.76C99.377 25.5 99.237 25.14 99.237 24.69C99.237 23.77 99.847 23.23 101.067 23.08C101.147 23.06 101.257 23.05 101.417 23.04C101.997 22.97 102.347 22.89 102.487 22.81C102.637 22.7 102.717 22.52 102.717 22.26C102.717 21.69 102.327 21.41 101.547 21.41C101.147 21.41 100.837 21.49 100.637 21.65C100.427 21.81 100.307 22.08 100.267 22.46H99.437C99.447 21.9 99.647 21.47 100.027 21.17C100.407 20.86 100.927 20.71 101.597 20.71C102.317 20.71 102.857 20.87 103.217 21.21C103.327 21.31 103.407 21.45 103.467 21.63C103.517 21.8 103.547 21.94 103.557 22.05C103.557 22.16 103.567 22.33 103.567 22.55C103.567 22.8 103.557 23.18 103.547 23.69C103.527 24.21 103.527 24.59 103.527 24.84C103.527 25.03 103.547 25.16 103.597 25.24C103.647 25.32 103.737 25.35 103.877 25.35C103.927 25.35 103.997 25.34 104.087 25.32ZM102.717 23.33C102.657 23.37 102.587 23.41 102.527 23.45C102.457 23.48 102.367 23.51 102.267 23.53C102.167 23.55 102.097 23.56 102.057 23.57C102.017 23.58 101.937 23.59 101.797 23.61C101.657 23.63 101.577 23.64 101.577 23.64C101.367 23.66 101.227 23.68 101.167 23.69C101.107 23.7 100.987 23.73 100.807 23.78C100.627 23.82 100.507 23.88 100.437 23.94C100.357 24 100.287 24.08 100.217 24.2C100.147 24.32 100.117 24.46 100.117 24.62C100.117 24.88 100.207 25.09 100.387 25.25C100.567 25.4 100.827 25.48 101.147 25.48C101.547 25.48 101.917 25.36 102.237 25.12C102.557 24.88 102.717 24.59 102.717 24.27V23.33ZM109.538 18.88V26H108.738V25.24C108.408 25.84 107.838 26.14 107.038 26.14C106.298 26.14 105.718 25.9 105.288 25.41C104.858 24.92 104.648 24.25 104.648 23.41C104.648 22.63 104.848 21.99 105.248 21.47C105.648 20.95 106.238 20.69 106.998 20.69C107.738 20.69 108.298 20.97 108.688 21.53V18.88H109.538ZM107.108 21.42C106.618 21.42 106.228 21.6 105.948 21.95C105.668 22.31 105.528 22.79 105.528 23.39C105.528 24.02 105.668 24.52 105.958 24.89C106.248 25.26 106.638 25.44 107.128 25.44C107.618 25.44 108.008 25.27 108.288 24.91C108.568 24.55 108.708 24.06 108.708 23.42C108.708 22.86 108.568 22.38 108.308 22C108.048 21.62 107.648 21.42 107.108 21.42ZM116.749 18.71C117.829 18.71 118.669 19.05 119.269 19.73C119.869 20.41 120.169 21.29 120.169 22.38C120.169 23.48 119.869 24.39 119.279 25.1C118.679 25.82 117.839 26.17 116.759 26.17C116.199 26.17 115.709 26.07 115.269 25.87C114.829 25.67 114.469 25.4 114.189 25.04C113.909 24.69 113.699 24.29 113.559 23.83C113.419 23.38 113.349 22.89 113.349 22.36C113.349 21.25 113.649 20.36 114.269 19.7C114.889 19.04 115.709 18.71 116.749 18.71ZM116.749 19.53C115.949 19.53 115.339 19.81 114.919 20.37C114.499 20.93 114.279 21.61 114.279 22.43C114.279 23.33 114.509 24.04 114.959 24.57C115.409 25.1 116.009 25.36 116.759 25.36C117.509 25.36 118.109 25.1 118.559 24.56C118.999 24.03 119.229 23.32 119.229 22.43C119.229 21.55 118.999 20.85 118.549 20.32C118.099 19.8 117.499 19.53 116.749 19.53ZM121.997 20.84V21.64C122.417 21.02 123.007 20.7 123.757 20.7C124.357 20.7 124.797 20.86 125.067 21.18C125.337 21.5 125.477 21.96 125.477 22.57V26H124.627V22.96C124.627 22.71 124.617 22.51 124.597 22.37C124.577 22.23 124.537 22.07 124.477 21.91C124.407 21.75 124.297 21.63 124.137 21.55C123.977 21.48 123.767 21.44 123.517 21.44C122.537 21.44 122.047 22.06 122.047 23.3V26H121.197V20.84H121.997Z" fill="#333333"/>
<path d="M74.8 37.666V43H73.68L73.414 41.81C72.616 42.762 71.58 43.238 70.306 43.238C68.906 43.238 67.758 42.762 66.89 41.81C66.022 40.858 65.588 39.626 65.588 38.086C65.588 36.588 66.022 35.342 66.904 34.334C67.772 33.326 68.962 32.822 70.46 32.822C71.538 32.822 72.476 33.13 73.288 33.732C74.1 34.348 74.562 35.174 74.674 36.21H72.98C72.868 35.622 72.588 35.146 72.14 34.81C71.692 34.474 71.118 34.292 70.446 34.292C69.48 34.292 68.724 34.628 68.178 35.3C67.618 35.972 67.352 36.896 67.352 38.058C67.352 39.234 67.618 40.158 68.178 40.83C68.738 41.502 69.508 41.824 70.502 41.824C71.37 41.824 72.028 41.558 72.504 41.012C72.98 40.48 73.218 39.808 73.218 39.01H70.53V37.666H74.8ZM79.809 35.566C80.901 35.566 81.783 35.916 82.441 36.602C83.085 37.302 83.421 38.226 83.421 39.388C83.421 40.564 83.085 41.502 82.441 42.188C81.797 42.888 80.915 43.224 79.809 43.224C78.675 43.224 77.779 42.888 77.121 42.188C76.449 41.502 76.127 40.564 76.127 39.388C76.127 38.226 76.449 37.302 77.121 36.602C77.793 35.916 78.689 35.566 79.809 35.566ZM79.781 36.826C79.137 36.826 78.647 37.064 78.283 37.512C77.919 37.974 77.737 38.604 77.737 39.388C77.737 40.2 77.919 40.844 78.283 41.292C78.647 41.754 79.151 41.978 79.795 41.978C80.411 41.978 80.901 41.754 81.265 41.292C81.629 40.83 81.811 40.186 81.811 39.374C81.811 38.59 81.629 37.96 81.265 37.512C80.901 37.064 80.411 36.826 79.781 36.826ZM88.1079 35.566C89.1999 35.566 90.0819 35.916 90.7399 36.602C91.3839 37.302 91.7199 38.226 91.7199 39.388C91.7199 40.564 91.3839 41.502 90.7399 42.188C90.0959 42.888 89.2139 43.224 88.1079 43.224C86.9739 43.224 86.0779 42.888 85.4199 42.188C84.7479 41.502 84.4259 40.564 84.4259 39.388C84.4259 38.226 84.7479 37.302 85.4199 36.602C86.0919 35.916 86.9879 35.566 88.1079 35.566ZM88.0799 36.826C87.4359 36.826 86.9459 37.064 86.5819 37.512C86.2179 37.974 86.0359 38.604 86.0359 39.388C86.0359 40.2 86.2179 40.844 86.5819 41.292C86.9459 41.754 87.4499 41.978 88.0939 41.978C88.7099 41.978 89.1999 41.754 89.5639 41.292C89.9279 40.83 90.1099 40.186 90.1099 39.374C90.1099 38.59 89.9279 37.96 89.5639 37.512C89.1999 37.064 88.7099 36.826 88.0799 36.826ZM99.6827 35.776V42.16C99.6827 43.406 99.4167 44.33 98.8847 44.918C98.3527 45.52 97.4707 45.814 96.2107 45.814C94.2227 45.814 93.1447 45.086 92.9767 43.616H94.5727C94.7127 44.344 95.2727 44.694 96.2527 44.694C96.9107 44.694 97.3867 44.526 97.6947 44.19C98.0027 43.854 98.1567 43.322 98.1567 42.566V41.712C97.6247 42.524 96.8687 42.93 95.8607 42.93C94.8947 42.93 94.1247 42.608 93.5647 41.964C93.0047 41.32 92.7247 40.438 92.7247 39.332C92.7247 38.212 93.0187 37.302 93.6067 36.616C94.1947 35.93 94.9647 35.58 95.9447 35.58C96.4487 35.58 96.8827 35.678 97.2327 35.874C97.5687 36.07 97.8907 36.364 98.1987 36.784V35.776H99.6827ZM96.2247 36.868C95.6227 36.868 95.1467 37.092 94.8107 37.512C94.4747 37.946 94.3067 38.548 94.3067 39.304C94.3067 40.032 94.4747 40.62 94.8247 41.04C95.1747 41.474 95.6367 41.684 96.2247 41.684C96.8127 41.684 97.2887 41.474 97.6387 41.026C97.9747 40.578 98.1567 39.976 98.1567 39.22C98.1567 38.492 97.9747 37.918 97.6387 37.498C97.3027 37.078 96.8267 36.868 96.2247 36.868ZM102.998 33.032V43H101.416V33.032H102.998ZM111.204 40.746C111.022 41.53 110.63 42.146 110.042 42.58C109.454 43.028 108.74 43.238 107.928 43.238C106.836 43.238 105.968 42.888 105.324 42.188C104.68 41.488 104.372 40.578 104.372 39.472C104.372 38.352 104.694 37.414 105.352 36.672C106.01 35.944 106.85 35.566 107.872 35.566C108.922 35.566 109.762 35.93 110.378 36.658C110.994 37.386 111.302 38.366 111.302 39.612V39.78H105.968C105.982 40.508 106.164 41.082 106.514 41.474C106.85 41.866 107.34 42.062 107.956 42.062C108.39 42.062 108.74 41.964 109.02 41.754C109.3 41.544 109.51 41.208 109.678 40.746H111.204ZM109.706 38.716C109.65 38.114 109.468 37.638 109.132 37.288C108.796 36.938 108.376 36.756 107.858 36.756C107.326 36.756 106.906 36.924 106.584 37.26C106.262 37.596 106.066 38.086 105.996 38.716H109.706ZM116.65 33.032H120.976C122.04 33.032 122.894 33.298 123.51 33.802C124.126 34.306 124.448 35.062 124.448 36.07C124.448 37.022 124.154 37.778 123.58 38.338C122.992 38.898 122.208 39.164 121.214 39.164H118.4V43H116.65V33.032ZM118.4 34.488V37.75H120.836C122.096 37.75 122.74 37.204 122.74 36.112C122.74 35.034 122.054 34.488 120.682 34.488H118.4ZM127.388 33.032V43H125.806V33.032H127.388ZM129.057 38.002C129.225 36.378 130.275 35.552 132.221 35.552C133.117 35.552 133.845 35.734 134.377 36.084C134.909 36.448 135.189 36.994 135.189 37.736V41.404C135.189 41.614 135.203 41.754 135.259 41.824C135.315 41.908 135.413 41.936 135.567 41.936C135.679 41.936 135.791 41.936 135.931 41.908V43.028C135.511 43.14 135.175 43.182 134.895 43.182C134.209 43.182 133.817 42.902 133.719 42.314C133.103 42.902 132.263 43.182 131.185 43.182C130.429 43.182 129.841 43 129.407 42.608C128.959 42.216 128.749 41.698 128.749 41.026C128.749 40.83 128.763 40.634 128.819 40.452C128.861 40.284 128.917 40.13 128.973 39.99C129.029 39.864 129.127 39.738 129.267 39.626C129.407 39.514 129.519 39.43 129.603 39.346C129.687 39.276 129.841 39.206 130.037 39.136C130.233 39.08 130.387 39.024 130.485 38.996C130.583 38.968 130.751 38.926 131.003 38.884C131.241 38.856 131.395 38.828 131.479 38.814C131.563 38.8 131.731 38.772 131.983 38.744C132.543 38.674 132.935 38.618 133.145 38.562C133.341 38.506 133.481 38.436 133.565 38.324C133.621 38.254 133.663 38.086 133.663 37.806C133.663 37.078 133.159 36.714 132.179 36.714C131.647 36.714 131.269 36.812 131.031 37.008C130.779 37.204 130.625 37.54 130.569 38.002H129.057ZM133.649 39.374C133.523 39.444 133.383 39.5 133.229 39.556C133.061 39.612 132.935 39.64 132.837 39.654C132.739 39.668 132.585 39.682 132.375 39.71C132.165 39.738 132.025 39.766 131.969 39.766C131.773 39.794 131.619 39.822 131.507 39.85C131.395 39.878 131.255 39.906 131.087 39.962C130.919 40.018 130.793 40.088 130.709 40.172C130.625 40.256 130.541 40.354 130.485 40.494C130.415 40.634 130.387 40.788 130.387 40.97C130.387 41.32 130.499 41.586 130.723 41.768C130.947 41.964 131.269 42.048 131.689 42.048C132.389 42.048 132.935 41.866 133.327 41.474C133.537 41.264 133.649 40.844 133.649 40.228V39.374ZM143.276 35.776L140.602 42.86C140.574 42.93 140.518 43.07 140.448 43.28C140.364 43.49 140.322 43.63 140.294 43.7C140.266 43.784 140.21 43.91 140.126 44.092C140.042 44.288 139.986 44.414 139.944 44.484L139.734 44.82C139.636 44.974 139.552 45.086 139.468 45.142C139.384 45.212 139.286 45.296 139.174 45.394C139.062 45.492 138.936 45.562 138.824 45.604C138.698 45.646 138.558 45.688 138.404 45.716C138.25 45.744 138.082 45.758 137.914 45.758C137.606 45.758 137.242 45.73 136.808 45.674V44.33C137.144 44.4 137.424 44.428 137.648 44.428C137.76 44.428 137.858 44.414 137.956 44.386C138.04 44.358 138.124 44.302 138.208 44.218C138.278 44.134 138.348 44.064 138.404 43.994C138.46 43.924 138.502 43.826 138.558 43.7C138.614 43.574 138.656 43.476 138.684 43.406C138.712 43.336 138.74 43.224 138.796 43.07C138.838 42.93 138.866 42.832 138.88 42.79L136.108 35.776H137.858L139.79 41.096L141.61 35.776H143.276Z" fill="#333333"/>
</g>
<defs>
<filter id="filter0_d_947_307" x="0.5" y="0.5" width="176" height="81" filterUnits="userSpaceOnUse" color-interpolation-filters="sRGB">
<feFlood flood-opacity="0" result="BackgroundImageFix"/>
<feColorMatrix in="SourceAlpha" type="matrix" values="0 0 0 0 0 0 0 0 0 0 0 0 0 0 0 0 0 0 127 0" result="hardAlpha"/>
<feOffset dy="8"/>
<feGaussianBlur stdDeviation="10"/>
<feColorMatrix type="matrix" values="0 0 0 0 0 0 0 0 0 0 0 0 0 0 0 0 0 0 0.04 0"/>
<feBlend mode="normal" in2="BackgroundImageFix" result="effect1_dropShadow_947_307"/>
<feBlend mode="normal" in="SourceGraphic" in2="effect1_dropShadow_947_307" result="shape"/>
</filter>
</defs>
</svg>
