<svg width="135" height="42" viewBox="0 0 135 42" fill="none" xmlns="http://www.w3.org/2000/svg">
<rect x="1" y="1.28125" width="133" height="40" rx="4" fill="white"/>
<rect x="1" y="1.28125" width="133" height="40" rx="4" stroke="#979797" stroke-opacity="0.2"/>
<path d="M33.9293 33.2813H19.3451C16.5491 33.2813 14.2744 31.0066 14.2744 28.2106V13.6263C14.2744 10.8304 16.5491 8.55566 19.3451 8.55566H33.9293C36.7253 8.55566 39 10.8304 39 13.6263V28.2106C39 31.0066 36.7253 33.2813 33.9293 33.2813Z" fill="#00C3FF"/>
<path d="M33.9289 8.55566H26.6368V33.2813H33.9289C36.7249 33.2813 38.9996 31.0066 38.9996 28.2106V13.6263C38.9996 10.8304 36.7249 8.55566 33.9289 8.55566Z" fill="#00AAF0"/>
<path d="M21.8883 27.6078C21.665 27.9946 21.2583 28.2111 20.8407 28.2112C20.636 28.2112 20.4287 28.1592 20.2391 28.0497C19.6626 27.7169 19.4643 26.977 19.7972 26.4005L20.0346 25.9893H22.8228L21.8883 27.6078Z" fill="white"/>
<path d="M19.6107 25.0236C18.945 25.0236 18.4034 24.482 18.4034 23.8163C18.4034 23.1506 18.945 22.609 19.6107 22.609H21.9857L25.2432 16.9668L24.3603 15.4377C24.0275 14.8612 24.2257 14.1213 24.8022 13.7884H24.8023C25.3788 13.4556 26.1186 13.6539 26.4514 14.2304L26.6373 14.5522L26.8231 14.2304C27.1561 13.6538 27.8959 13.4557 28.4723 13.7885C28.7515 13.9497 28.9513 14.2101 29.0348 14.5216C29.1183 14.833 29.0754 15.1584 28.9141 15.4377L24.7738 22.609H27.3854L28.7795 25.0236H19.6107Z" fill="white"/>
<path d="M33.6633 25.0236H32.6824L33.4774 26.4007C33.8103 26.9771 33.6121 27.7169 33.0356 28.0498C32.8495 28.1572 32.643 28.2121 32.4338 28.2121C32.329 28.2121 32.2235 28.1984 32.1194 28.1705C31.8079 28.087 31.5475 27.8872 31.3863 27.6079L27.1943 20.3472L28.5884 17.9326L31.2884 22.609H33.6633C34.329 22.609 34.8706 23.1506 34.8706 23.8163C34.8706 24.482 34.329 25.0236 33.6633 25.0236Z" fill="#F2F2F2"/>
<path d="M26.6368 22.6084V25.023H28.7791L27.385 22.6084H26.6368Z" fill="#F2F2F2"/>
<path d="M29.0344 14.5215C28.9509 14.2101 28.7511 13.9497 28.4718 13.7885C27.8954 13.4556 27.1556 13.6538 26.8227 14.2304L26.6368 14.5522V19.3814L28.9137 15.4377C29.075 15.1584 29.1179 14.8331 29.0344 14.5215Z" fill="#F2F2F2"/>
<path d="M45.79 7.16125H48.1C49.31 7.16125 50.2 7.44125 50.77 8.00125C51.35 8.56125 51.63 9.45125 51.63 10.6612C51.63 11.8612 51.37 12.7612 50.83 13.3712C50.3 13.9812 49.45 14.2812 48.28 14.2812H45.79V7.16125ZM46.72 7.97125L46.73 13.4812H48.16C49.05 13.4812 49.7 13.2612 50.1 12.8212C50.5 12.3812 50.7 11.7012 50.7 10.7712C50.7 9.80125 50.51 9.09125 50.11 8.64125C49.72 8.20125 49.05 7.97125 48.11 7.97125H46.72ZM54.941 8.97125C55.721 8.97125 56.321 9.21125 56.761 9.69125C57.191 10.1612 57.411 10.8212 57.411 11.6712C57.411 12.5512 57.191 13.2312 56.761 13.7112C56.321 14.2012 55.711 14.4413 54.931 14.4413C54.141 14.4413 53.521 14.2012 53.081 13.7212C52.631 13.2412 52.411 12.5812 52.411 11.7212C52.411 10.8812 52.631 10.2112 53.091 9.71125C53.541 9.22125 54.161 8.97125 54.941 8.97125ZM54.921 9.69125C54.421 9.69125 54.021 9.87125 53.731 10.2312C53.431 10.6012 53.291 11.0912 53.291 11.7012C53.291 12.3412 53.431 12.8312 53.721 13.1912C54.011 13.5512 54.421 13.7212 54.941 13.7212C55.441 13.7212 55.831 13.5412 56.111 13.1812C56.391 12.8212 56.541 12.3312 56.541 11.6912C56.541 11.0812 56.391 10.5912 56.101 10.2312C55.811 9.87125 55.421 9.69125 54.921 9.69125ZM57.9532 9.12125H58.8932L60.0732 13.3712L61.1232 9.12125H62.0532L63.1432 13.3712L64.3132 9.12125H65.1932L63.5432 14.2812H62.6432L61.5832 10.2012L60.5332 14.2812H59.6132L57.9532 9.12125ZM66.8013 9.12125V9.92125C67.2213 9.30125 67.8113 8.98125 68.5613 8.98125C69.1613 8.98125 69.6013 9.14125 69.8713 9.46125C70.1413 9.78125 70.2813 10.2412 70.2813 10.8512V14.2812H69.4313V11.2412C69.4313 10.9912 69.4213 10.7912 69.4013 10.6512C69.3813 10.5112 69.3413 10.3512 69.2813 10.1912C69.2113 10.0312 69.1013 9.91125 68.9413 9.83125C68.7813 9.76125 68.5713 9.72125 68.3213 9.72125C67.3413 9.72125 66.8513 10.3412 66.8513 11.5812V14.2812H66.0013V9.12125H66.8013ZM72.458 7.16125V14.2812H71.598V7.16125H72.458ZM76.0348 8.97125C76.8148 8.97125 77.4148 9.21125 77.8548 9.69125C78.2848 10.1612 78.5048 10.8212 78.5048 11.6712C78.5048 12.5512 78.2848 13.2312 77.8548 13.7112C77.4148 14.2012 76.8048 14.4413 76.0248 14.4413C75.2348 14.4413 74.6148 14.2012 74.1748 13.7212C73.7248 13.2412 73.5048 12.5812 73.5048 11.7212C73.5048 10.8812 73.7248 10.2112 74.1848 9.71125C74.6348 9.22125 75.2548 8.97125 76.0348 8.97125ZM76.0148 9.69125C75.5148 9.69125 75.1148 9.87125 74.8248 10.2312C74.5248 10.6012 74.3848 11.0912 74.3848 11.7012C74.3848 12.3412 74.5248 12.8312 74.8148 13.1912C75.1048 13.5512 75.5148 13.7212 76.0348 13.7212C76.5348 13.7212 76.9248 13.5412 77.2048 13.1812C77.4848 12.8212 77.6348 12.3312 77.6348 11.6912C77.6348 11.0812 77.4848 10.5912 77.1948 10.2312C76.9048 9.87125 76.5148 9.69125 76.0148 9.69125ZM84.087 13.6012V14.2712C83.907 14.3313 83.717 14.3713 83.507 14.3713C83.017 14.3713 82.767 14.1112 82.757 13.6112C82.267 14.1512 81.647 14.4313 80.887 14.4313C80.377 14.4313 79.977 14.3013 79.677 14.0412C79.377 13.7812 79.237 13.4212 79.237 12.9712C79.237 12.0512 79.847 11.5112 81.067 11.3612C81.147 11.3413 81.257 11.3312 81.417 11.3212C81.997 11.2512 82.347 11.1712 82.487 11.0912C82.637 10.9812 82.717 10.8012 82.717 10.5412C82.717 9.97125 82.327 9.69125 81.547 9.69125C81.147 9.69125 80.837 9.77125 80.637 9.93125C80.427 10.0912 80.307 10.3612 80.267 10.7412H79.437C79.447 10.1812 79.647 9.75125 80.027 9.45125C80.407 9.14125 80.927 8.99125 81.597 8.99125C82.317 8.99125 82.857 9.15125 83.217 9.49125C83.327 9.59125 83.407 9.73125 83.467 9.91125C83.517 10.0812 83.547 10.2212 83.557 10.3312C83.557 10.4412 83.567 10.6112 83.567 10.8312C83.567 11.0812 83.557 11.4612 83.547 11.9712C83.527 12.4912 83.527 12.8712 83.527 13.1212C83.527 13.3112 83.547 13.4412 83.597 13.5212C83.647 13.6012 83.737 13.6312 83.877 13.6312C83.927 13.6312 83.997 13.6213 84.087 13.6012ZM82.717 11.6112C82.657 11.6512 82.587 11.6912 82.527 11.7312C82.457 11.7612 82.367 11.7912 82.267 11.8112C82.167 11.8312 82.097 11.8412 82.057 11.8512C82.017 11.8612 81.937 11.8712 81.797 11.8912C81.657 11.9112 81.577 11.9212 81.577 11.9212C81.367 11.9412 81.227 11.9612 81.167 11.9712C81.107 11.9812 80.987 12.0112 80.807 12.0612C80.627 12.1012 80.507 12.1612 80.437 12.2212C80.357 12.2812 80.287 12.3612 80.217 12.4812C80.147 12.6012 80.117 12.7412 80.117 12.9012C80.117 13.1612 80.207 13.3712 80.387 13.5312C80.567 13.6812 80.827 13.7612 81.147 13.7612C81.547 13.7612 81.917 13.6412 82.237 13.4012C82.557 13.1612 82.717 12.8712 82.717 12.5512V11.6112ZM89.538 7.16125V14.2812H88.738V13.5212C88.408 14.1212 87.838 14.4213 87.038 14.4213C86.298 14.4213 85.718 14.1812 85.288 13.6912C84.858 13.2012 84.648 12.5312 84.648 11.6912C84.648 10.9112 84.848 10.2712 85.248 9.75125C85.648 9.23125 86.238 8.97125 86.998 8.97125C87.738 8.97125 88.298 9.25125 88.688 9.81125V7.16125H89.538ZM87.108 9.70125C86.618 9.70125 86.228 9.88125 85.948 10.2312C85.668 10.5912 85.528 11.0712 85.528 11.6712C85.528 12.3012 85.668 12.8012 85.958 13.1712C86.248 13.5412 86.638 13.7212 87.128 13.7212C87.618 13.7212 88.008 13.5512 88.288 13.1912C88.568 12.8312 88.708 12.3412 88.708 11.7012C88.708 11.1412 88.568 10.6612 88.308 10.2812C88.048 9.90125 87.648 9.70125 87.108 9.70125ZM96.749 6.99125C97.829 6.99125 98.669 7.33125 99.269 8.01125C99.869 8.69125 100.169 9.57125 100.169 10.6612C100.169 11.7612 99.869 12.6712 99.279 13.3812C98.679 14.1012 97.839 14.4513 96.759 14.4513C96.199 14.4513 95.709 14.3513 95.269 14.1512C94.829 13.9513 94.469 13.6812 94.189 13.3212C93.909 12.9712 93.699 12.5712 93.559 12.1112C93.419 11.6612 93.349 11.1712 93.349 10.6412C93.349 9.53125 93.649 8.64125 94.269 7.98125C94.889 7.32125 95.709 6.99125 96.749 6.99125ZM96.749 7.81125C95.949 7.81125 95.339 8.09125 94.919 8.65125C94.499 9.21125 94.279 9.89125 94.279 10.7112C94.279 11.6112 94.509 12.3212 94.959 12.8512C95.409 13.3812 96.009 13.6412 96.759 13.6412C97.509 13.6412 98.109 13.3812 98.559 12.8412C98.999 12.3112 99.229 11.6012 99.229 10.7112C99.229 9.83125 98.999 9.13125 98.549 8.60125C98.099 8.08125 97.499 7.81125 96.749 7.81125ZM101.997 9.12125V9.92125C102.417 9.30125 103.007 8.98125 103.757 8.98125C104.357 8.98125 104.797 9.14125 105.067 9.46125C105.337 9.78125 105.477 10.2412 105.477 10.8512V14.2812H104.627V11.2412C104.627 10.9912 104.617 10.7912 104.597 10.6512C104.577 10.5112 104.537 10.3512 104.477 10.1912C104.407 10.0312 104.297 9.91125 104.137 9.83125C103.977 9.76125 103.767 9.72125 103.517 9.72125C102.537 9.72125 102.047 10.3412 102.047 11.5812V14.2812H101.197V9.12125H101.997Z" fill="#333333"/>
<path d="M50.6 21.2992L54.45 31.2812H52.574L51.622 28.6352H47.674L46.694 31.2812H44.888L48.738 21.2992H50.6ZM51.16 27.3192L49.676 23.1192L48.122 27.3192H51.16ZM56.7039 24.0572V25.0232C57.1799 24.2392 57.9639 23.8472 59.0559 23.8472C60.0499 23.8472 60.8479 24.1972 61.4499 24.8972C62.0379 25.5972 62.3459 26.5352 62.3459 27.6972C62.3459 28.8452 62.0519 29.7552 61.4639 30.4412C60.8759 31.1272 60.1059 31.4633 59.1399 31.4633C58.1039 31.4633 57.3199 31.0852 56.7879 30.3292V33.9553H55.2059V24.0572H56.7039ZM58.7339 25.1352C58.1039 25.1352 57.6139 25.3592 57.2639 25.8072C56.8999 26.2552 56.7319 26.8852 56.7319 27.6692C56.7319 28.4532 56.8999 29.0692 57.2639 29.5172C57.6279 29.9652 58.1179 30.1892 58.7619 30.1892C59.3639 30.1892 59.8399 29.9652 60.2039 29.5172C60.5539 29.0692 60.7359 28.4672 60.7359 27.6972C60.7359 26.9132 60.5539 26.2972 60.1899 25.8352C59.8259 25.3732 59.3499 25.1352 58.7339 25.1352ZM65.2625 24.0572V25.0232C65.7385 24.2392 66.5225 23.8472 67.6145 23.8472C68.6085 23.8472 69.4065 24.1972 70.0085 24.8972C70.5965 25.5972 70.9045 26.5352 70.9045 27.6972C70.9045 28.8452 70.6105 29.7552 70.0225 30.4412C69.4345 31.1272 68.6645 31.4633 67.6985 31.4633C66.6625 31.4633 65.8785 31.0852 65.3465 30.3292V33.9553H63.7645V24.0572H65.2625ZM67.2925 25.1352C66.6625 25.1352 66.1725 25.3592 65.8225 25.8072C65.4585 26.2552 65.2905 26.8852 65.2905 27.6692C65.2905 28.4532 65.4585 29.0692 65.8225 29.5172C66.1865 29.9652 66.6765 30.1892 67.3205 30.1892C67.9225 30.1892 68.3985 29.9652 68.7625 29.5172C69.1125 29.0692 69.2945 28.4672 69.2945 27.6972C69.2945 26.9132 69.1125 26.2972 68.7485 25.8352C68.3845 25.3732 67.9085 25.1352 67.2925 25.1352ZM73.9331 21.3132V31.2812H72.3511V21.3132H73.9331ZM82.14 29.0272C81.958 29.8112 81.566 30.4272 80.978 30.8612C80.39 31.3093 79.676 31.5193 78.864 31.5193C77.772 31.5193 76.904 31.1692 76.26 30.4692C75.616 29.7692 75.308 28.8592 75.308 27.7532C75.308 26.6332 75.63 25.6952 76.288 24.9532C76.946 24.2252 77.786 23.8472 78.808 23.8472C79.858 23.8472 80.698 24.2113 81.314 24.9392C81.93 25.6672 82.238 26.6472 82.238 27.8932V28.0612H76.904C76.918 28.7892 77.1 29.3632 77.45 29.7552C77.786 30.1472 78.276 30.3432 78.892 30.3432C79.326 30.3432 79.676 30.2452 79.956 30.0352C80.236 29.8252 80.446 29.4892 80.614 29.0272H82.14ZM80.642 26.9972C80.586 26.3952 80.404 25.9192 80.068 25.5692C79.732 25.2192 79.312 25.0372 78.794 25.0372C78.262 25.0372 77.842 25.2052 77.52 25.5412C77.198 25.8772 77.002 26.3672 76.932 26.9972H80.642ZM94.7258 24.2532H93.0598C92.9478 23.0912 92.2338 22.5032 90.8898 22.5032C90.2878 22.5032 89.8258 22.6292 89.4898 22.8812C89.1538 23.1332 88.9858 23.4692 88.9858 23.8893C88.9858 24.2952 89.0978 24.5752 89.3498 24.7152C89.6018 24.8692 90.1478 25.0512 91.0018 25.2612C91.2258 25.3312 91.3938 25.3732 91.5198 25.4012C92.6258 25.6812 93.3818 25.9332 93.7878 26.1572C94.6698 26.6332 95.1178 27.3752 95.1178 28.3832C95.1178 28.8312 95.0338 29.2233 94.8938 29.5732C94.7398 29.9372 94.5438 30.2312 94.2918 30.4692C94.0398 30.7072 93.7318 30.9032 93.3958 31.0572C93.0458 31.2252 92.6818 31.3373 92.3178 31.4073C91.9398 31.4773 91.5478 31.5053 91.1558 31.5053C89.8958 31.5053 88.8878 31.2112 88.1178 30.6092C87.3338 30.0212 86.9558 29.1392 86.9558 27.9772H88.6778C88.6778 28.7052 88.9158 29.2512 89.3918 29.6012C89.8678 29.9512 90.4838 30.1192 91.2538 30.1192C91.9258 30.1192 92.4438 29.9932 92.8218 29.7132C93.1998 29.4333 93.3958 29.0552 93.3958 28.5512C93.3958 28.2432 93.2838 27.9772 93.0878 27.7812C92.8918 27.5853 92.6678 27.4312 92.4438 27.3472C92.2058 27.2632 91.7998 27.1512 91.2258 26.9972C91.1558 26.9832 91.0998 26.9692 91.0718 26.9552C89.8258 26.6472 89.0138 26.3812 88.6218 26.1712C87.8098 25.7512 87.3758 25.1072 87.3198 24.2252V24.0292C87.3198 23.1472 87.6418 22.4472 88.3138 21.9152C88.9858 21.3832 89.8818 21.1172 91.0018 21.1172C92.0798 21.1172 92.9618 21.3832 93.6478 21.8872C94.3198 22.4052 94.6838 23.1892 94.7258 24.2532ZM99.9539 24.0572V25.2192H98.4979V29.0272C98.4979 29.2512 98.4979 29.4192 98.5119 29.5032C98.5119 29.5872 98.5399 29.6852 98.5959 29.7972C98.6379 29.9092 98.7219 29.9792 98.8339 30.0072C98.9459 30.0492 99.1139 30.0632 99.3239 30.0632C99.5759 30.0632 99.7859 30.0632 99.9539 30.0352V31.2953C99.6319 31.3373 99.2679 31.3513 98.8759 31.3513C98.5959 31.3513 98.3439 31.3373 98.1339 31.2953C97.9239 31.2532 97.7559 31.1972 97.6159 31.1412C97.4759 31.0852 97.3499 31.0012 97.2659 30.8612C97.1679 30.7212 97.0979 30.6092 97.0419 30.5252C96.9859 30.4412 96.9579 30.2732 96.9299 30.0492C96.9019 29.8252 96.9019 29.6572 96.9019 29.5452V28.9292V28.8452V28.7612V28.6632V25.2192H95.6979V24.0572H96.9019V21.8872H98.4979V24.0572H99.9539ZM104.434 23.8472C105.526 23.8472 106.408 24.1972 107.066 24.8832C107.71 25.5832 108.046 26.5072 108.046 27.6692C108.046 28.8452 107.71 29.7832 107.066 30.4692C106.422 31.1692 105.54 31.5053 104.434 31.5053C103.3 31.5053 102.404 31.1692 101.746 30.4692C101.074 29.7832 100.752 28.8452 100.752 27.6692C100.752 26.5072 101.074 25.5832 101.746 24.8832C102.418 24.1972 103.314 23.8472 104.434 23.8472ZM104.406 25.1072C103.762 25.1072 103.272 25.3452 102.908 25.7932C102.544 26.2552 102.362 26.8852 102.362 27.6692C102.362 28.4812 102.544 29.1252 102.908 29.5732C103.272 30.0352 103.776 30.2592 104.42 30.2592C105.036 30.2592 105.526 30.0352 105.89 29.5732C106.254 29.1112 106.436 28.4672 106.436 27.6552C106.436 26.8712 106.254 26.2412 105.89 25.7932C105.526 25.3452 105.036 25.1072 104.406 25.1072ZM113.475 23.9172V25.4432C113.195 25.4152 112.999 25.4012 112.915 25.4012C111.515 25.4012 110.829 26.3112 110.829 28.1032V31.2812H109.247V24.0572H110.745V25.4992C111.249 24.4352 112.061 23.8893 113.167 23.8893L113.475 23.9172ZM120.531 29.0272C120.349 29.8112 119.957 30.4272 119.369 30.8612C118.781 31.3093 118.067 31.5193 117.255 31.5193C116.163 31.5193 115.295 31.1692 114.651 30.4692C114.007 29.7692 113.699 28.8592 113.699 27.7532C113.699 26.6332 114.021 25.6952 114.679 24.9532C115.337 24.2252 116.177 23.8472 117.199 23.8472C118.249 23.8472 119.089 24.2113 119.705 24.9392C120.321 25.6672 120.629 26.6472 120.629 27.8932V28.0612H115.295C115.309 28.7892 115.491 29.3632 115.841 29.7552C116.177 30.1472 116.667 30.3432 117.283 30.3432C117.717 30.3432 118.067 30.2452 118.347 30.0352C118.627 29.8252 118.837 29.4892 119.005 29.0272H120.531ZM119.033 26.9972C118.977 26.3952 118.795 25.9192 118.459 25.5692C118.123 25.2192 117.703 25.0372 117.185 25.0372C116.653 25.0372 116.233 25.2052 115.911 25.5412C115.589 25.8772 115.393 26.3672 115.323 26.9972H119.033Z" fill="#333333"/>
</svg>
