<svg width="175" height="82" viewBox="0 0 175 82" fill="none" xmlns="http://www.w3.org/2000/svg">
<g filter="url(#filter0_d_947_321)">
<rect x="21" y="13" width="133" height="40" rx="10" fill="white"/>
<rect x="21" y="13" width="133" height="40" rx="10" stroke="#979797" stroke-opacity="0.2"/>
<path d="M53.9293 45H39.3451C36.5491 45 34.2744 42.7253 34.2744 39.9293V25.3451C34.2744 22.5491 36.5491 20.2744 39.3451 20.2744H53.9293C56.7253 20.2744 59 22.5491 59 25.3451V39.9293C59 42.7253 56.7253 45 53.9293 45Z" fill="#00C3FF"/>
<path d="M53.9288 20.2744H46.6367V45H53.9288C56.7248 45 58.9995 42.7253 58.9995 39.9293V25.3451C58.9995 22.5491 56.7248 20.2744 53.9288 20.2744Z" fill="#00AAF0"/>
<path d="M41.8884 39.3262C41.665 39.7131 41.2584 39.9296 40.8408 39.9296C40.6361 39.9296 40.4288 39.8776 40.2392 39.7681C39.6626 39.4353 39.4644 38.6955 39.7972 38.119L40.0347 37.7077H42.8228L41.8884 39.3262Z" fill="white"/>
<path d="M39.6109 36.742C38.9452 36.742 38.4036 36.2004 38.4036 35.5347C38.4036 34.869 38.9452 34.3274 39.6109 34.3274H41.9858L45.2433 28.6852L44.3605 27.1561C44.0276 26.5796 44.2258 25.8398 44.8023 25.5069H44.8024C45.3789 25.1741 46.1187 25.3723 46.4516 25.9488L46.6374 26.2707L46.8232 25.9489C47.1562 25.3723 47.896 25.1741 48.4724 25.5069C48.7517 25.6682 48.9514 25.9285 49.0349 26.24C49.1184 26.5515 49.0755 26.8769 48.9143 27.1562L44.7739 34.3274H47.3855L48.7796 36.742H39.6109Z" fill="white"/>
<path d="M53.6633 36.742H52.6824L53.4774 38.119C53.8103 38.6955 53.6121 39.4353 53.0356 39.7682C52.8495 39.8756 52.643 39.9305 52.4338 39.9305C52.329 39.9305 52.2235 39.9168 52.1194 39.8888C51.8079 39.8053 51.5475 39.6056 51.3863 39.3262L47.1943 32.0656L48.5884 29.651L51.2884 34.3274H53.6633C54.329 34.3274 54.8706 34.869 54.8706 35.5347C54.8706 36.2004 54.329 36.742 53.6633 36.742Z" fill="#F2F2F2"/>
<path d="M46.6367 34.3272V36.7418H48.779L47.3849 34.3272H46.6367Z" fill="#F2F2F2"/>
<path d="M49.0342 26.24C48.9507 25.9285 48.751 25.6681 48.4717 25.5069C47.8953 25.1741 47.1555 25.3722 46.8225 25.9488L46.6367 26.2707V31.0999L48.9136 27.1561C49.0748 26.8769 49.1177 26.5515 49.0342 26.24Z" fill="#F2F2F2"/>
<path d="M65.79 18.88H68.1C69.31 18.88 70.2 19.16 70.77 19.72C71.35 20.28 71.63 21.17 71.63 22.38C71.63 23.58 71.37 24.48 70.83 25.09C70.3 25.7 69.45 26 68.28 26H65.79V18.88ZM66.72 19.69L66.73 25.2H68.16C69.05 25.2 69.7 24.98 70.1 24.54C70.5 24.1 70.7 23.42 70.7 22.49C70.7 21.52 70.51 20.81 70.11 20.36C69.72 19.92 69.05 19.69 68.11 19.69H66.72ZM74.941 20.69C75.721 20.69 76.321 20.93 76.761 21.41C77.191 21.88 77.411 22.54 77.411 23.39C77.411 24.27 77.191 24.95 76.761 25.43C76.321 25.92 75.711 26.16 74.931 26.16C74.141 26.16 73.521 25.92 73.081 25.44C72.631 24.96 72.411 24.3 72.411 23.44C72.411 22.6 72.631 21.93 73.091 21.43C73.541 20.94 74.161 20.69 74.941 20.69ZM74.921 21.41C74.421 21.41 74.021 21.59 73.731 21.95C73.431 22.32 73.291 22.81 73.291 23.42C73.291 24.06 73.431 24.55 73.721 24.91C74.011 25.27 74.421 25.44 74.941 25.44C75.441 25.44 75.831 25.26 76.111 24.9C76.391 24.54 76.541 24.05 76.541 23.41C76.541 22.8 76.391 22.31 76.101 21.95C75.811 21.59 75.421 21.41 74.921 21.41ZM77.9532 20.84H78.8932L80.0732 25.09L81.1232 20.84H82.0532L83.1432 25.09L84.3132 20.84H85.1932L83.5432 26H82.6432L81.5832 21.92L80.5332 26H79.6132L77.9532 20.84ZM86.8013 20.84V21.64C87.2213 21.02 87.8113 20.7 88.5613 20.7C89.1613 20.7 89.6013 20.86 89.8713 21.18C90.1413 21.5 90.2813 21.96 90.2813 22.57V26H89.4313V22.96C89.4313 22.71 89.4213 22.51 89.4013 22.37C89.3813 22.23 89.3413 22.07 89.2813 21.91C89.2113 21.75 89.1013 21.63 88.9413 21.55C88.7813 21.48 88.5713 21.44 88.3213 21.44C87.3413 21.44 86.8513 22.06 86.8513 23.3V26H86.0013V20.84H86.8013ZM92.458 18.88V26H91.598V18.88H92.458ZM96.0348 20.69C96.8148 20.69 97.4148 20.93 97.8548 21.41C98.2848 21.88 98.5048 22.54 98.5048 23.39C98.5048 24.27 98.2848 24.95 97.8548 25.43C97.4148 25.92 96.8048 26.16 96.0248 26.16C95.2348 26.16 94.6148 25.92 94.1748 25.44C93.7248 24.96 93.5048 24.3 93.5048 23.44C93.5048 22.6 93.7248 21.93 94.1848 21.43C94.6348 20.94 95.2548 20.69 96.0348 20.69ZM96.0148 21.41C95.5148 21.41 95.1148 21.59 94.8248 21.95C94.5248 22.32 94.3848 22.81 94.3848 23.42C94.3848 24.06 94.5248 24.55 94.8148 24.91C95.1048 25.27 95.5148 25.44 96.0348 25.44C96.5348 25.44 96.9248 25.26 97.2048 24.9C97.4848 24.54 97.6348 24.05 97.6348 23.41C97.6348 22.8 97.4848 22.31 97.1948 21.95C96.9048 21.59 96.5148 21.41 96.0148 21.41ZM104.087 25.32V25.99C103.907 26.05 103.717 26.09 103.507 26.09C103.017 26.09 102.767 25.83 102.757 25.33C102.267 25.87 101.647 26.15 100.887 26.15C100.377 26.15 99.977 26.02 99.677 25.76C99.377 25.5 99.237 25.14 99.237 24.69C99.237 23.77 99.847 23.23 101.067 23.08C101.147 23.06 101.257 23.05 101.417 23.04C101.997 22.97 102.347 22.89 102.487 22.81C102.637 22.7 102.717 22.52 102.717 22.26C102.717 21.69 102.327 21.41 101.547 21.41C101.147 21.41 100.837 21.49 100.637 21.65C100.427 21.81 100.307 22.08 100.267 22.46H99.437C99.447 21.9 99.647 21.47 100.027 21.17C100.407 20.86 100.927 20.71 101.597 20.71C102.317 20.71 102.857 20.87 103.217 21.21C103.327 21.31 103.407 21.45 103.467 21.63C103.517 21.8 103.547 21.94 103.557 22.05C103.557 22.16 103.567 22.33 103.567 22.55C103.567 22.8 103.557 23.18 103.547 23.69C103.527 24.21 103.527 24.59 103.527 24.84C103.527 25.03 103.547 25.16 103.597 25.24C103.647 25.32 103.737 25.35 103.877 25.35C103.927 25.35 103.997 25.34 104.087 25.32ZM102.717 23.33C102.657 23.37 102.587 23.41 102.527 23.45C102.457 23.48 102.367 23.51 102.267 23.53C102.167 23.55 102.097 23.56 102.057 23.57C102.017 23.58 101.937 23.59 101.797 23.61C101.657 23.63 101.577 23.64 101.577 23.64C101.367 23.66 101.227 23.68 101.167 23.69C101.107 23.7 100.987 23.73 100.807 23.78C100.627 23.82 100.507 23.88 100.437 23.94C100.357 24 100.287 24.08 100.217 24.2C100.147 24.32 100.117 24.46 100.117 24.62C100.117 24.88 100.207 25.09 100.387 25.25C100.567 25.4 100.827 25.48 101.147 25.48C101.547 25.48 101.917 25.36 102.237 25.12C102.557 24.88 102.717 24.59 102.717 24.27V23.33ZM109.538 18.88V26H108.738V25.24C108.408 25.84 107.838 26.14 107.038 26.14C106.298 26.14 105.718 25.9 105.288 25.41C104.858 24.92 104.648 24.25 104.648 23.41C104.648 22.63 104.848 21.99 105.248 21.47C105.648 20.95 106.238 20.69 106.998 20.69C107.738 20.69 108.298 20.97 108.688 21.53V18.88H109.538ZM107.108 21.42C106.618 21.42 106.228 21.6 105.948 21.95C105.668 22.31 105.528 22.79 105.528 23.39C105.528 24.02 105.668 24.52 105.958 24.89C106.248 25.26 106.638 25.44 107.128 25.44C107.618 25.44 108.008 25.27 108.288 24.91C108.568 24.55 108.708 24.06 108.708 23.42C108.708 22.86 108.568 22.38 108.308 22C108.048 21.62 107.648 21.42 107.108 21.42ZM116.749 18.71C117.829 18.71 118.669 19.05 119.269 19.73C119.869 20.41 120.169 21.29 120.169 22.38C120.169 23.48 119.869 24.39 119.279 25.1C118.679 25.82 117.839 26.17 116.759 26.17C116.199 26.17 115.709 26.07 115.269 25.87C114.829 25.67 114.469 25.4 114.189 25.04C113.909 24.69 113.699 24.29 113.559 23.83C113.419 23.38 113.349 22.89 113.349 22.36C113.349 21.25 113.649 20.36 114.269 19.7C114.889 19.04 115.709 18.71 116.749 18.71ZM116.749 19.53C115.949 19.53 115.339 19.81 114.919 20.37C114.499 20.93 114.279 21.61 114.279 22.43C114.279 23.33 114.509 24.04 114.959 24.57C115.409 25.1 116.009 25.36 116.759 25.36C117.509 25.36 118.109 25.1 118.559 24.56C118.999 24.03 119.229 23.32 119.229 22.43C119.229 21.55 118.999 20.85 118.549 20.32C118.099 19.8 117.499 19.53 116.749 19.53ZM121.997 20.84V21.64C122.417 21.02 123.007 20.7 123.757 20.7C124.357 20.7 124.797 20.86 125.067 21.18C125.337 21.5 125.477 21.96 125.477 22.57V26H124.627V22.96C124.627 22.71 124.617 22.51 124.597 22.37C124.577 22.23 124.537 22.07 124.477 21.91C124.407 21.75 124.297 21.63 124.137 21.55C123.977 21.48 123.767 21.44 123.517 21.44C122.537 21.44 122.047 22.06 122.047 23.3V26H121.197V20.84H121.997Z" fill="#333333"/>
<path d="M70.6 33.018L74.45 43H72.574L71.622 40.354H67.674L66.694 43H64.888L68.738 33.018H70.6ZM71.16 39.038L69.676 34.838L68.122 39.038H71.16ZM76.7039 35.776V36.742C77.1799 35.958 77.9639 35.566 79.0559 35.566C80.0499 35.566 80.8479 35.916 81.4499 36.616C82.0379 37.316 82.3459 38.254 82.3459 39.416C82.3459 40.564 82.0519 41.474 81.4639 42.16C80.8759 42.846 80.1059 43.182 79.1399 43.182C78.1039 43.182 77.3199 42.804 76.7879 42.048V45.674H75.2059V35.776H76.7039ZM78.7339 36.854C78.1039 36.854 77.6139 37.078 77.2639 37.526C76.8999 37.974 76.7319 38.604 76.7319 39.388C76.7319 40.172 76.8999 40.788 77.2639 41.236C77.6279 41.684 78.1179 41.908 78.7619 41.908C79.3639 41.908 79.8399 41.684 80.2039 41.236C80.5539 40.788 80.7359 40.186 80.7359 39.416C80.7359 38.632 80.5539 38.016 80.1899 37.554C79.8259 37.092 79.3499 36.854 78.7339 36.854ZM85.2625 35.776V36.742C85.7385 35.958 86.5225 35.566 87.6145 35.566C88.6085 35.566 89.4065 35.916 90.0085 36.616C90.5965 37.316 90.9045 38.254 90.9045 39.416C90.9045 40.564 90.6105 41.474 90.0225 42.16C89.4345 42.846 88.6645 43.182 87.6985 43.182C86.6625 43.182 85.8785 42.804 85.3465 42.048V45.674H83.7645V35.776H85.2625ZM87.2925 36.854C86.6625 36.854 86.1725 37.078 85.8225 37.526C85.4585 37.974 85.2905 38.604 85.2905 39.388C85.2905 40.172 85.4585 40.788 85.8225 41.236C86.1865 41.684 86.6765 41.908 87.3205 41.908C87.9225 41.908 88.3985 41.684 88.7625 41.236C89.1125 40.788 89.2945 40.186 89.2945 39.416C89.2945 38.632 89.1125 38.016 88.7485 37.554C88.3845 37.092 87.9085 36.854 87.2925 36.854ZM93.9331 33.032V43H92.3511V33.032H93.9331ZM102.14 40.746C101.958 41.53 101.566 42.146 100.978 42.58C100.39 43.028 99.676 43.238 98.864 43.238C97.772 43.238 96.904 42.888 96.26 42.188C95.616 41.488 95.308 40.578 95.308 39.472C95.308 38.352 95.63 37.414 96.288 36.672C96.946 35.944 97.786 35.566 98.808 35.566C99.858 35.566 100.698 35.93 101.314 36.658C101.93 37.386 102.238 38.366 102.238 39.612V39.78H96.904C96.918 40.508 97.1 41.082 97.45 41.474C97.786 41.866 98.276 42.062 98.892 42.062C99.326 42.062 99.676 41.964 99.956 41.754C100.236 41.544 100.446 41.208 100.614 40.746H102.14ZM100.642 38.716C100.586 38.114 100.404 37.638 100.068 37.288C99.732 36.938 99.312 36.756 98.794 36.756C98.262 36.756 97.842 36.924 97.52 37.26C97.198 37.596 97.002 38.086 96.932 38.716H100.642ZM114.726 35.972H113.06C112.948 34.81 112.234 34.222 110.89 34.222C110.288 34.222 109.826 34.348 109.49 34.6C109.154 34.852 108.986 35.188 108.986 35.608C108.986 36.014 109.098 36.294 109.35 36.434C109.602 36.588 110.148 36.77 111.002 36.98C111.226 37.05 111.394 37.092 111.52 37.12C112.626 37.4 113.382 37.652 113.788 37.876C114.67 38.352 115.118 39.094 115.118 40.102C115.118 40.55 115.034 40.942 114.894 41.292C114.74 41.656 114.544 41.95 114.292 42.188C114.04 42.426 113.732 42.622 113.396 42.776C113.046 42.944 112.682 43.056 112.318 43.126C111.94 43.196 111.548 43.224 111.156 43.224C109.896 43.224 108.888 42.93 108.118 42.328C107.334 41.74 106.956 40.858 106.956 39.696H108.678C108.678 40.424 108.916 40.97 109.392 41.32C109.868 41.67 110.484 41.838 111.254 41.838C111.926 41.838 112.444 41.712 112.822 41.432C113.2 41.152 113.396 40.774 113.396 40.27C113.396 39.962 113.284 39.696 113.088 39.5C112.892 39.304 112.668 39.15 112.444 39.066C112.206 38.982 111.8 38.87 111.226 38.716C111.156 38.702 111.1 38.688 111.072 38.674C109.826 38.366 109.014 38.1 108.622 37.89C107.81 37.47 107.376 36.826 107.32 35.944V35.748C107.32 34.866 107.642 34.166 108.314 33.634C108.986 33.102 109.882 32.836 111.002 32.836C112.08 32.836 112.962 33.102 113.648 33.606C114.32 34.124 114.684 34.908 114.726 35.972ZM119.954 35.776V36.938H118.498V40.746C118.498 40.97 118.498 41.138 118.512 41.222C118.512 41.306 118.54 41.404 118.596 41.516C118.638 41.628 118.722 41.698 118.834 41.726C118.946 41.768 119.114 41.782 119.324 41.782C119.576 41.782 119.786 41.782 119.954 41.754V43.014C119.632 43.056 119.268 43.07 118.876 43.07C118.596 43.07 118.344 43.056 118.134 43.014C117.924 42.972 117.756 42.916 117.616 42.86C117.476 42.804 117.35 42.72 117.266 42.58C117.168 42.44 117.098 42.328 117.042 42.244C116.986 42.16 116.958 41.992 116.93 41.768C116.902 41.544 116.902 41.376 116.902 41.264V40.648V40.564V40.48V40.382V36.938H115.698V35.776H116.902V33.606H118.498V35.776H119.954ZM124.434 35.566C125.526 35.566 126.408 35.916 127.066 36.602C127.71 37.302 128.046 38.226 128.046 39.388C128.046 40.564 127.71 41.502 127.066 42.188C126.422 42.888 125.54 43.224 124.434 43.224C123.3 43.224 122.404 42.888 121.746 42.188C121.074 41.502 120.752 40.564 120.752 39.388C120.752 38.226 121.074 37.302 121.746 36.602C122.418 35.916 123.314 35.566 124.434 35.566ZM124.406 36.826C123.762 36.826 123.272 37.064 122.908 37.512C122.544 37.974 122.362 38.604 122.362 39.388C122.362 40.2 122.544 40.844 122.908 41.292C123.272 41.754 123.776 41.978 124.42 41.978C125.036 41.978 125.526 41.754 125.89 41.292C126.254 40.83 126.436 40.186 126.436 39.374C126.436 38.59 126.254 37.96 125.89 37.512C125.526 37.064 125.036 36.826 124.406 36.826ZM133.475 35.636V37.162C133.195 37.134 132.999 37.12 132.915 37.12C131.515 37.12 130.829 38.03 130.829 39.822V43H129.247V35.776H130.745V37.218C131.249 36.154 132.061 35.608 133.167 35.608L133.475 35.636ZM140.531 40.746C140.349 41.53 139.957 42.146 139.369 42.58C138.781 43.028 138.067 43.238 137.255 43.238C136.163 43.238 135.295 42.888 134.651 42.188C134.007 41.488 133.699 40.578 133.699 39.472C133.699 38.352 134.021 37.414 134.679 36.672C135.337 35.944 136.177 35.566 137.199 35.566C138.249 35.566 139.089 35.93 139.705 36.658C140.321 37.386 140.629 38.366 140.629 39.612V39.78H135.295C135.309 40.508 135.491 41.082 135.841 41.474C136.177 41.866 136.667 42.062 137.283 42.062C137.717 42.062 138.067 41.964 138.347 41.754C138.627 41.544 138.837 41.208 139.005 40.746H140.531ZM139.033 38.716C138.977 38.114 138.795 37.638 138.459 37.288C138.123 36.938 137.703 36.756 137.185 36.756C136.653 36.756 136.233 36.924 135.911 37.26C135.589 37.596 135.393 38.086 135.323 38.716H139.033Z" fill="#333333"/>
</g>
<defs>
<filter id="filter0_d_947_321" x="0.5" y="0.5" width="174" height="81" filterUnits="userSpaceOnUse" color-interpolation-filters="sRGB">
<feFlood flood-opacity="0" result="BackgroundImageFix"/>
<feColorMatrix in="SourceAlpha" type="matrix" values="0 0 0 0 0 0 0 0 0 0 0 0 0 0 0 0 0 0 127 0" result="hardAlpha"/>
<feOffset dy="8"/>
<feGaussianBlur stdDeviation="10"/>
<feColorMatrix type="matrix" values="0 0 0 0 0 0 0 0 0 0 0 0 0 0 0 0 0 0 0.04 0"/>
<feBlend mode="normal" in2="BackgroundImageFix" result="effect1_dropShadow_947_321"/>
<feBlend mode="normal" in="SourceGraphic" in2="effect1_dropShadow_947_321" result="shape"/>
</filter>
</defs>
</svg>
