<svg width="22" height="22" viewBox="0 0 22 22" fill="none" xmlns="http://www.w3.org/2000/svg">
<path d="M15 8.89062L17.15 9.53563C18.523 9.94763 19.21 10.1536 19.605 10.6856C20 11.2156 20 11.9336 20 13.3666V20.8906M7 7.89062H10M7 11.8906H10M11 20.8906V17.8906C11 16.9476 11 16.4766 10.707 16.1836C10.414 15.8906 9.943 15.8906 9 15.8906H8C7.057 15.8906 6.586 15.8906 6.293 16.1836C6 16.4766 6 16.9476 6 17.8906V20.8906M1 20.8906H21" stroke="white" stroke-width="1.5" stroke-linecap="round" stroke-linejoin="round"/>
<path d="M2 20.8907V5.60773C2 3.09773 2 1.84173 2.791 1.21873C3.582 0.595731 4.747 0.934731 7.078 1.61073L12.078 3.06173C13.484 3.46973 14.187 3.67373 14.593 4.23073C15 4.78673 15 5.54373 15 7.05973V20.8907" stroke="white" stroke-width="1.5" stroke-linecap="round" stroke-linejoin="round"/>
</svg>
