<svg width="24" height="25" viewBox="0 0 24 25" fill="none" xmlns="http://www.w3.org/2000/svg">
<path d="M3.9375 2.95312L3.51525 3.35137L2.46075 4.40587L2.0625 4.82812L2.367 5.32013L3.9375 7.94513L4.14825 8.32013H6.3525L9.3525 11.2969C6.672 13.9894 3.26175 17.4109 3.14175 17.5316C1.9665 18.7061 1.96425 20.6306 3.16425 21.7504C4.3365 22.9069 6.24675 22.9369 7.3605 21.7504L7.383 21.7264L12 17.0861L16.641 21.7496L16.7108 21.7969C17.8883 22.9069 19.761 22.9219 20.8597 21.7496V21.7271H20.8822C22.0312 20.5519 22.0432 18.6416 20.8597 17.5309L20.8358 17.5084L16.9222 13.6174C19.5555 13.3714 21.618 11.1476 21.6562 8.46112H21.6795C21.6825 8.44613 21.6795 8.42887 21.6795 8.41388V8.39062C21.753 7.52362 21.5655 6.69413 21.117 5.97638L20.6025 5.18062L17.1097 8.67263L16.0553 7.57087L19.6178 4.00838L18.5865 3.58688C17.9289 3.29687 17.2187 3.14499 16.5 3.14062C13.617 3.14062 11.25 5.50762 11.25 8.39062C11.25 8.70412 11.3175 8.97638 11.367 9.25763C11.0393 9.58612 10.7933 9.85537 10.4062 10.2424L7.4295 7.26562V5.03888L7.0545 4.82812L4.4295 3.25762L3.9375 2.95312ZM16.5 4.64062C16.605 4.64062 16.6785 4.70212 16.7812 4.71112L13.9455 7.54688L14.4608 8.08612L16.5705 10.2656L17.0858 10.8049L20.0625 7.82812C20.0775 8.00063 20.2005 8.12663 20.1795 8.32013V8.39062C20.1795 10.4561 18.495 12.1406 16.4295 12.1406C16.1543 12.1406 15.8205 12.0761 15.4455 11.9996L15.0465 11.9299L14.7653 12.2111L6.30525 20.6951H6.28125V20.7191C5.74875 21.3019 4.8165 21.3161 4.1955 20.6951V20.6719H4.1715C3.58875 20.1394 3.5745 19.2071 4.1955 18.5861C4.47975 18.3011 9.984 12.7496 12.6795 10.0549L12.9847 9.75037L12.867 9.32812C12.7952 9.0206 12.756 8.70636 12.75 8.39062C12.75 6.32512 14.4345 4.64062 16.5 4.64062ZM4.1715 4.82812L5.9295 5.90663V6.65663L5.766 6.82013H5.016L3.9375 5.06288L4.1715 4.82812ZM15.1403 13.9451L19.8053 18.5861V18.6094H19.8278C20.4113 19.1419 20.4255 20.0741 19.8053 20.6951H19.7812V20.7191C19.2488 21.3019 18.3165 21.3161 17.6955 20.6951L13.0545 16.0316L15.1403 13.9451Z" fill="white"/>
</svg>
