<svg width="18" height="18" viewBox="0 0 18 18" fill="none" xmlns="http://www.w3.org/2000/svg">
<g clip-path="url(#clip0_947_1172)">
<path d="M11.4347 13.8696C10.9728 13.8696 10.739 13.5217 10.739 12.8261C10.7502 11.8543 9.97173 11.0571 8.99992 11.0459C8.02811 11.0347 7.23089 11.8132 7.21973 12.785C7.20861 13.7568 7.98705 14.5541 8.95886 14.5652C9.47989 14.5715 9.97661 14.3461 10.3154 13.951C10.5464 14.3468 10.977 14.5833 11.4347 14.5652C12.826 14.5652 12.826 13.256 12.826 12.8261C12.826 10.7127 11.1133 9 8.99992 9C6.88652 9 5.17383 10.7127 5.17383 12.8254C5.17383 14.9381 6.88655 16.6515 8.99992 16.6515C9.99261 16.6515 10.9464 16.2654 11.6601 15.5753C11.7985 15.4411 11.8013 15.2198 11.6671 15.0821C11.5328 14.9437 11.3116 14.9409 11.1732 15.0751C9.92864 16.2751 7.94673 16.2397 6.74673 14.9951C5.54673 13.7506 5.5822 11.7687 6.82673 10.5687C8.07127 9.36869 10.0532 9.40416 11.2532 10.6487C11.8166 11.233 12.1311 12.0136 12.1304 12.8254C12.1304 13.6059 11.9551 13.8696 11.4347 13.8696ZM8.99992 13.8696C8.42392 13.8696 7.95645 13.4021 7.95645 12.8261C7.95645 12.2501 8.42392 11.7826 8.99992 11.7826C9.57592 11.7826 10.0434 12.2494 10.0434 12.8261C10.0434 13.4028 9.57592 13.8696 8.99992 13.8696Z" fill="white"/>
<path d="M15.2609 12.4742H13.8696C13.6776 12.4742 13.5218 12.3184 13.5218 12.1264C13.5218 11.9344 13.6776 11.7786 13.8696 11.7786H15.2609C15.8362 11.7786 16.3043 11.3104 16.3043 10.7351V3.08287C16.3043 2.50756 15.8362 2.03941 15.2609 2.03941H2.73916C2.16384 2.03941 1.69569 2.50687 1.69569 3.08287V10.7351C1.69569 11.3104 2.16387 11.7785 2.73916 11.7785H4.13047C4.32247 11.7785 4.47828 11.9337 4.47828 12.1263C4.47828 12.319 4.32247 12.4742 4.13047 12.4742H2.73916C1.78053 12.4742 1 11.6937 1 10.735V3.08287C1 2.12425 1.78053 1.34375 2.73916 1.34375H15.2609C16.2202 1.34375 17 2.12356 17 3.08287V10.7351C17 11.6937 16.2202 12.4742 15.2609 12.4742Z" fill="white"/>
<path d="M9.00006 7.61506C8.62787 7.61506 8.25571 7.49887 7.93781 7.26652L2.53534 3.36465C2.37881 3.25196 2.34402 3.0349 2.45674 2.87909C2.56874 2.72256 2.78577 2.68777 2.94231 2.80049L8.34753 6.70377C8.73918 6.98968 9.26162 6.98968 9.6505 6.70518L15.0564 2.80049C15.2122 2.68849 15.4293 2.72259 15.542 2.8784C15.6547 3.03421 15.6192 3.25196 15.4641 3.36396L10.0588 7.26724C9.74299 7.4989 9.37153 7.61506 9.00006 7.61506Z" fill="white"/>
<path d="M2.73862 11.0874C2.64959 11.0874 2.56052 11.0533 2.49237 10.9859C2.35671 10.8502 2.35671 10.6297 2.49237 10.4941L5.97062 7.0158C6.10627 6.88015 6.32681 6.88015 6.46243 7.0158C6.59809 7.15146 6.59809 7.37199 6.46243 7.50762L2.98418 10.9859C2.91668 11.0533 2.82765 11.0874 2.73862 11.0874Z" fill="white"/>
<path d="M15.2608 11.0875C15.1718 11.0875 15.0827 11.0534 15.0146 10.9859L11.5363 7.50762C11.4007 7.37196 11.4007 7.15143 11.5363 7.0158C11.672 6.88015 11.8925 6.88015 12.0281 7.0158L15.5064 10.494C15.642 10.6297 15.642 10.8502 15.5064 10.9859C15.4389 11.0534 15.3499 11.0875 15.2608 11.0875Z" fill="white"/>
<path d="M9.00265 16.6521C8.98109 16.6521 8.95953 16.6521 8.93797 16.6514C7.91606 16.6347 6.96231 16.2208 6.25137 15.4862C4.78424 13.9696 4.82459 11.5432 6.3404 10.0768C7.075 9.36579 8.05865 8.98319 9.06387 9.00057C10.0851 9.01725 11.0395 9.43116 11.7505 10.1651C12.444 10.8823 12.8267 11.827 12.8267 12.8253C12.8267 13.0173 12.6708 13.1731 12.4788 13.1731C12.2868 13.1731 12.131 13.0173 12.131 12.8253C12.131 12.0086 11.818 11.2357 11.2496 10.6486C10.6681 10.0483 9.88753 9.70947 9.05137 9.69557C8.2319 9.69557 7.42425 9.99538 6.82318 10.577C5.58284 11.777 5.55015 13.7624 6.75084 15.0027C7.3324 15.6038 8.11293 15.9425 8.94909 15.9558C9.78806 15.985 10.5755 15.6566 11.1773 15.0751C11.315 14.9422 11.5355 14.945 11.6691 15.0834C11.8027 15.2219 11.7992 15.4417 11.6608 15.5752C10.9421 16.2709 10.0009 16.6521 9.00265 16.6521Z" fill="white"/>
<path d="M8.99986 14.5642C8.04127 14.5642 7.26074 13.7837 7.26074 12.8251C7.26074 11.8665 8.04127 11.0859 8.99986 11.0859C9.95846 11.0859 10.739 11.8658 10.739 12.8251C10.739 13.7844 9.95849 14.5642 8.99986 14.5642ZM8.99986 11.7816C8.42455 11.7816 7.9564 12.2498 7.9564 12.8251C7.9564 13.4004 8.42458 13.8685 8.99986 13.8685C9.57514 13.8685 10.0433 13.4003 10.0433 12.8251C10.0434 12.2498 9.57518 11.7816 8.99986 11.7816Z" fill="white"/>
<path d="M11.4353 14.5635C10.5643 14.5635 10.0439 13.9131 10.0439 12.8244C10.0439 12.6324 10.1998 12.4766 10.3918 12.4766C10.5838 12.4766 10.7396 12.6317 10.7396 12.8244C10.7396 13.5166 10.974 13.8678 11.4352 13.8678C11.9556 13.8678 12.1309 13.6042 12.1309 12.8244C12.1309 12.6324 12.2867 12.4766 12.4787 12.4766C12.6707 12.4766 12.8265 12.6317 12.8265 12.8244C12.8266 13.2543 12.8266 14.5635 11.4353 14.5635Z" fill="white"/>
</g>
<defs>
<clipPath id="clip0_947_1172">
<rect width="16" height="16" fill="white" transform="translate(1 1)"/>
</clipPath>
</defs>
</svg>
