<svg width="16" height="16" viewBox="0 0 16 16" fill="none" xmlns="http://www.w3.org/2000/svg">
<path d="M10.7514 10.868L10.7512 10.8683C10.3545 11.2616 9.96074 11.6521 9.57394 12.0488L9.28754 11.7695M10.7514 10.868L8.42011 14.7891C6.431 13.8221 4.73076 12.4824 3.30428 10.7863L3.30413 10.7861C2.24449 9.52756 1.37925 8.16508 0.812757 6.63941L0.812234 6.63801C0.534515 5.89851 0.353688 5.18004 0.410403 4.43558C0.443415 4.01573 0.594906 3.67521 0.892588 3.39334L0.892589 3.39334L0.893186 3.39277C1.139 3.15905 1.38436 2.91129 1.62478 2.66852C1.78124 2.51053 1.9356 2.35465 2.08664 2.20613L2.0872 2.20558C2.28629 2.00904 2.48274 1.93619 2.65286 1.93595C2.82314 1.93571 3.02057 2.00815 3.22141 2.20376C3.43468 2.41263 3.6434 2.62282 3.85438 2.83526C3.96078 2.94241 4.06775 3.05013 4.17617 3.15855C4.33147 3.31551 4.48664 3.47069 4.64095 3.62499L4.64141 3.62546C4.79635 3.7804 4.95042 3.93447 5.10436 4.09007L5.10501 4.09072C5.32363 4.31067 5.39842 4.51189 5.39866 4.67788C5.39889 4.84368 5.32483 5.0436 5.10834 5.26143L5.108 5.26177C5.05178 5.31846 4.99576 5.37504 4.93986 5.43148C4.60663 5.76797 4.27804 6.09976 3.9421 6.42442L3.94206 6.42438L3.93722 6.42921C3.85432 6.51211 3.76591 6.62933 3.7375 6.79028C3.70963 6.94826 3.75119 7.0845 3.79137 7.17998C4.07423 7.85313 4.47507 8.44218 4.91204 8.97893L4.91222 8.97915C5.78417 10.0487 6.77781 11.0104 7.97251 11.7619L7.97431 11.763C8.11482 11.8503 8.25919 11.924 8.3921 11.9898C8.42176 12.0045 8.45062 12.0187 8.47884 12.0326C8.58107 12.0828 8.67487 12.129 8.76762 12.1795C8.88136 12.2431 9.03457 12.2958 9.21158 12.2604C9.37963 12.2268 9.49815 12.1269 9.5747 12.048L9.28754 11.7695M10.7514 10.868C10.9508 10.6699 11.1468 10.5972 11.3156 10.5972C11.4845 10.5972 11.6815 10.67 11.8827 10.8684M10.7514 10.868L11.8827 10.8684M9.28754 11.7695C9.181 11.8794 9.0911 11.9027 8.96125 11.8295L10.4695 10.5842C10.0733 10.9771 9.67709 11.37 9.28754 11.7695ZM11.8827 10.8684C12.5186 11.5009 13.1536 12.1326 13.7851 12.7675C13.9911 12.9748 14.0644 13.1737 14.0636 13.3435C14.0629 13.5141 13.9873 13.7164 13.7776 13.9288C13.6658 14.0416 13.5458 14.1583 13.4226 14.2781C13.1745 14.5193 12.9137 14.7729 12.6818 15.0321L12.6815 15.0325C12.285 15.4769 11.7961 15.6301 11.1744 15.5953L11.1739 15.5953C10.2135 15.5428 9.31613 15.2241 8.4203 14.7892L11.8827 10.8684Z" stroke="white" stroke-width="0.8"/>
<path d="M8.03072 4.34754L8.17614 3.31005C9.30738 3.48892 10.3334 4.01187 11.15 4.82847C11.9211 5.60275 12.4363 6.57047 12.6394 7.63948L11.6077 7.81562C11.4412 6.96173 11.0296 6.18643 10.4125 5.56942C9.7583 4.91518 8.93552 4.49551 8.03072 4.34754Z" fill="white" stroke="#103566" stroke-width="0.2"/>
<path d="M12.6409 3.40194L12.6408 3.40185C11.424 2.18832 9.8887 1.40909 8.19486 1.15068L8.34025 0.113381C10.2605 0.402366 11.999 1.28164 13.3785 2.66105C14.6854 3.97126 15.5504 5.61467 15.8834 7.42637L14.8521 7.60245C14.5585 6.00589 13.7938 4.55482 12.6409 3.40194Z" fill="white" stroke="#103566" stroke-width="0.2"/>
</svg>
