<svg width="137" height="42" viewBox="0 0 137 42" fill="none" xmlns="http://www.w3.org/2000/svg">
<rect x="1" y="1.28125" width="135" height="40" rx="4" fill="white"/>
<rect x="1" y="1.28125" width="135" height="40" rx="4" stroke="#979797" stroke-opacity="0.2"/>
<path d="M31.5685 20.159L16.9376 31.5091C16.3774 31.071 16 30.3904 16 29.5789V10.7391C16 9.92769 16.3774 9.24714 16.9376 8.80957L31.5685 20.159Z" fill="#9DC6FB"/>
<path d="M35.9979 22.2842L32.4578 24.3282L29.3548 23.9402L28.2891 20.1589L28.8303 16.5387L32.4578 15.9902L35.9979 18.0337C37.6342 18.9783 37.6342 21.3395 35.9979 22.2842Z" fill="#FFE07D"/>
<path d="M32.4562 24.3275L19.6808 31.7033C18.7473 32.242 17.6811 32.0894 16.9375 31.5082L28.2875 20.1582L32.4562 24.3275Z" fill="#DD5790"/>
<path d="M32.4562 15.99L28.2875 20.1588L16.9375 8.8093C17.6811 8.22744 18.7473 8.07498 19.6808 8.6136L32.4562 15.99Z" fill="#95D6A4"/>
<path d="M18.766 29.578C18.766 29.7429 18.7813 29.902 18.8109 30.055L16.9378 31.5081C16.3776 31.0702 16 30.3896 16 29.578V10.7382C16 9.92708 16.3776 9.24644 16.9378 8.80859L18.8109 10.2616C18.7813 10.4146 18.766 10.5738 18.766 10.7382V29.578Z" fill="#80B4FB"/>
<path d="M19.8436 31.6107L19.6811 31.7043C18.7476 32.2426 17.6812 32.0901 16.9375 31.5089L18.7677 29.6787C18.7973 30.4463 19.1663 31.0892 19.7031 31.5089H19.7035C19.749 31.5442 19.7958 31.5786 19.8436 31.6107Z" fill="#DA387D"/>
<path d="M19.7035 8.80912L19.704 8.8101L19.703 8.80912C19.1658 9.22878 18.7973 9.87217 18.7676 10.6393L16.9375 8.80912C17.6812 8.22745 18.7476 8.07499 19.681 8.61365L19.8436 8.70733C19.7958 8.73934 19.7489 8.77377 19.7035 8.80912Z" fill="#78C2A4"/>
<path d="M45.79 7.16125H48.1C49.31 7.16125 50.2 7.44125 50.77 8.00125C51.35 8.56125 51.63 9.45125 51.63 10.6612C51.63 11.8612 51.37 12.7612 50.83 13.3712C50.3 13.9812 49.45 14.2812 48.28 14.2812H45.79V7.16125ZM46.72 7.97125L46.73 13.4812H48.16C49.05 13.4812 49.7 13.2612 50.1 12.8212C50.5 12.3812 50.7 11.7012 50.7 10.7712C50.7 9.80125 50.51 9.09125 50.11 8.64125C49.72 8.20125 49.05 7.97125 48.11 7.97125H46.72ZM54.941 8.97125C55.721 8.97125 56.321 9.21125 56.761 9.69125C57.191 10.1612 57.411 10.8212 57.411 11.6712C57.411 12.5512 57.191 13.2312 56.761 13.7112C56.321 14.2012 55.711 14.4413 54.931 14.4413C54.141 14.4413 53.521 14.2012 53.081 13.7212C52.631 13.2412 52.411 12.5812 52.411 11.7212C52.411 10.8812 52.631 10.2112 53.091 9.71125C53.541 9.22125 54.161 8.97125 54.941 8.97125ZM54.921 9.69125C54.421 9.69125 54.021 9.87125 53.731 10.2312C53.431 10.6012 53.291 11.0912 53.291 11.7012C53.291 12.3412 53.431 12.8312 53.721 13.1912C54.011 13.5512 54.421 13.7212 54.941 13.7212C55.441 13.7212 55.831 13.5412 56.111 13.1812C56.391 12.8212 56.541 12.3312 56.541 11.6912C56.541 11.0812 56.391 10.5912 56.101 10.2312C55.811 9.87125 55.421 9.69125 54.921 9.69125ZM57.9532 9.12125H58.8932L60.0732 13.3712L61.1232 9.12125H62.0532L63.1432 13.3712L64.3132 9.12125H65.1932L63.5432 14.2812H62.6432L61.5832 10.2012L60.5332 14.2812H59.6132L57.9532 9.12125ZM66.8013 9.12125V9.92125C67.2213 9.30125 67.8113 8.98125 68.5613 8.98125C69.1613 8.98125 69.6013 9.14125 69.8713 9.46125C70.1413 9.78125 70.2813 10.2412 70.2813 10.8512V14.2812H69.4313V11.2412C69.4313 10.9912 69.4213 10.7912 69.4013 10.6512C69.3813 10.5112 69.3413 10.3512 69.2813 10.1912C69.2113 10.0312 69.1013 9.91125 68.9413 9.83125C68.7813 9.76125 68.5713 9.72125 68.3213 9.72125C67.3413 9.72125 66.8513 10.3412 66.8513 11.5812V14.2812H66.0013V9.12125H66.8013ZM72.458 7.16125V14.2812H71.598V7.16125H72.458ZM76.0348 8.97125C76.8148 8.97125 77.4148 9.21125 77.8548 9.69125C78.2848 10.1612 78.5048 10.8212 78.5048 11.6712C78.5048 12.5512 78.2848 13.2312 77.8548 13.7112C77.4148 14.2012 76.8048 14.4413 76.0248 14.4413C75.2348 14.4413 74.6148 14.2012 74.1748 13.7212C73.7248 13.2412 73.5048 12.5812 73.5048 11.7212C73.5048 10.8812 73.7248 10.2112 74.1848 9.71125C74.6348 9.22125 75.2548 8.97125 76.0348 8.97125ZM76.0148 9.69125C75.5148 9.69125 75.1148 9.87125 74.8248 10.2312C74.5248 10.6012 74.3848 11.0912 74.3848 11.7012C74.3848 12.3412 74.5248 12.8312 74.8148 13.1912C75.1048 13.5512 75.5148 13.7212 76.0348 13.7212C76.5348 13.7212 76.9248 13.5412 77.2048 13.1812C77.4848 12.8212 77.6348 12.3312 77.6348 11.6912C77.6348 11.0812 77.4848 10.5912 77.1948 10.2312C76.9048 9.87125 76.5148 9.69125 76.0148 9.69125ZM84.087 13.6012V14.2712C83.907 14.3313 83.717 14.3713 83.507 14.3713C83.017 14.3713 82.767 14.1112 82.757 13.6112C82.267 14.1512 81.647 14.4313 80.887 14.4313C80.377 14.4313 79.977 14.3013 79.677 14.0412C79.377 13.7812 79.237 13.4212 79.237 12.9712C79.237 12.0512 79.847 11.5112 81.067 11.3612C81.147 11.3413 81.257 11.3312 81.417 11.3212C81.997 11.2512 82.347 11.1712 82.487 11.0912C82.637 10.9812 82.717 10.8012 82.717 10.5412C82.717 9.97125 82.327 9.69125 81.547 9.69125C81.147 9.69125 80.837 9.77125 80.637 9.93125C80.427 10.0912 80.307 10.3612 80.267 10.7412H79.437C79.447 10.1812 79.647 9.75125 80.027 9.45125C80.407 9.14125 80.927 8.99125 81.597 8.99125C82.317 8.99125 82.857 9.15125 83.217 9.49125C83.327 9.59125 83.407 9.73125 83.467 9.91125C83.517 10.0812 83.547 10.2212 83.557 10.3312C83.557 10.4412 83.567 10.6112 83.567 10.8312C83.567 11.0812 83.557 11.4612 83.547 11.9712C83.527 12.4912 83.527 12.8712 83.527 13.1212C83.527 13.3112 83.547 13.4412 83.597 13.5212C83.647 13.6012 83.737 13.6312 83.877 13.6312C83.927 13.6312 83.997 13.6213 84.087 13.6012ZM82.717 11.6112C82.657 11.6512 82.587 11.6912 82.527 11.7312C82.457 11.7612 82.367 11.7912 82.267 11.8112C82.167 11.8312 82.097 11.8412 82.057 11.8512C82.017 11.8612 81.937 11.8712 81.797 11.8912C81.657 11.9112 81.577 11.9212 81.577 11.9212C81.367 11.9412 81.227 11.9612 81.167 11.9712C81.107 11.9812 80.987 12.0112 80.807 12.0612C80.627 12.1012 80.507 12.1612 80.437 12.2212C80.357 12.2812 80.287 12.3612 80.217 12.4812C80.147 12.6012 80.117 12.7412 80.117 12.9012C80.117 13.1612 80.207 13.3712 80.387 13.5312C80.567 13.6812 80.827 13.7612 81.147 13.7612C81.547 13.7612 81.917 13.6412 82.237 13.4012C82.557 13.1612 82.717 12.8712 82.717 12.5512V11.6112ZM89.538 7.16125V14.2812H88.738V13.5212C88.408 14.1212 87.838 14.4213 87.038 14.4213C86.298 14.4213 85.718 14.1812 85.288 13.6912C84.858 13.2012 84.648 12.5312 84.648 11.6912C84.648 10.9112 84.848 10.2712 85.248 9.75125C85.648 9.23125 86.238 8.97125 86.998 8.97125C87.738 8.97125 88.298 9.25125 88.688 9.81125V7.16125H89.538ZM87.108 9.70125C86.618 9.70125 86.228 9.88125 85.948 10.2312C85.668 10.5912 85.528 11.0712 85.528 11.6712C85.528 12.3012 85.668 12.8012 85.958 13.1712C86.248 13.5412 86.638 13.7212 87.128 13.7212C87.618 13.7212 88.008 13.5512 88.288 13.1912C88.568 12.8312 88.708 12.3412 88.708 11.7012C88.708 11.1412 88.568 10.6612 88.308 10.2812C88.048 9.90125 87.648 9.70125 87.108 9.70125ZM96.749 6.99125C97.829 6.99125 98.669 7.33125 99.269 8.01125C99.869 8.69125 100.169 9.57125 100.169 10.6612C100.169 11.7612 99.869 12.6712 99.279 13.3812C98.679 14.1012 97.839 14.4513 96.759 14.4513C96.199 14.4513 95.709 14.3513 95.269 14.1512C94.829 13.9513 94.469 13.6812 94.189 13.3212C93.909 12.9712 93.699 12.5712 93.559 12.1112C93.419 11.6612 93.349 11.1712 93.349 10.6412C93.349 9.53125 93.649 8.64125 94.269 7.98125C94.889 7.32125 95.709 6.99125 96.749 6.99125ZM96.749 7.81125C95.949 7.81125 95.339 8.09125 94.919 8.65125C94.499 9.21125 94.279 9.89125 94.279 10.7112C94.279 11.6112 94.509 12.3212 94.959 12.8512C95.409 13.3812 96.009 13.6412 96.759 13.6412C97.509 13.6412 98.109 13.3812 98.559 12.8412C98.999 12.3112 99.229 11.6012 99.229 10.7112C99.229 9.83125 98.999 9.13125 98.549 8.60125C98.099 8.08125 97.499 7.81125 96.749 7.81125ZM101.997 9.12125V9.92125C102.417 9.30125 103.007 8.98125 103.757 8.98125C104.357 8.98125 104.797 9.14125 105.067 9.46125C105.337 9.78125 105.477 10.2412 105.477 10.8512V14.2812H104.627V11.2412C104.627 10.9912 104.617 10.7912 104.597 10.6512C104.577 10.5112 104.537 10.3512 104.477 10.1912C104.407 10.0312 104.297 9.91125 104.137 9.83125C103.977 9.76125 103.767 9.72125 103.517 9.72125C102.537 9.72125 102.047 10.3412 102.047 11.5812V14.2812H101.197V9.12125H101.997Z" fill="#333333"/>
<path d="M54.8 25.9472V31.2812H53.68L53.414 30.0912C52.616 31.0432 51.58 31.5193 50.306 31.5193C48.906 31.5193 47.758 31.0432 46.89 30.0912C46.022 29.1392 45.588 27.9072 45.588 26.3672C45.588 24.8692 46.022 23.6232 46.904 22.6152C47.772 21.6072 48.962 21.1032 50.46 21.1032C51.538 21.1032 52.476 21.4112 53.288 22.0132C54.1 22.6292 54.562 23.4552 54.674 24.4912H52.98C52.868 23.9032 52.588 23.4272 52.14 23.0912C51.692 22.7552 51.118 22.5732 50.446 22.5732C49.48 22.5732 48.724 22.9092 48.178 23.5812C47.618 24.2532 47.352 25.1772 47.352 26.3392C47.352 27.5152 47.618 28.4392 48.178 29.1112C48.738 29.7832 49.508 30.1052 50.502 30.1052C51.37 30.1052 52.028 29.8392 52.504 29.2932C52.98 28.7612 53.218 28.0892 53.218 27.2912H50.53V25.9472H54.8ZM59.809 23.8472C60.901 23.8472 61.783 24.1972 62.441 24.8832C63.085 25.5832 63.421 26.5072 63.421 27.6692C63.421 28.8452 63.085 29.7832 62.441 30.4692C61.797 31.1692 60.915 31.5053 59.809 31.5053C58.675 31.5053 57.779 31.1692 57.121 30.4692C56.449 29.7832 56.127 28.8452 56.127 27.6692C56.127 26.5072 56.449 25.5832 57.121 24.8832C57.793 24.1972 58.689 23.8472 59.809 23.8472ZM59.781 25.1072C59.137 25.1072 58.647 25.3452 58.283 25.7932C57.919 26.2552 57.737 26.8852 57.737 27.6692C57.737 28.4812 57.919 29.1252 58.283 29.5732C58.647 30.0352 59.151 30.2592 59.795 30.2592C60.411 30.2592 60.901 30.0352 61.265 29.5732C61.629 29.1112 61.811 28.4672 61.811 27.6552C61.811 26.8712 61.629 26.2412 61.265 25.7932C60.901 25.3452 60.411 25.1072 59.781 25.1072ZM68.1079 23.8472C69.1999 23.8472 70.0819 24.1972 70.7399 24.8832C71.3839 25.5832 71.7199 26.5072 71.7199 27.6692C71.7199 28.8452 71.3839 29.7832 70.7399 30.4692C70.0959 31.1692 69.2139 31.5053 68.1079 31.5053C66.9739 31.5053 66.0779 31.1692 65.4199 30.4692C64.7479 29.7832 64.4259 28.8452 64.4259 27.6692C64.4259 26.5072 64.7479 25.5832 65.4199 24.8832C66.0919 24.1972 66.9879 23.8472 68.1079 23.8472ZM68.0799 25.1072C67.4359 25.1072 66.9459 25.3452 66.5819 25.7932C66.2179 26.2552 66.0359 26.8852 66.0359 27.6692C66.0359 28.4812 66.2179 29.1252 66.5819 29.5732C66.9459 30.0352 67.4499 30.2592 68.0939 30.2592C68.7099 30.2592 69.1999 30.0352 69.5639 29.5732C69.9279 29.1112 70.1099 28.4672 70.1099 27.6552C70.1099 26.8712 69.9279 26.2412 69.5639 25.7932C69.1999 25.3452 68.7099 25.1072 68.0799 25.1072ZM79.6827 24.0572V30.4412C79.6827 31.6873 79.4167 32.6113 78.8847 33.1993C78.3527 33.8013 77.4707 34.0953 76.2107 34.0953C74.2227 34.0953 73.1447 33.3673 72.9767 31.8973H74.5727C74.7127 32.6253 75.2727 32.9753 76.2527 32.9753C76.9107 32.9753 77.3867 32.8073 77.6947 32.4713C78.0027 32.1353 78.1567 31.6033 78.1567 30.8472V29.9932C77.6247 30.8052 76.8687 31.2112 75.8607 31.2112C74.8947 31.2112 74.1247 30.8892 73.5647 30.2452C73.0047 29.6012 72.7247 28.7192 72.7247 27.6132C72.7247 26.4932 73.0187 25.5832 73.6067 24.8972C74.1947 24.2113 74.9647 23.8612 75.9447 23.8612C76.4487 23.8612 76.8827 23.9592 77.2327 24.1552C77.5687 24.3512 77.8907 24.6452 78.1987 25.0652V24.0572H79.6827ZM76.2247 25.1492C75.6227 25.1492 75.1467 25.3732 74.8107 25.7932C74.4747 26.2272 74.3067 26.8292 74.3067 27.5853C74.3067 28.3132 74.4747 28.9012 74.8247 29.3212C75.1747 29.7552 75.6367 29.9652 76.2247 29.9652C76.8127 29.9652 77.2887 29.7552 77.6387 29.3072C77.9747 28.8592 78.1567 28.2572 78.1567 27.5012C78.1567 26.7732 77.9747 26.1992 77.6387 25.7792C77.3027 25.3592 76.8267 25.1492 76.2247 25.1492ZM82.9975 21.3132V31.2812H81.4155V21.3132H82.9975ZM91.2045 29.0272C91.0225 29.8112 90.6305 30.4272 90.0425 30.8612C89.4545 31.3093 88.7405 31.5193 87.9285 31.5193C86.8365 31.5193 85.9685 31.1692 85.3245 30.4692C84.6805 29.7692 84.3725 28.8592 84.3725 27.7532C84.3725 26.6332 84.6945 25.6952 85.3525 24.9532C86.0105 24.2252 86.8505 23.8472 87.8725 23.8472C88.9225 23.8472 89.7625 24.2113 90.3785 24.9392C90.9945 25.6672 91.3025 26.6472 91.3025 27.8932V28.0612H85.9685C85.9825 28.7892 86.1645 29.3632 86.5145 29.7552C86.8505 30.1472 87.3405 30.3432 87.9565 30.3432C88.3905 30.3432 88.7405 30.2452 89.0205 30.0352C89.3005 29.8252 89.5105 29.4892 89.6785 29.0272H91.2045ZM89.7065 26.9972C89.6505 26.3952 89.4685 25.9192 89.1325 25.5692C88.7965 25.2192 88.3765 25.0372 87.8585 25.0372C87.3265 25.0372 86.9065 25.2052 86.5845 25.5412C86.2625 25.8772 86.0665 26.3672 85.9965 26.9972H89.7065ZM96.6503 21.3132H100.976C102.04 21.3132 102.894 21.5792 103.51 22.0832C104.126 22.5872 104.448 23.3432 104.448 24.3512C104.448 25.3032 104.154 26.0592 103.58 26.6192C102.992 27.1792 102.208 27.4452 101.214 27.4452H98.4003V31.2812H96.6503V21.3132ZM98.4003 22.7692V26.0312H100.836C102.096 26.0312 102.74 25.4852 102.74 24.3932C102.74 23.3152 102.054 22.7692 100.682 22.7692H98.4003ZM107.388 21.3132V31.2812H105.806V21.3132H107.388ZM109.057 26.2832C109.225 24.6592 110.275 23.8332 112.221 23.8332C113.117 23.8332 113.845 24.0152 114.377 24.3652C114.909 24.7292 115.189 25.2752 115.189 26.0172V29.6852C115.189 29.8952 115.203 30.0352 115.259 30.1052C115.315 30.1892 115.413 30.2172 115.567 30.2172C115.679 30.2172 115.791 30.2172 115.931 30.1892V31.3093C115.511 31.4213 115.175 31.4633 114.895 31.4633C114.209 31.4633 113.817 31.1832 113.719 30.5952C113.103 31.1832 112.263 31.4633 111.185 31.4633C110.429 31.4633 109.841 31.2812 109.407 30.8892C108.959 30.4972 108.749 29.9792 108.749 29.3072C108.749 29.1112 108.763 28.9152 108.819 28.7332C108.861 28.5652 108.917 28.4112 108.973 28.2712C109.029 28.1452 109.127 28.0192 109.267 27.9072C109.407 27.7952 109.519 27.7112 109.603 27.6272C109.687 27.5572 109.841 27.4872 110.037 27.4172C110.233 27.3612 110.387 27.3052 110.485 27.2772C110.583 27.2492 110.751 27.2072 111.003 27.1653C111.241 27.1372 111.395 27.1092 111.479 27.0952C111.563 27.0812 111.731 27.0532 111.983 27.0252C112.543 26.9552 112.935 26.8992 113.145 26.8432C113.341 26.7872 113.481 26.7172 113.565 26.6052C113.621 26.5352 113.663 26.3672 113.663 26.0872C113.663 25.3592 113.159 24.9952 112.179 24.9952C111.647 24.9952 111.269 25.0932 111.031 25.2892C110.779 25.4852 110.625 25.8212 110.569 26.2832H109.057ZM113.649 27.6552C113.523 27.7252 113.383 27.7812 113.229 27.8372C113.061 27.8932 112.935 27.9212 112.837 27.9352C112.739 27.9492 112.585 27.9632 112.375 27.9912C112.165 28.0192 112.025 28.0472 111.969 28.0472C111.773 28.0752 111.619 28.1032 111.507 28.1312C111.395 28.1592 111.255 28.1872 111.087 28.2432C110.919 28.2992 110.793 28.3692 110.709 28.4532C110.625 28.5372 110.541 28.6352 110.485 28.7752C110.415 28.9152 110.387 29.0692 110.387 29.2512C110.387 29.6012 110.499 29.8672 110.723 30.0492C110.947 30.2452 111.269 30.3292 111.689 30.3292C112.389 30.3292 112.935 30.1472 113.327 29.7552C113.537 29.5452 113.649 29.1252 113.649 28.5092V27.6552ZM123.276 24.0572L120.602 31.1412C120.574 31.2112 120.518 31.3513 120.448 31.5613C120.364 31.7713 120.322 31.9113 120.294 31.9813C120.266 32.0653 120.21 32.1913 120.126 32.3733C120.042 32.5693 119.986 32.6953 119.944 32.7653L119.734 33.1013C119.636 33.2553 119.552 33.3673 119.468 33.4233C119.384 33.4933 119.286 33.5773 119.174 33.6753C119.062 33.7733 118.936 33.8433 118.824 33.8853C118.698 33.9273 118.558 33.9693 118.404 33.9973C118.25 34.0253 118.082 34.0393 117.914 34.0393C117.606 34.0393 117.242 34.0113 116.808 33.9553V32.6113C117.144 32.6813 117.424 32.7093 117.648 32.7093C117.76 32.7093 117.858 32.6953 117.956 32.6673C118.04 32.6393 118.124 32.5833 118.208 32.4993C118.278 32.4153 118.348 32.3453 118.404 32.2753C118.46 32.2052 118.502 32.1073 118.558 31.9813C118.614 31.8553 118.656 31.7573 118.684 31.6873C118.712 31.6173 118.74 31.5053 118.796 31.3513C118.838 31.2112 118.866 31.1132 118.88 31.0712L116.108 24.0572H117.858L119.79 29.3772L121.61 24.0572H123.276Z" fill="#333333"/>
</svg>
