<svg width="24" height="25" viewBox="0 0 24 25" fill="none" xmlns="http://www.w3.org/2000/svg">
<g clip-path="url(#clip0_4958_8837)">
<path d="M20 12.8906V6.63963C20.0001 6.56069 19.9845 6.48252 19.9543 6.40959C19.9241 6.33666 19.8798 6.27041 19.824 6.21462L16.676 3.06663C16.5636 2.95407 16.4111 2.89077 16.252 2.89062H4.6C4.44087 2.89062 4.28826 2.95384 4.17574 3.06636C4.06321 3.17888 4 3.3315 4 3.49062V22.2906C4 22.4498 4.06321 22.6024 4.17574 22.7149C4.28826 22.8274 4.44087 22.8906 4.6 22.8906H13M8 10.8906H16M8 6.89062H12M8 14.8906H11" stroke="white" stroke-width="1.5" stroke-linecap="round" stroke-linejoin="round"/>
<path d="M16 2.89062V6.29063C16 6.44975 16.0632 6.60237 16.1757 6.71489C16.2883 6.82741 16.4409 6.89062 16.6 6.89062H20M19.992 16.0156L22.548 16.6646C22.814 16.7326 23.001 16.9746 22.993 17.2486C22.821 23.0066 19.5 23.8906 19.5 23.8906C19.5 23.8906 16.179 23.0066 16.007 17.2486C16.0043 17.1153 16.0468 16.985 16.1276 16.879C16.2084 16.7729 16.3227 16.6974 16.452 16.6646L19.008 16.0156C19.331 15.9336 19.669 15.9336 19.992 16.0156Z" stroke="white" stroke-width="1.5" stroke-linecap="round" stroke-linejoin="round"/>
</g>
<defs>
<clipPath id="clip0_4958_8837">
<rect width="24" height="24" fill="white" transform="translate(0 0.890625)"/>
</clipPath>
</defs>
</svg>
