<svg width="24" height="25" viewBox="0 0 24 25" fill="none" xmlns="http://www.w3.org/2000/svg">
<path d="M18.18 8.93074L18.643 8.46674C19.0116 8.09795 19.5117 7.89072 20.0331 7.89063C20.5546 7.89053 21.0547 8.09758 21.4235 8.46624C21.7923 8.83489 21.9995 9.33494 21.9996 9.85638C21.9997 10.3778 21.7926 10.878 21.424 11.2467L20.961 11.7107M18.18 8.93074C18.18 8.93074 18.238 9.91474 19.107 10.7837C19.976 11.6527 20.961 11.7107 20.961 11.7107M18.18 8.93074L13.92 13.1907C13.63 13.4787 13.486 13.6237 13.362 13.7827C13.2153 13.9707 13.0906 14.1727 12.988 14.3887C12.901 14.5707 12.837 14.7637 12.708 15.1507L12.295 16.3907L12.161 16.7917M20.961 11.7107L16.701 15.9707C16.411 16.2607 16.267 16.4047 16.108 16.5287C15.92 16.6754 15.718 16.8001 15.502 16.9027C15.32 16.9897 15.127 17.0537 14.74 17.1827L13.5 17.5957L13.099 17.7297M12.161 16.7917L12.028 17.1937C11.997 17.287 11.9926 17.3871 12.0152 17.4828C12.0379 17.5785 12.0867 17.666 12.1562 17.7355C12.2257 17.805 12.3132 17.8538 12.4089 17.8765C12.5046 17.8991 12.6047 17.8947 12.698 17.8637L13.099 17.7297M12.161 16.7917L13.099 17.7297" stroke="white" stroke-width="1.5"/>
<path d="M8 13.8906H10.5M8 9.89062H14.5M8 17.8906H9.5M19.828 4.06262C18.657 2.89062 16.771 2.89062 13 2.89062H11C7.229 2.89062 5.343 2.89062 4.172 4.06262C3.001 5.23462 3 7.11963 3 10.8906V14.8906C3 18.6616 3 20.5476 4.172 21.7186C5.344 22.8896 7.229 22.8906 11 22.8906H13C16.771 22.8906 18.657 22.8906 19.828 21.7186C20.772 20.7756 20.955 19.3706 20.991 16.8906" stroke="white" stroke-width="1.5" stroke-linecap="round"/>
</svg>
