<svg width="24" height="25" viewBox="0 0 24 25" fill="none" xmlns="http://www.w3.org/2000/svg">
<path d="M5.84615 13.0005V8.95453C5.85817 8.15923 6.027 7.37412 6.34298 6.64418C6.65896 5.91424 7.11587 5.25383 7.68754 4.70077C8.2592 4.14771 8.93438 3.71288 9.67439 3.4212C10.4144 3.12952 11.2047 2.98671 12 3.00097C12.7953 2.98671 13.5856 3.12952 14.3256 3.4212C15.0656 3.71288 15.7408 4.14771 16.3125 4.70077C16.8841 5.25383 17.341 5.91424 17.657 6.64418C17.973 7.37412 18.1418 8.15923 18.1538 8.95453V13.0005M15.0769 21.077C15.893 21.077 16.6756 20.7529 17.2526 20.1758C17.8297 19.5988 18.1538 18.8163 18.1538 18.0002V14.5389M15.0769 21.077C15.0769 21.587 14.8743 22.0761 14.5137 22.4368C14.153 22.7974 13.6639 23 13.1538 23H10.8462C10.3361 23 9.84698 22.7974 9.48633 22.4368C9.12569 22.0761 8.92308 21.587 8.92308 21.077C8.92308 20.567 9.12569 20.0779 9.48633 19.7173C9.84698 19.3566 10.3361 19.154 10.8462 19.154H13.1538C13.6639 19.154 14.153 19.3566 14.5137 19.7173C14.8743 20.0779 15.0769 20.567 15.0769 21.077ZM3.53846 10.6929H5.07692C5.28094 10.6929 5.47659 10.7739 5.62085 10.9182C5.76511 11.0624 5.84615 11.2581 5.84615 11.4621V16.0773C5.84615 16.2813 5.76511 16.4769 5.62085 16.6212C5.47659 16.7654 5.28094 16.8465 5.07692 16.8465H3.53846C3.13044 16.8465 2.73912 16.6844 2.4506 16.3959C2.16209 16.1074 2 15.7161 2 15.3081V12.2313C2 11.8233 2.16209 11.432 2.4506 11.1435C2.73912 10.855 3.13044 10.6929 3.53846 10.6929ZM20.4615 16.8465H18.9231C18.7191 16.8465 18.5234 16.7654 18.3791 16.6212C18.2349 16.4769 18.1538 16.2813 18.1538 16.0773V11.4621C18.1538 11.2581 18.2349 11.0624 18.3791 10.9182C18.5234 10.7739 18.7191 10.6929 18.9231 10.6929H20.4615C20.8696 10.6929 21.2609 10.855 21.5494 11.1435C21.8379 11.432 22 11.8233 22 12.2313V15.3081C22 15.7161 21.8379 16.1074 21.5494 16.3959C21.2609 16.6844 20.8696 16.8465 20.4615 16.8465Z" stroke="white" stroke-width="1.5" stroke-linecap="round" stroke-linejoin="round"/>
</svg>
