<svg width="24" height="24" viewBox="0 0 24 24" fill="none" xmlns="http://www.w3.org/2000/svg">
<path d="M23.6425 4.93952C22.8075 5.30952 21.9105 5.55952 20.9675 5.67252C21.9405 5.09031 22.6685 4.17398 23.0155 3.09452C22.1014 3.63751 21.1009 4.01971 20.0575 4.22452C19.3559 3.47538 18.4266 2.97884 17.4138 2.81199C16.4011 2.64514 15.3616 2.81731 14.4568 3.30177C13.5519 3.78623 12.8323 4.55588 12.4097 5.49122C11.9871 6.42656 11.8851 7.47527 12.1195 8.47452C10.2672 8.38151 8.45515 7.90007 6.80095 7.06142C5.14674 6.22278 3.68736 5.04568 2.51752 3.60652C2.11752 4.29652 1.88752 5.09652 1.88752 5.94852C1.88708 6.71551 2.07596 7.47076 2.4374 8.14725C2.79885 8.82374 3.32168 9.40056 3.95952 9.82652C3.2198 9.80298 2.4964 9.6031 1.84952 9.24352V9.30352C1.84945 10.3793 2.22156 11.4219 2.90271 12.2545C3.58386 13.0871 4.53209 13.6584 5.58652 13.8715C4.90031 14.0572 4.18086 14.0846 3.48252 13.9515C3.78002 14.8771 4.35952 15.6865 5.13989 16.2664C5.92026 16.8463 6.86244 17.1677 7.83452 17.1855C6.18436 18.4809 4.14641 19.1836 2.04852 19.1805C1.6769 19.1806 1.3056 19.1589 0.936523 19.1155C3.066 20.4847 5.54486 21.2113 8.07652 21.2085C16.6465 21.2085 21.3315 14.1105 21.3315 7.95452C21.3315 7.75452 21.3265 7.55252 21.3175 7.35252C22.2288 6.69349 23.0154 5.87741 23.6405 4.94252L23.6425 4.93952Z" fill="#F8F8F8"/>
</svg>
