<svg width="171" height="49" viewBox="0 0 171 49" fill="none" xmlns="http://www.w3.org/2000/svg">
<rect x="0.5" y="0.855225" width="170" height="47" rx="11.5" stroke="url(#paint0_linear_1124_2099)"/>
<path d="M70.404 23.5019L74.254 33.4839H72.378L71.426 30.8379H67.478L66.498 33.4839H64.692L68.542 23.5019H70.404ZM70.964 29.5219L69.48 25.3219L67.926 29.5219H70.964ZM76.5079 26.2599V27.2259C76.9839 26.4419 77.7679 26.0499 78.8599 26.0499C79.8539 26.0499 80.6519 26.3999 81.2539 27.0999C81.8419 27.7999 82.1499 28.7379 82.1499 29.8999C82.1499 31.0479 81.8559 31.9579 81.2679 32.6439C80.6799 33.3299 79.9099 33.6659 78.9439 33.6659C77.9079 33.6659 77.1239 33.2879 76.5919 32.5319V36.1579H75.0099V26.2599H76.5079ZM78.5379 27.3379C77.9079 27.3379 77.4179 27.5619 77.0679 28.0099C76.7039 28.4579 76.5359 29.0879 76.5359 29.8719C76.5359 30.6559 76.7039 31.2719 77.0679 31.7199C77.4319 32.1679 77.9219 32.3919 78.5659 32.3919C79.1679 32.3919 79.6439 32.1679 80.0079 31.7199C80.3579 31.2719 80.5399 30.6699 80.5399 29.8999C80.5399 29.1159 80.3579 28.4999 79.9939 28.0379C79.6299 27.5759 79.1539 27.3379 78.5379 27.3379ZM85.0665 26.2599V27.2259C85.5425 26.4419 86.3265 26.0499 87.4185 26.0499C88.4125 26.0499 89.2105 26.3999 89.8125 27.0999C90.4005 27.7999 90.7085 28.7379 90.7085 29.8999C90.7085 31.0479 90.4145 31.9579 89.8265 32.6439C89.2385 33.3299 88.4685 33.6659 87.5025 33.6659C86.4665 33.6659 85.6825 33.2879 85.1505 32.5319V36.1579H83.5685V26.2599H85.0665ZM87.0965 27.3379C86.4665 27.3379 85.9765 27.5619 85.6265 28.0099C85.2625 28.4579 85.0945 29.0879 85.0945 29.8719C85.0945 30.6559 85.2625 31.2719 85.6265 31.7199C85.9905 32.1679 86.4805 32.3919 87.1245 32.3919C87.7265 32.3919 88.2025 32.1679 88.5665 31.7199C88.9165 31.2719 89.0985 30.6699 89.0985 29.8999C89.0985 29.1159 88.9165 28.4999 88.5525 28.0379C88.1885 27.5759 87.7125 27.3379 87.0965 27.3379ZM93.7371 23.5159V33.4839H92.1551V23.5159H93.7371ZM101.944 31.2299C101.762 32.0139 101.37 32.6299 100.782 33.0639C100.194 33.5119 99.4801 33.7219 98.6681 33.7219C97.5761 33.7219 96.7081 33.3719 96.0641 32.6719C95.4201 31.9719 95.1121 31.0619 95.1121 29.9559C95.1121 28.8359 95.4341 27.8979 96.0921 27.1559C96.7501 26.4279 97.5901 26.0499 98.6121 26.0499C99.6621 26.0499 100.502 26.4139 101.118 27.1419C101.734 27.8699 102.042 28.8499 102.042 30.0959V30.2639H96.7081C96.7221 30.9919 96.9041 31.5659 97.2541 31.9579C97.5901 32.3499 98.0801 32.5459 98.6961 32.5459C99.1301 32.5459 99.4801 32.4479 99.7601 32.2379C100.04 32.0279 100.25 31.6919 100.418 31.2299H101.944ZM100.446 29.1999C100.39 28.5979 100.208 28.1219 99.8721 27.7719C99.5361 27.4219 99.1161 27.2399 98.5981 27.2399C98.0661 27.2399 97.6461 27.4079 97.3241 27.7439C97.0021 28.0799 96.8061 28.5699 96.7361 29.1999H100.446ZM114.53 26.4559H112.864C112.752 25.2939 112.038 24.7059 110.694 24.7059C110.092 24.7059 109.63 24.8319 109.294 25.0839C108.958 25.3359 108.79 25.6719 108.79 26.0919C108.79 26.4979 108.902 26.7779 109.154 26.9179C109.406 27.0719 109.952 27.2539 110.806 27.4639C111.03 27.5339 111.198 27.5759 111.324 27.6039C112.43 27.8839 113.186 28.1359 113.592 28.3599C114.474 28.8359 114.922 29.5779 114.922 30.5859C114.922 31.0339 114.838 31.4259 114.698 31.7759C114.544 32.1399 114.348 32.4339 114.096 32.6719C113.844 32.9099 113.536 33.1059 113.2 33.2599C112.85 33.4279 112.486 33.5399 112.122 33.6099C111.744 33.6799 111.352 33.7079 110.96 33.7079C109.7 33.7079 108.692 33.4139 107.922 32.8119C107.138 32.2239 106.76 31.3419 106.76 30.1799H108.482C108.482 30.9079 108.72 31.4539 109.196 31.8039C109.672 32.1539 110.288 32.3219 111.058 32.3219C111.73 32.3219 112.248 32.1959 112.626 31.9159C113.004 31.6359 113.2 31.2579 113.2 30.7539C113.2 30.4459 113.088 30.1799 112.892 29.9839C112.696 29.7879 112.472 29.6339 112.248 29.5499C112.01 29.4659 111.604 29.3539 111.03 29.1999C110.96 29.1859 110.904 29.1719 110.876 29.1579C109.63 28.8499 108.818 28.5839 108.426 28.3739C107.614 27.9539 107.18 27.3099 107.124 26.4279V26.2319C107.124 25.3499 107.446 24.6499 108.118 24.1179C108.79 23.5859 109.686 23.3199 110.806 23.3199C111.884 23.3199 112.766 23.5859 113.452 24.0899C114.124 24.6079 114.488 25.3919 114.53 26.4559ZM119.758 26.2599V27.4219H118.302V31.2299C118.302 31.4539 118.302 31.6219 118.316 31.7059C118.316 31.7899 118.344 31.8879 118.4 31.9999C118.442 32.1119 118.526 32.1819 118.638 32.2099C118.75 32.2519 118.918 32.2659 119.128 32.2659C119.38 32.2659 119.59 32.2659 119.758 32.2379V33.4979C119.436 33.5399 119.072 33.5539 118.68 33.5539C118.4 33.5539 118.148 33.5399 117.938 33.4979C117.728 33.4559 117.56 33.3999 117.42 33.3439C117.28 33.2879 117.154 33.2039 117.07 33.0639C116.972 32.9239 116.902 32.8119 116.846 32.7279C116.79 32.6439 116.762 32.4759 116.734 32.2519C116.706 32.0279 116.706 31.8599 116.706 31.7479V31.1319V31.0479V30.9639V30.8659V27.4219H115.502V26.2599H116.706V24.0899H118.302V26.2599H119.758ZM124.238 26.0499C125.33 26.0499 126.212 26.3999 126.87 27.0859C127.514 27.7859 127.85 28.7099 127.85 29.8719C127.85 31.0479 127.514 31.9859 126.87 32.6719C126.226 33.3719 125.344 33.7079 124.238 33.7079C123.104 33.7079 122.208 33.3719 121.55 32.6719C120.878 31.9859 120.556 31.0479 120.556 29.8719C120.556 28.7099 120.878 27.7859 121.55 27.0859C122.222 26.3999 123.118 26.0499 124.238 26.0499ZM124.21 27.3099C123.566 27.3099 123.076 27.5479 122.712 27.9959C122.348 28.4579 122.166 29.0879 122.166 29.8719C122.166 30.6839 122.348 31.3279 122.712 31.7759C123.076 32.2379 123.58 32.4619 124.224 32.4619C124.84 32.4619 125.33 32.2379 125.694 31.7759C126.058 31.3139 126.24 30.6699 126.24 29.8579C126.24 29.0739 126.058 28.4439 125.694 27.9959C125.33 27.5479 124.84 27.3099 124.21 27.3099ZM133.279 26.1199V27.6459C132.999 27.6179 132.803 27.6039 132.719 27.6039C131.319 27.6039 130.633 28.5139 130.633 30.3059V33.4839H129.051V26.2599H130.549V27.7019C131.053 26.6379 131.865 26.0919 132.971 26.0919L133.279 26.1199ZM140.335 31.2299C140.153 32.0139 139.761 32.6299 139.173 33.0639C138.585 33.5119 137.871 33.7219 137.059 33.7219C135.967 33.7219 135.099 33.3719 134.455 32.6719C133.811 31.9719 133.503 31.0619 133.503 29.9559C133.503 28.8359 133.825 27.8979 134.483 27.1559C135.141 26.4279 135.981 26.0499 137.003 26.0499C138.053 26.0499 138.893 26.4139 139.509 27.1419C140.125 27.8699 140.433 28.8499 140.433 30.0959V30.2639H135.099C135.113 30.9919 135.295 31.5659 135.645 31.9579C135.981 32.3499 136.471 32.5459 137.087 32.5459C137.521 32.5459 137.871 32.4479 138.151 32.2379C138.431 32.0279 138.641 31.6919 138.809 31.2299H140.335ZM138.837 29.1999C138.781 28.5979 138.599 28.1219 138.263 27.7719C137.927 27.4219 137.507 27.2399 136.989 27.2399C136.457 27.2399 136.037 27.4079 135.715 27.7439C135.393 28.0799 135.197 28.5699 135.127 29.1999H138.837Z" fill="url(#paint1_linear_1124_2099)"/>
<path d="M65.594 11.2352H67.904C69.114 11.2352 70.004 11.5152 70.574 12.0752C71.154 12.6352 71.434 13.5252 71.434 14.7352C71.434 15.9352 71.174 16.8352 70.634 17.4452C70.104 18.0552 69.254 18.3552 68.084 18.3552H65.594V11.2352ZM66.524 12.0452L66.534 17.5552H67.964C68.854 17.5552 69.504 17.3352 69.904 16.8952C70.304 16.4552 70.504 15.7752 70.504 14.8452C70.504 13.8752 70.314 13.1652 69.914 12.7152C69.524 12.2752 68.854 12.0452 67.914 12.0452H66.524ZM74.7451 13.0452C75.5251 13.0452 76.1251 13.2852 76.5651 13.7652C76.9951 14.2352 77.2151 14.8952 77.2151 15.7452C77.2151 16.6252 76.9951 17.3052 76.5651 17.7852C76.1251 18.2752 75.5151 18.5152 74.7351 18.5152C73.9451 18.5152 73.3251 18.2752 72.8851 17.7952C72.4351 17.3152 72.2151 16.6552 72.2151 15.7952C72.2151 14.9552 72.4351 14.2852 72.8951 13.7852C73.3451 13.2952 73.9651 13.0452 74.7451 13.0452ZM74.7251 13.7652C74.2251 13.7652 73.8251 13.9452 73.5351 14.3052C73.2351 14.6752 73.0951 15.1652 73.0951 15.7752C73.0951 16.4152 73.2351 16.9052 73.5251 17.2652C73.8151 17.6252 74.2251 17.7952 74.7451 17.7952C75.2451 17.7952 75.6351 17.6152 75.9151 17.2552C76.1951 16.8952 76.3451 16.4052 76.3451 15.7652C76.3451 15.1552 76.1951 14.6652 75.9051 14.3052C75.6151 13.9452 75.2251 13.7652 74.7251 13.7652ZM77.7572 13.1952H78.6972L79.8772 17.4452L80.9272 13.1952H81.8572L82.9472 17.4452L84.1173 13.1952H84.9973L83.3473 18.3552H82.4473L81.3873 14.2752L80.3372 18.3552H79.4172L77.7572 13.1952ZM86.6054 13.1952V13.9952C87.0254 13.3752 87.6154 13.0552 88.3654 13.0552C88.9654 13.0552 89.4054 13.2152 89.6754 13.5352C89.9454 13.8552 90.0854 14.3152 90.0854 14.9252V18.3552H89.2354V15.3152C89.2354 15.0652 89.2254 14.8652 89.2054 14.7252C89.1854 14.5852 89.1454 14.4252 89.0854 14.2652C89.0154 14.1052 88.9054 13.9852 88.7454 13.9052C88.5854 13.8352 88.3754 13.7952 88.1254 13.7952C87.1454 13.7952 86.6554 14.4152 86.6554 15.6552V18.3552H85.8054V13.1952H86.6054ZM92.262 11.2352V18.3552H91.402V11.2352H92.262ZM95.8388 13.0452C96.6188 13.0452 97.2188 13.2852 97.6588 13.7652C98.0888 14.2352 98.3088 14.8952 98.3088 15.7452C98.3088 16.6252 98.0888 17.3052 97.6588 17.7852C97.2188 18.2752 96.6088 18.5152 95.8288 18.5152C95.0388 18.5152 94.4188 18.2752 93.9788 17.7952C93.5288 17.3152 93.3088 16.6552 93.3088 15.7952C93.3088 14.9552 93.5288 14.2852 93.9888 13.7852C94.4388 13.2952 95.0588 13.0452 95.8388 13.0452ZM95.8188 13.7652C95.3188 13.7652 94.9188 13.9452 94.6288 14.3052C94.3288 14.6752 94.1888 15.1652 94.1888 15.7752C94.1888 16.4152 94.3288 16.9052 94.6188 17.2652C94.9088 17.6252 95.3188 17.7952 95.8388 17.7952C96.3388 17.7952 96.7288 17.6152 97.0088 17.2552C97.2888 16.8952 97.4388 16.4052 97.4388 15.7652C97.4388 15.1552 97.2888 14.6652 96.9988 14.3052C96.7088 13.9452 96.3188 13.7652 95.8188 13.7652ZM103.891 17.6752V18.3452C103.711 18.4052 103.521 18.4452 103.311 18.4452C102.821 18.4452 102.571 18.1852 102.561 17.6852C102.071 18.2252 101.451 18.5052 100.691 18.5052C100.181 18.5052 99.781 18.3752 99.481 18.1152C99.181 17.8552 99.041 17.4952 99.041 17.0452C99.041 16.1252 99.651 15.5852 100.871 15.4352C100.951 15.4152 101.061 15.4052 101.221 15.3952C101.801 15.3252 102.151 15.2452 102.291 15.1652C102.441 15.0552 102.521 14.8752 102.521 14.6152C102.521 14.0452 102.131 13.7652 101.351 13.7652C100.951 13.7652 100.641 13.8452 100.441 14.0052C100.231 14.1652 100.111 14.4352 100.071 14.8152H99.241C99.251 14.2552 99.451 13.8252 99.831 13.5252C100.211 13.2152 100.731 13.0652 101.401 13.0652C102.121 13.0652 102.661 13.2252 103.021 13.5652C103.131 13.6652 103.211 13.8052 103.271 13.9852C103.321 14.1552 103.351 14.2952 103.361 14.4052C103.361 14.5152 103.371 14.6852 103.371 14.9052C103.371 15.1552 103.361 15.5352 103.351 16.0452C103.331 16.5652 103.331 16.9452 103.331 17.1952C103.331 17.3852 103.351 17.5152 103.401 17.5952C103.451 17.6752 103.541 17.7052 103.681 17.7052C103.731 17.7052 103.801 17.6952 103.891 17.6752ZM102.521 15.6852C102.461 15.7252 102.391 15.7652 102.331 15.8052C102.261 15.8352 102.171 15.8652 102.071 15.8852C101.971 15.9052 101.901 15.9152 101.861 15.9252C101.821 15.9352 101.741 15.9452 101.601 15.9652C101.461 15.9852 101.381 15.9952 101.381 15.9952C101.171 16.0152 101.031 16.0352 100.971 16.0452C100.911 16.0552 100.791 16.0852 100.611 16.1352C100.431 16.1752 100.311 16.2352 100.241 16.2952C100.161 16.3552 100.091 16.4352 100.021 16.5552C99.951 16.6752 99.921 16.8152 99.921 16.9752C99.921 17.2352 100.011 17.4452 100.191 17.6052C100.371 17.7552 100.631 17.8352 100.951 17.8352C101.351 17.8352 101.721 17.7152 102.041 17.4752C102.361 17.2352 102.521 16.9452 102.521 16.6252V15.6852ZM109.342 11.2352V18.3552H108.542V17.5952C108.212 18.1952 107.642 18.4952 106.842 18.4952C106.102 18.4952 105.522 18.2552 105.092 17.7652C104.662 17.2752 104.452 16.6052 104.452 15.7652C104.452 14.9852 104.652 14.3452 105.052 13.8252C105.452 13.3052 106.042 13.0452 106.802 13.0452C107.542 13.0452 108.102 13.3252 108.492 13.8852V11.2352H109.342ZM106.912 13.7752C106.422 13.7752 106.032 13.9552 105.752 14.3052C105.472 14.6652 105.332 15.1452 105.332 15.7452C105.332 16.3752 105.472 16.8752 105.762 17.2452C106.052 17.6152 106.442 17.7952 106.932 17.7952C107.422 17.7952 107.812 17.6252 108.092 17.2652C108.372 16.9052 108.512 16.4152 108.512 15.7752C108.512 15.2152 108.372 14.7352 108.112 14.3552C107.852 13.9752 107.452 13.7752 106.912 13.7752ZM116.553 11.0652C117.633 11.0652 118.473 11.4052 119.073 12.0852C119.673 12.7652 119.973 13.6452 119.973 14.7352C119.973 15.8352 119.673 16.7452 119.083 17.4552C118.483 18.1752 117.643 18.5252 116.563 18.5252C116.003 18.5252 115.513 18.4252 115.073 18.2252C114.633 18.0252 114.273 17.7552 113.993 17.3952C113.713 17.0452 113.503 16.6452 113.363 16.1852C113.223 15.7352 113.153 15.2452 113.153 14.7152C113.153 13.6052 113.453 12.7152 114.073 12.0552C114.693 11.3952 115.513 11.0652 116.553 11.0652ZM116.553 11.8852C115.753 11.8852 115.143 12.1652 114.723 12.7252C114.303 13.2852 114.083 13.9652 114.083 14.7852C114.083 15.6852 114.313 16.3952 114.763 16.9252C115.213 17.4552 115.813 17.7152 116.563 17.7152C117.313 17.7152 117.913 17.4552 118.363 16.9152C118.803 16.3852 119.033 15.6752 119.033 14.7852C119.033 13.9052 118.803 13.2052 118.353 12.6752C117.903 12.1552 117.303 11.8852 116.553 11.8852ZM121.801 13.1952V13.9952C122.221 13.3752 122.811 13.0552 123.561 13.0552C124.161 13.0552 124.601 13.2152 124.871 13.5352C125.141 13.8552 125.281 14.3152 125.281 14.9252V18.3552H124.431V15.3152C124.431 15.0652 124.421 14.8652 124.401 14.7252C124.381 14.5852 124.341 14.4252 124.281 14.2652C124.211 14.1052 124.101 13.9852 123.941 13.9052C123.781 13.8352 123.571 13.7952 123.321 13.7952C122.341 13.7952 121.851 14.4152 121.851 15.6552V18.3552H121.001V13.1952H121.801Z" fill="url(#paint2_linear_1124_2099)"/>
<path d="M45.7328 37.6346H29.6067C26.5152 37.6346 24 35.1408 24 32.0755V16.0865C24 13.0212 26.5152 10.5273 29.6067 10.5273H45.7328C48.8244 10.5273 51.3396 13.0212 51.3396 16.0865V32.0755C51.3396 35.1408 48.8244 37.6346 45.7328 37.6346Z" fill="#00C3FF"/>
<path d="M45.7328 10.5273H37.6698V37.6346H45.7328C48.8244 37.6346 51.3396 35.1408 51.3396 32.0755V16.0865C51.3396 13.0212 48.8244 10.5273 45.7328 10.5273Z" fill="#00AAF0"/>
<path d="M32.4182 31.4146C32.1712 31.8387 31.7215 32.076 31.2598 32.0761C31.0335 32.0761 30.8043 32.0191 30.5946 31.899C29.9571 31.5342 29.7379 30.7231 30.1059 30.091L30.3685 29.6401H33.4514L32.4182 31.4146Z" fill="white"/>
<path d="M29.9005 28.5813C29.1644 28.5813 28.5656 27.9875 28.5656 27.2577C28.5656 26.5279 29.1644 25.9341 29.9005 25.9341H32.5265L36.1284 19.7485L35.1522 18.072C34.7842 17.44 35.0034 16.6289 35.6408 16.264H35.6409C36.2783 15.8991 37.0964 16.1165 37.4644 16.7484L37.6699 17.1013L37.8753 16.7485C38.2435 16.1164 39.0616 15.8991 39.6989 16.264C40.0077 16.4408 40.2286 16.7262 40.3208 17.0677C40.4132 17.4092 40.3658 17.7659 40.1875 18.0721L35.6094 25.9341H38.4971L40.0386 28.5813H29.9005Z" fill="white"/>
<path d="M45.4392 28.5814H44.3546L45.2337 30.0911C45.6018 30.7231 45.3826 31.5342 44.7452 31.8991C44.5394 32.0169 44.3111 32.0771 44.0798 32.0771C43.9638 32.0771 43.8472 32.062 43.7321 32.0314C43.3877 31.9398 43.0998 31.7208 42.9215 31.4146L38.2864 23.4546L39.8278 20.8074L42.8132 25.9342H45.4392C46.1753 25.9342 46.7741 26.528 46.7741 27.2578C46.7741 27.9876 46.1753 28.5814 45.4392 28.5814Z" fill="#F2F2F2"/>
<path d="M37.6699 25.9343V28.5815H40.0386L38.4972 25.9343H37.6699Z" fill="#F2F2F2"/>
<path d="M40.3208 17.0677C40.2285 16.7262 40.0076 16.4407 39.6988 16.264C39.0615 15.8991 38.2434 16.1163 37.8753 16.7485L37.6698 17.1013V22.3957L40.1874 18.0721C40.3657 17.7659 40.4131 17.4092 40.3208 17.0677Z" fill="#F2F2F2"/>
<defs>
<linearGradient id="paint0_linear_1124_2099" x1="85.5" y1="48.3552" x2="85.5" y2="0.355224" gradientUnits="userSpaceOnUse">
<stop offset="0.229642" stop-color="white"/>
<stop offset="1" stop-color="#FFF7F7"/>
</linearGradient>
<linearGradient id="paint1_linear_1124_2099" x1="105.902" y1="40.3552" x2="105.902" y2="19.4839" gradientUnits="userSpaceOnUse">
<stop offset="0.229642" stop-color="white"/>
<stop offset="1" stop-color="#FFF7F7"/>
</linearGradient>
<linearGradient id="paint2_linear_1124_2099" x1="98.8853" y1="23.2633" x2="98.8853" y2="8.35522" gradientUnits="userSpaceOnUse">
<stop offset="0.229642" stop-color="white"/>
<stop offset="1" stop-color="#FFF7F7"/>
</linearGradient>
</defs>
</svg>
