<svg width="169" height="49" viewBox="0 0 169 49" fill="none" xmlns="http://www.w3.org/2000/svg">
<rect x="0.5" y="0.855225" width="168" height="47" rx="11.5" stroke="url(#paint0_linear_1124_2087)"/>
<path d="M39.4041 24.3552L24.9277 35.8221C24.3734 35.3795 24 34.6919 24 33.8721V14.8383C24 14.0185 24.3734 13.331 24.9277 12.8889L39.4041 24.3552Z" fill="#9DC6FB"/>
<path d="M43.7857 26.5023L40.283 28.5674L37.2129 28.1754L36.1583 24.3552L36.6939 20.6977L40.283 20.1436L43.7857 22.208C45.4047 23.1624 45.4047 25.5479 43.7857 26.5023Z" fill="#FFE07D"/>
<path d="M40.2827 28.5677L27.6422 36.0195C26.7185 36.5636 25.6637 36.4095 24.9279 35.8223L36.158 24.3555L40.2827 28.5677Z" fill="#DD5790"/>
<path d="M40.2827 20.1434L36.158 24.355L24.9279 12.8887C25.6637 12.3009 26.7185 12.1468 27.6422 12.691L40.2827 20.1434Z" fill="#95D6A4"/>
<path d="M26.7368 33.8721C26.7368 34.0387 26.752 34.1995 26.7813 34.354L24.9279 35.8221C24.3736 35.3797 24 34.6921 24 33.8721V14.8384C24 14.0189 24.3736 13.3313 24.9279 12.8889L26.7813 14.3569C26.7519 14.5114 26.7368 14.6723 26.7368 14.8384V33.8721Z" fill="#80B4FB"/>
<path d="M27.8033 35.9248L27.6425 36.0194C26.7188 36.5631 25.6637 36.4091 24.9279 35.8219L26.7387 33.9729C26.768 34.7484 27.1331 35.3979 27.6642 35.8219H27.6647C27.7096 35.8576 27.756 35.8924 27.8033 35.9248Z" fill="#DA387D"/>
<path d="M27.6647 12.8885L27.6651 12.8895L27.6642 12.8885C27.1326 13.3125 26.768 13.9625 26.7387 14.7375L24.9279 12.8885C25.6637 12.3009 26.7188 12.1468 27.6424 12.6911L27.8032 12.7857C27.7559 12.818 27.7096 12.8528 27.6647 12.8885Z" fill="#78C2A4"/>
<path d="M70.8 28.072V33.406H69.68L69.414 32.216C68.616 33.168 67.58 33.644 66.306 33.644C64.906 33.644 63.758 33.168 62.89 32.216C62.022 31.264 61.588 30.032 61.588 28.492C61.588 26.994 62.022 25.748 62.904 24.74C63.772 23.732 64.962 23.228 66.46 23.228C67.538 23.228 68.476 23.536 69.288 24.138C70.1 24.754 70.562 25.58 70.674 26.616H68.98C68.868 26.028 68.588 25.552 68.14 25.216C67.692 24.88 67.118 24.698 66.446 24.698C65.48 24.698 64.724 25.034 64.178 25.706C63.618 26.378 63.352 27.302 63.352 28.464C63.352 29.64 63.618 30.564 64.178 31.236C64.738 31.908 65.508 32.23 66.502 32.23C67.37 32.23 68.028 31.964 68.504 31.418C68.98 30.886 69.218 30.214 69.218 29.416H66.53V28.072H70.8ZM75.809 25.972C76.901 25.972 77.783 26.322 78.441 27.008C79.085 27.708 79.421 28.632 79.421 29.794C79.421 30.97 79.085 31.908 78.441 32.594C77.797 33.294 76.915 33.63 75.809 33.63C74.675 33.63 73.779 33.294 73.121 32.594C72.449 31.908 72.127 30.97 72.127 29.794C72.127 28.632 72.449 27.708 73.121 27.008C73.793 26.322 74.689 25.972 75.809 25.972ZM75.781 27.232C75.137 27.232 74.647 27.47 74.283 27.918C73.919 28.38 73.737 29.01 73.737 29.794C73.737 30.606 73.919 31.25 74.283 31.698C74.647 32.16 75.151 32.384 75.795 32.384C76.411 32.384 76.901 32.16 77.265 31.698C77.629 31.236 77.811 30.592 77.811 29.78C77.811 28.996 77.629 28.366 77.265 27.918C76.901 27.47 76.411 27.232 75.781 27.232ZM84.1079 25.972C85.1999 25.972 86.0819 26.322 86.7399 27.008C87.3839 27.708 87.7199 28.632 87.7199 29.794C87.7199 30.97 87.3839 31.908 86.7399 32.594C86.0959 33.294 85.2139 33.63 84.1079 33.63C82.9739 33.63 82.0779 33.294 81.4199 32.594C80.7479 31.908 80.4259 30.97 80.4259 29.794C80.4259 28.632 80.7479 27.708 81.4199 27.008C82.0919 26.322 82.9879 25.972 84.1079 25.972ZM84.0799 27.232C83.4359 27.232 82.9459 27.47 82.5819 27.918C82.2179 28.38 82.0359 29.01 82.0359 29.794C82.0359 30.606 82.2179 31.25 82.5819 31.698C82.9459 32.16 83.4499 32.384 84.0939 32.384C84.7099 32.384 85.1999 32.16 85.5639 31.698C85.9279 31.236 86.1099 30.592 86.1099 29.78C86.1099 28.996 85.9279 28.366 85.5639 27.918C85.1999 27.47 84.7099 27.232 84.0799 27.232ZM95.6827 26.182V32.566C95.6827 33.812 95.4167 34.736 94.8847 35.324C94.3527 35.926 93.4707 36.22 92.2107 36.22C90.2227 36.22 89.1447 35.492 88.9767 34.022H90.5727C90.7127 34.75 91.2727 35.1 92.2527 35.1C92.9107 35.1 93.3867 34.932 93.6947 34.596C94.0027 34.26 94.1567 33.728 94.1567 32.972V32.118C93.6247 32.93 92.8687 33.336 91.8607 33.336C90.8947 33.336 90.1247 33.014 89.5647 32.37C89.0047 31.726 88.7247 30.844 88.7247 29.738C88.7247 28.618 89.0187 27.708 89.6067 27.022C90.1947 26.336 90.9647 25.986 91.9447 25.986C92.4487 25.986 92.8827 26.084 93.2327 26.28C93.5687 26.476 93.8907 26.77 94.1987 27.19V26.182H95.6827ZM92.2247 27.274C91.6227 27.274 91.1467 27.498 90.8107 27.918C90.4747 28.352 90.3067 28.954 90.3067 29.71C90.3067 30.438 90.4747 31.026 90.8247 31.446C91.1747 31.88 91.6367 32.09 92.2247 32.09C92.8127 32.09 93.2887 31.88 93.6387 31.432C93.9747 30.984 94.1567 30.382 94.1567 29.626C94.1567 28.898 93.9747 28.324 93.6387 27.904C93.3027 27.484 92.8267 27.274 92.2247 27.274ZM98.9975 23.438V33.406H97.4155V23.438H98.9975ZM107.204 31.152C107.022 31.936 106.63 32.552 106.042 32.986C105.454 33.434 104.74 33.644 103.928 33.644C102.836 33.644 101.968 33.294 101.324 32.594C100.68 31.894 100.372 30.984 100.372 29.878C100.372 28.758 100.694 27.82 101.352 27.078C102.01 26.35 102.85 25.972 103.872 25.972C104.922 25.972 105.762 26.336 106.378 27.064C106.994 27.792 107.302 28.772 107.302 30.018V30.186H101.968C101.982 30.914 102.164 31.488 102.514 31.88C102.85 32.272 103.34 32.468 103.956 32.468C104.39 32.468 104.74 32.37 105.02 32.16C105.3 31.95 105.51 31.614 105.678 31.152H107.204ZM105.706 29.122C105.65 28.52 105.468 28.044 105.132 27.694C104.796 27.344 104.376 27.162 103.858 27.162C103.326 27.162 102.906 27.33 102.584 27.666C102.262 28.002 102.066 28.492 101.996 29.122H105.706ZM112.65 23.438H116.976C118.04 23.438 118.894 23.704 119.51 24.208C120.126 24.712 120.448 25.468 120.448 26.476C120.448 27.428 120.154 28.184 119.58 28.744C118.992 29.304 118.208 29.57 117.214 29.57H114.4V33.406H112.65V23.438ZM114.4 24.894V28.156H116.836C118.096 28.156 118.74 27.61 118.74 26.518C118.74 25.44 118.054 24.894 116.682 24.894H114.4ZM123.388 23.438V33.406H121.806V23.438H123.388ZM125.057 28.408C125.225 26.784 126.275 25.958 128.221 25.958C129.117 25.958 129.845 26.14 130.377 26.49C130.909 26.854 131.189 27.4 131.189 28.142V31.81C131.189 32.02 131.203 32.16 131.259 32.23C131.315 32.314 131.413 32.342 131.567 32.342C131.679 32.342 131.791 32.342 131.931 32.314V33.434C131.511 33.546 131.175 33.588 130.895 33.588C130.209 33.588 129.817 33.308 129.719 32.72C129.103 33.308 128.263 33.588 127.185 33.588C126.429 33.588 125.841 33.406 125.407 33.014C124.959 32.622 124.749 32.104 124.749 31.432C124.749 31.236 124.763 31.04 124.819 30.858C124.861 30.69 124.917 30.536 124.973 30.396C125.029 30.27 125.127 30.144 125.267 30.032C125.407 29.92 125.519 29.836 125.603 29.752C125.687 29.682 125.841 29.612 126.037 29.542C126.233 29.486 126.387 29.43 126.485 29.402C126.583 29.374 126.751 29.332 127.003 29.29C127.241 29.262 127.395 29.234 127.479 29.22C127.563 29.206 127.731 29.178 127.983 29.15C128.543 29.08 128.935 29.024 129.145 28.968C129.341 28.912 129.481 28.842 129.565 28.73C129.621 28.66 129.663 28.492 129.663 28.212C129.663 27.484 129.159 27.12 128.179 27.12C127.647 27.12 127.269 27.218 127.031 27.414C126.779 27.61 126.625 27.946 126.569 28.408H125.057ZM129.649 29.78C129.523 29.85 129.383 29.906 129.229 29.962C129.061 30.018 128.935 30.046 128.837 30.06C128.739 30.074 128.585 30.088 128.375 30.116C128.165 30.144 128.025 30.172 127.969 30.172C127.773 30.2 127.619 30.228 127.507 30.256C127.395 30.284 127.255 30.312 127.087 30.368C126.919 30.424 126.793 30.494 126.709 30.578C126.625 30.662 126.541 30.76 126.485 30.9C126.415 31.04 126.387 31.194 126.387 31.376C126.387 31.726 126.499 31.992 126.723 32.174C126.947 32.37 127.269 32.454 127.689 32.454C128.389 32.454 128.935 32.272 129.327 31.88C129.537 31.67 129.649 31.25 129.649 30.634V29.78ZM139.276 26.182L136.602 33.266C136.574 33.336 136.518 33.476 136.448 33.686C136.364 33.896 136.322 34.036 136.294 34.106C136.266 34.19 136.21 34.316 136.126 34.498C136.042 34.694 135.986 34.82 135.944 34.89L135.734 35.226C135.636 35.38 135.552 35.492 135.468 35.548C135.384 35.618 135.286 35.702 135.174 35.8C135.062 35.898 134.936 35.968 134.824 36.01C134.698 36.052 134.558 36.094 134.404 36.122C134.25 36.15 134.082 36.164 133.914 36.164C133.606 36.164 133.242 36.136 132.808 36.08V34.736C133.144 34.806 133.424 34.834 133.648 34.834C133.76 34.834 133.858 34.82 133.956 34.792C134.04 34.764 134.124 34.708 134.208 34.624C134.278 34.54 134.348 34.47 134.404 34.4C134.46 34.33 134.502 34.232 134.558 34.106C134.614 33.98 134.656 33.882 134.684 33.812C134.712 33.742 134.74 33.63 134.796 33.476C134.838 33.336 134.866 33.238 134.88 33.196L132.108 26.182H133.858L135.79 31.502L137.61 26.182H139.276Z" fill="url(#paint1_linear_1124_2087)"/>
<path d="M62.6699 11.2352H64.9799C66.1899 11.2352 67.0799 11.5152 67.6499 12.0752C68.2299 12.6352 68.5099 13.5252 68.5099 14.7352C68.5099 15.9352 68.2499 16.8352 67.7099 17.4452C67.1799 18.0552 66.3299 18.3552 65.1599 18.3552H62.6699V11.2352ZM63.5999 12.0452L63.6099 17.5552H65.0399C65.9299 17.5552 66.5799 17.3352 66.9799 16.8952C67.3799 16.4552 67.5799 15.7752 67.5799 14.8452C67.5799 13.8752 67.3899 13.1652 66.9899 12.7152C66.5999 12.2752 65.9299 12.0452 64.9899 12.0452H63.5999ZM71.8209 13.0452C72.6009 13.0452 73.2009 13.2852 73.6409 13.7652C74.0709 14.2352 74.2909 14.8952 74.2909 15.7452C74.2909 16.6252 74.0709 17.3052 73.6409 17.7852C73.2009 18.2752 72.5909 18.5152 71.8109 18.5152C71.0209 18.5152 70.4009 18.2752 69.9609 17.7952C69.5109 17.3152 69.2909 16.6552 69.2909 15.7952C69.2909 14.9552 69.5109 14.2852 69.9709 13.7852C70.4209 13.2952 71.0409 13.0452 71.8209 13.0452ZM71.8009 13.7652C71.3009 13.7652 70.9009 13.9452 70.6109 14.3052C70.3109 14.6752 70.1709 15.1652 70.1709 15.7752C70.1709 16.4152 70.3109 16.9052 70.6009 17.2652C70.8909 17.6252 71.3009 17.7952 71.8209 17.7952C72.3209 17.7952 72.7109 17.6152 72.9909 17.2552C73.2709 16.8952 73.4209 16.4052 73.4209 15.7652C73.4209 15.1552 73.2709 14.6652 72.9809 14.3052C72.6909 13.9452 72.3009 13.7652 71.8009 13.7652ZM74.8331 13.1952H75.7731L76.9531 17.4452L78.0031 13.1952H78.9331L80.0231 17.4452L81.1931 13.1952H82.0731L80.4231 18.3552H79.5231L78.4631 14.2752L77.4131 18.3552H76.4931L74.8331 13.1952ZM83.6812 13.1952V13.9952C84.1012 13.3752 84.6912 13.0552 85.4412 13.0552C86.0412 13.0552 86.4812 13.2152 86.7512 13.5352C87.0212 13.8552 87.1612 14.3152 87.1612 14.9252V18.3552H86.3112V15.3152C86.3112 15.0652 86.3012 14.8652 86.2812 14.7252C86.2612 14.5852 86.2212 14.4252 86.1612 14.2652C86.0912 14.1052 85.9812 13.9852 85.8212 13.9052C85.6612 13.8352 85.4512 13.7952 85.2012 13.7952C84.2212 13.7952 83.7312 14.4152 83.7312 15.6552V18.3552H82.8812V13.1952H83.6812ZM89.3379 11.2352V18.3552H88.4779V11.2352H89.3379ZM92.9146 13.0452C93.6946 13.0452 94.2946 13.2852 94.7346 13.7652C95.1646 14.2352 95.3846 14.8952 95.3846 15.7452C95.3846 16.6252 95.1646 17.3052 94.7346 17.7852C94.2946 18.2752 93.6846 18.5152 92.9046 18.5152C92.1146 18.5152 91.4946 18.2752 91.0546 17.7952C90.6046 17.3152 90.3846 16.6552 90.3846 15.7952C90.3846 14.9552 90.6046 14.2852 91.0646 13.7852C91.5146 13.2952 92.1346 13.0452 92.9146 13.0452ZM92.8946 13.7652C92.3946 13.7652 91.9946 13.9452 91.7046 14.3052C91.4046 14.6752 91.2646 15.1652 91.2646 15.7752C91.2646 16.4152 91.4046 16.9052 91.6946 17.2652C91.9846 17.6252 92.3946 17.7952 92.9146 17.7952C93.4146 17.7952 93.8046 17.6152 94.0846 17.2552C94.3646 16.8952 94.5146 16.4052 94.5146 15.7652C94.5146 15.1552 94.3646 14.6652 94.0746 14.3052C93.7846 13.9452 93.3946 13.7652 92.8946 13.7652ZM100.967 17.6752V18.3452C100.787 18.4052 100.597 18.4452 100.387 18.4452C99.8968 18.4452 99.6468 18.1852 99.6368 17.6852C99.1468 18.2252 98.5268 18.5052 97.7668 18.5052C97.2568 18.5052 96.8568 18.3752 96.5568 18.1152C96.2568 17.8552 96.1168 17.4952 96.1168 17.0452C96.1168 16.1252 96.7268 15.5852 97.9468 15.4352C98.0268 15.4152 98.1368 15.4052 98.2968 15.3952C98.8768 15.3252 99.2268 15.2452 99.3668 15.1652C99.5168 15.0552 99.5968 14.8752 99.5968 14.6152C99.5968 14.0452 99.2068 13.7652 98.4268 13.7652C98.0268 13.7652 97.7168 13.8452 97.5168 14.0052C97.3068 14.1652 97.1868 14.4352 97.1468 14.8152H96.3168C96.3268 14.2552 96.5268 13.8252 96.9068 13.5252C97.2868 13.2152 97.8068 13.0652 98.4768 13.0652C99.1968 13.0652 99.7368 13.2252 100.097 13.5652C100.207 13.6652 100.287 13.8052 100.347 13.9852C100.397 14.1552 100.427 14.2952 100.437 14.4052C100.437 14.5152 100.447 14.6852 100.447 14.9052C100.447 15.1552 100.437 15.5352 100.427 16.0452C100.407 16.5652 100.407 16.9452 100.407 17.1952C100.407 17.3852 100.427 17.5152 100.477 17.5952C100.527 17.6752 100.617 17.7052 100.757 17.7052C100.807 17.7052 100.877 17.6952 100.967 17.6752ZM99.5968 15.6852C99.5368 15.7252 99.4668 15.7652 99.4068 15.8052C99.3368 15.8352 99.2468 15.8652 99.1468 15.8852C99.0468 15.9052 98.9768 15.9152 98.9368 15.9252C98.8968 15.9352 98.8168 15.9452 98.6768 15.9652C98.5368 15.9852 98.4568 15.9952 98.4568 15.9952C98.2468 16.0152 98.1068 16.0352 98.0468 16.0452C97.9868 16.0552 97.8668 16.0852 97.6868 16.1352C97.5068 16.1752 97.3868 16.2352 97.3168 16.2952C97.2368 16.3552 97.1668 16.4352 97.0968 16.5552C97.0268 16.6752 96.9968 16.8152 96.9968 16.9752C96.9968 17.2352 97.0868 17.4452 97.2668 17.6052C97.4468 17.7552 97.7068 17.8352 98.0268 17.8352C98.4268 17.8352 98.7968 17.7152 99.1168 17.4752C99.4368 17.2352 99.5968 16.9452 99.5968 16.6252V15.6852ZM106.418 11.2352V18.3552H105.618V17.5952C105.288 18.1952 104.718 18.4952 103.918 18.4952C103.178 18.4952 102.598 18.2552 102.168 17.7652C101.738 17.2752 101.528 16.6052 101.528 15.7652C101.528 14.9852 101.728 14.3452 102.128 13.8252C102.528 13.3052 103.118 13.0452 103.878 13.0452C104.618 13.0452 105.178 13.3252 105.568 13.8852V11.2352H106.418ZM103.988 13.7752C103.498 13.7752 103.108 13.9552 102.828 14.3052C102.548 14.6652 102.408 15.1452 102.408 15.7452C102.408 16.3752 102.548 16.8752 102.838 17.2452C103.128 17.6152 103.518 17.7952 104.008 17.7952C104.498 17.7952 104.888 17.6252 105.168 17.2652C105.448 16.9052 105.588 16.4152 105.588 15.7752C105.588 15.2152 105.448 14.7352 105.188 14.3552C104.928 13.9752 104.528 13.7752 103.988 13.7752ZM113.629 11.0652C114.709 11.0652 115.549 11.4052 116.149 12.0852C116.749 12.7652 117.049 13.6452 117.049 14.7352C117.049 15.8352 116.749 16.7452 116.159 17.4552C115.559 18.1752 114.719 18.5252 113.639 18.5252C113.079 18.5252 112.589 18.4252 112.149 18.2252C111.709 18.0252 111.349 17.7552 111.069 17.3952C110.789 17.0452 110.579 16.6452 110.439 16.1852C110.299 15.7352 110.229 15.2452 110.229 14.7152C110.229 13.6052 110.529 12.7152 111.149 12.0552C111.769 11.3952 112.589 11.0652 113.629 11.0652ZM113.629 11.8852C112.829 11.8852 112.219 12.1652 111.799 12.7252C111.379 13.2852 111.159 13.9652 111.159 14.7852C111.159 15.6852 111.389 16.3952 111.839 16.9252C112.289 17.4552 112.889 17.7152 113.639 17.7152C114.389 17.7152 114.989 17.4552 115.439 16.9152C115.879 16.3852 116.109 15.6752 116.109 14.7852C116.109 13.9052 115.879 13.2052 115.429 12.6752C114.979 12.1552 114.379 11.8852 113.629 11.8852ZM118.877 13.1952V13.9952C119.297 13.3752 119.887 13.0552 120.637 13.0552C121.237 13.0552 121.677 13.2152 121.947 13.5352C122.217 13.8552 122.357 14.3152 122.357 14.9252V18.3552H121.507V15.3152C121.507 15.0652 121.497 14.8652 121.477 14.7252C121.457 14.5852 121.417 14.4252 121.357 14.2652C121.287 14.1052 121.177 13.9852 121.017 13.9052C120.857 13.8352 120.647 13.7952 120.397 13.7952C119.417 13.7952 118.927 14.4152 118.927 15.6552V18.3552H118.077V13.1952H118.877Z" fill="url(#paint2_linear_1124_2087)"/>
<defs>
<linearGradient id="paint0_linear_1124_2087" x1="84.5" y1="48.3552" x2="84.5" y2="0.355224" gradientUnits="userSpaceOnUse">
<stop offset="0.229642" stop-color="white"/>
<stop offset="1" stop-color="#FFF7F7"/>
</linearGradient>
<linearGradient id="paint1_linear_1124_2087" x1="103" y1="40.3552" x2="103" y2="19.406" gradientUnits="userSpaceOnUse">
<stop offset="0.229642" stop-color="white"/>
<stop offset="1" stop-color="#FFF7F7"/>
</linearGradient>
<linearGradient id="paint2_linear_1124_2087" x1="95.8799" y1="23.3189" x2="95.8799" y2="8.35522" gradientUnits="userSpaceOnUse">
<stop offset="0.229642" stop-color="white"/>
<stop offset="1" stop-color="#FFF7F7"/>
</linearGradient>
</defs>
</svg>
