<svg width="101" height="111" viewBox="0 0 101 111" fill="none" xmlns="http://www.w3.org/2000/svg">
<rect x="6.5" y="0.355225" width="88" height="88" rx="12.1379" fill="white"/>
<path d="M12.1328 5.98706H15.2023V9.0565H12.1328V5.98706ZM15.2023 5.98706H18.2717V9.0565H15.2023V5.98706ZM18.2717 5.98706H21.3411V9.0565H18.2717V5.98706ZM21.3411 5.98706H24.4106V9.0565H21.3411V5.98706ZM24.4106 5.98706H27.48V9.0565H24.4106V5.98706ZM27.48 5.98706H30.5495V9.0565H27.48V5.98706ZM30.5495 5.98706H33.6189V9.0565H30.5495V5.98706ZM45.8967 5.98706H48.9661V9.0565H45.8967V5.98706ZM55.105 5.98706H58.1744V9.0565H55.105V5.98706ZM58.1744 5.98706H61.2439V9.0565H58.1744V5.98706ZM61.2439 5.98706H64.3133V9.0565H61.2439V5.98706ZM67.3827 5.98706H70.4522V9.0565H67.3827V5.98706ZM70.4522 5.98706H73.5216V9.0565H70.4522V5.98706ZM73.5216 5.98706H76.5911V9.0565H73.5216V5.98706ZM76.5911 5.98706H79.6605V9.0565H76.5911V5.98706ZM79.6605 5.98706H82.7299V9.0565H79.6605V5.98706ZM82.7299 5.98706H85.7994V9.0565H82.7299V5.98706ZM85.7994 5.98706H88.8688V9.0565H85.7994V5.98706ZM12.1328 9.0565H15.2023V12.1259H12.1328V9.0565ZM30.5495 9.0565H33.6189V12.1259H30.5495V9.0565ZM39.7578 9.0565H42.8272V12.1259H39.7578V9.0565ZM52.0355 9.0565H55.105V12.1259H52.0355V9.0565ZM55.105 9.0565H58.1744V12.1259H55.105V9.0565ZM61.2439 9.0565H64.3133V12.1259H61.2439V9.0565ZM67.3827 9.0565H70.4522V12.1259H67.3827V9.0565ZM85.7994 9.0565H88.8688V12.1259H85.7994V9.0565ZM12.1328 12.1259H15.2023V15.1954H12.1328V12.1259ZM18.2717 12.1259H21.3411V15.1954H18.2717V12.1259ZM21.3411 12.1259H24.4106V15.1954H21.3411V12.1259ZM24.4106 12.1259H27.48V15.1954H24.4106V12.1259ZM30.5495 12.1259H33.6189V15.1954H30.5495V12.1259ZM39.7578 12.1259H42.8272V15.1954H39.7578V12.1259ZM42.8272 12.1259H45.8967V15.1954H42.8272V12.1259ZM48.9661 12.1259H52.0355V15.1954H48.9661V12.1259ZM55.105 12.1259H58.1744V15.1954H55.105V12.1259ZM58.1744 12.1259H61.2439V15.1954H58.1744V12.1259ZM67.3827 12.1259H70.4522V15.1954H67.3827V12.1259ZM73.5216 12.1259H76.5911V15.1954H73.5216V12.1259ZM76.5911 12.1259H79.6605V15.1954H76.5911V12.1259ZM79.6605 12.1259H82.7299V15.1954H79.6605V12.1259ZM85.7994 12.1259H88.8688V15.1954H85.7994V12.1259ZM12.1328 15.1954H15.2023V18.2648H12.1328V15.1954ZM18.2717 15.1954H21.3411V18.2648H18.2717V15.1954ZM21.3411 15.1954H24.4106V18.2648H21.3411V15.1954ZM24.4106 15.1954H27.48V18.2648H24.4106V15.1954ZM30.5495 15.1954H33.6189V18.2648H30.5495V15.1954ZM36.6883 15.1954H39.7578V18.2648H36.6883V15.1954ZM39.7578 15.1954H42.8272V18.2648H39.7578V15.1954ZM48.9661 15.1954H52.0355V18.2648H48.9661V15.1954ZM55.105 15.1954H58.1744V18.2648H55.105V15.1954ZM58.1744 15.1954H61.2439V18.2648H58.1744V15.1954ZM67.3827 15.1954H70.4522V18.2648H67.3827V15.1954ZM73.5216 15.1954H76.5911V18.2648H73.5216V15.1954ZM76.5911 15.1954H79.6605V18.2648H76.5911V15.1954ZM79.6605 15.1954H82.7299V18.2648H79.6605V15.1954ZM85.7994 15.1954H88.8688V18.2648H85.7994V15.1954ZM12.1328 18.2648H15.2023V21.3343H12.1328V18.2648ZM18.2717 18.2648H21.3411V21.3343H18.2717V18.2648ZM21.3411 18.2648H24.4106V21.3343H21.3411V18.2648ZM24.4106 18.2648H27.48V21.3343H24.4106V18.2648ZM30.5495 18.2648H33.6189V21.3343H30.5495V18.2648ZM42.8272 18.2648H45.8967V21.3343H42.8272V18.2648ZM45.8967 18.2648H48.9661V21.3343H45.8967V18.2648ZM48.9661 18.2648H52.0355V21.3343H48.9661V18.2648ZM52.0355 18.2648H55.105V21.3343H52.0355V18.2648ZM55.105 18.2648H58.1744V21.3343H55.105V18.2648ZM67.3827 18.2648H70.4522V21.3343H67.3827V18.2648ZM73.5216 18.2648H76.5911V21.3343H73.5216V18.2648ZM76.5911 18.2648H79.6605V21.3343H76.5911V18.2648ZM79.6605 18.2648H82.7299V21.3343H79.6605V18.2648ZM85.7994 18.2648H88.8688V21.3343H85.7994V18.2648ZM12.1328 21.3343H15.2023V24.4037H12.1328V21.3343ZM30.5495 21.3343H33.6189V24.4037H30.5495V21.3343ZM36.6883 21.3343H39.7578V24.4037H36.6883V21.3343ZM45.8967 21.3343H48.9661V24.4037H45.8967V21.3343ZM61.2439 21.3343H64.3133V24.4037H61.2439V21.3343ZM67.3827 21.3343H70.4522V24.4037H67.3827V21.3343ZM85.7994 21.3343H88.8688V24.4037H85.7994V21.3343ZM12.1328 24.4037H15.2023V27.4731H12.1328V24.4037ZM15.2023 24.4037H18.2717V27.4731H15.2023V24.4037ZM18.2717 24.4037H21.3411V27.4731H18.2717V24.4037ZM21.3411 24.4037H24.4106V27.4731H21.3411V24.4037ZM24.4106 24.4037H27.48V27.4731H24.4106V24.4037ZM27.48 24.4037H30.5495V27.4731H27.48V24.4037ZM30.5495 24.4037H33.6189V27.4731H30.5495V24.4037ZM36.6883 24.4037H39.7578V27.4731H36.6883V24.4037ZM42.8272 24.4037H45.8967V27.4731H42.8272V24.4037ZM48.9661 24.4037H52.0355V27.4731H48.9661V24.4037ZM55.105 24.4037H58.1744V27.4731H55.105V24.4037ZM61.2439 24.4037H64.3133V27.4731H61.2439V24.4037ZM67.3827 24.4037H70.4522V27.4731H67.3827V24.4037ZM70.4522 24.4037H73.5216V27.4731H70.4522V24.4037ZM73.5216 24.4037H76.5911V27.4731H73.5216V24.4037ZM76.5911 24.4037H79.6605V27.4731H76.5911V24.4037ZM79.6605 24.4037H82.7299V27.4731H79.6605V24.4037ZM82.7299 24.4037H85.7994V27.4731H82.7299V24.4037ZM85.7994 24.4037H88.8688V27.4731H85.7994V24.4037ZM36.6883 27.4731H39.7578V30.5426H36.6883V27.4731ZM39.7578 27.4731H42.8272V30.5426H39.7578V27.4731ZM42.8272 27.4731H45.8967V30.5426H42.8272V27.4731ZM55.105 27.4731H58.1744V30.5426H55.105V27.4731ZM58.1744 27.4731H61.2439V30.5426H58.1744V27.4731ZM61.2439 27.4731H64.3133V30.5426H61.2439V27.4731ZM15.2023 30.5426H18.2717V33.612H15.2023V30.5426ZM18.2717 30.5426H21.3411V33.612H18.2717V30.5426ZM30.5495 30.5426H33.6189V33.612H30.5495V30.5426ZM52.0355 30.5426H55.105V33.612H52.0355V30.5426ZM55.105 30.5426H58.1744V33.612H55.105V30.5426ZM61.2439 30.5426H64.3133V33.612H61.2439V30.5426ZM67.3827 30.5426H70.4522V33.612H67.3827V30.5426ZM70.4522 30.5426H73.5216V33.612H70.4522V30.5426ZM76.5911 30.5426H79.6605V33.612H76.5911V30.5426ZM15.2023 33.612H18.2717V36.6815H15.2023V33.612ZM18.2717 33.612H21.3411V36.6815H18.2717V33.612ZM24.4106 33.612H27.48V36.6815H24.4106V33.612ZM33.6189 33.612H36.6883V36.6815H33.6189V33.612ZM42.8272 33.612H45.8967V36.6815H42.8272V33.612ZM45.8967 33.612H48.9661V36.6815H45.8967V33.612ZM48.9661 33.612H52.0355V36.6815H48.9661V33.612ZM52.0355 33.612H55.105V36.6815H52.0355V33.612ZM55.105 33.612H58.1744V36.6815H55.105V33.612ZM58.1744 33.612H61.2439V36.6815H58.1744V33.612ZM61.2439 33.612H64.3133V36.6815H61.2439V33.612ZM67.3827 33.612H70.4522V36.6815H67.3827V33.612ZM70.4522 33.612H73.5216V36.6815H70.4522V33.612ZM76.5911 33.612H79.6605V36.6815H76.5911V33.612ZM82.7299 33.612H85.7994V36.6815H82.7299V33.612ZM85.7994 33.612H88.8688V36.6815H85.7994V33.612ZM30.5495 36.6815H33.6189V39.7509H30.5495V36.6815ZM45.8967 36.6815H48.9661V39.7509H45.8967V36.6815ZM58.1744 36.6815H61.2439V39.7509H58.1744V36.6815ZM64.3133 36.6815H67.3827V39.7509H64.3133V36.6815ZM70.4522 36.6815H73.5216V39.7509H70.4522V36.6815ZM76.5911 36.6815H79.6605V39.7509H76.5911V36.6815ZM79.6605 36.6815H82.7299V39.7509H79.6605V36.6815ZM85.7994 36.6815H88.8688V39.7509H85.7994V36.6815ZM12.1328 39.7509H15.2023V42.8203H12.1328V39.7509ZM15.2023 39.7509H18.2717V42.8203H15.2023V39.7509ZM24.4106 39.7509H27.48V42.8203H24.4106V39.7509ZM33.6189 39.7509H36.6883V42.8203H33.6189V39.7509ZM39.7578 39.7509H42.8272V42.8203H39.7578V39.7509ZM42.8272 39.7509H45.8967V42.8203H42.8272V39.7509ZM52.0355 39.7509H55.105V42.8203H52.0355V39.7509ZM58.1744 39.7509H61.2439V42.8203H58.1744V39.7509ZM64.3133 39.7509H67.3827V42.8203H64.3133V39.7509ZM70.4522 39.7509H73.5216V42.8203H70.4522V39.7509ZM76.5911 39.7509H79.6605V42.8203H76.5911V39.7509ZM12.1328 42.8203H15.2023V45.8898H12.1328V42.8203ZM15.2023 42.8203H18.2717V45.8898H15.2023V42.8203ZM21.3411 42.8203H24.4106V45.8898H21.3411V42.8203ZM30.5495 42.8203H33.6189V45.8898H30.5495V42.8203ZM33.6189 42.8203H36.6883V45.8898H33.6189V42.8203ZM36.6883 42.8203H39.7578V45.8898H36.6883V42.8203ZM39.7578 42.8203H42.8272V45.8898H39.7578V42.8203ZM42.8272 42.8203H45.8967V45.8898H42.8272V42.8203ZM52.0355 42.8203H55.105V45.8898H52.0355V42.8203ZM58.1744 42.8203H61.2439V45.8898H58.1744V42.8203ZM61.2439 42.8203H64.3133V45.8898H61.2439V42.8203ZM67.3827 42.8203H70.4522V45.8898H67.3827V42.8203ZM70.4522 42.8203H73.5216V45.8898H70.4522V42.8203ZM85.7994 42.8203H88.8688V45.8898H85.7994V42.8203ZM18.2717 45.8898H21.3411V48.9592H18.2717V45.8898ZM21.3411 45.8898H24.4106V48.9592H21.3411V45.8898ZM24.4106 45.8898H27.48V48.9592H24.4106V45.8898ZM42.8272 45.8898H45.8967V48.9592H42.8272V45.8898ZM45.8967 45.8898H48.9661V48.9592H45.8967V45.8898ZM48.9661 45.8898H52.0355V48.9592H48.9661V45.8898ZM58.1744 45.8898H61.2439V48.9592H58.1744V45.8898ZM61.2439 45.8898H64.3133V48.9592H61.2439V45.8898ZM67.3827 45.8898H70.4522V48.9592H67.3827V45.8898ZM70.4522 45.8898H73.5216V48.9592H70.4522V45.8898ZM82.7299 45.8898H85.7994V48.9592H82.7299V45.8898ZM85.7994 45.8898H88.8688V48.9592H85.7994V45.8898ZM12.1328 48.9592H15.2023V52.0287H12.1328V48.9592ZM15.2023 48.9592H18.2717V52.0287H15.2023V48.9592ZM21.3411 48.9592H24.4106V52.0287H21.3411V48.9592ZM27.48 48.9592H30.5495V52.0287H27.48V48.9592ZM30.5495 48.9592H33.6189V52.0287H30.5495V48.9592ZM36.6883 48.9592H39.7578V52.0287H36.6883V48.9592ZM39.7578 48.9592H42.8272V52.0287H39.7578V48.9592ZM42.8272 48.9592H45.8967V52.0287H42.8272V48.9592ZM48.9661 48.9592H52.0355V52.0287H48.9661V48.9592ZM58.1744 48.9592H61.2439V52.0287H58.1744V48.9592ZM61.2439 48.9592H64.3133V52.0287H61.2439V48.9592ZM67.3827 48.9592H70.4522V52.0287H67.3827V48.9592ZM76.5911 48.9592H79.6605V52.0287H76.5911V48.9592ZM79.6605 48.9592H82.7299V52.0287H79.6605V48.9592ZM85.7994 48.9592H88.8688V52.0287H85.7994V48.9592ZM18.2717 52.0287H21.3411V55.0981H18.2717V52.0287ZM21.3411 52.0287H24.4106V55.0981H21.3411V52.0287ZM24.4106 52.0287H27.48V55.0981H24.4106V52.0287ZM33.6189 52.0287H36.6883V55.0981H33.6189V52.0287ZM42.8272 52.0287H45.8967V55.0981H42.8272V52.0287ZM55.105 52.0287H58.1744V55.0981H55.105V52.0287ZM58.1744 52.0287H61.2439V55.0981H58.1744V52.0287ZM61.2439 52.0287H64.3133V55.0981H61.2439V52.0287ZM64.3133 52.0287H67.3827V55.0981H64.3133V52.0287ZM67.3827 52.0287H70.4522V55.0981H67.3827V52.0287ZM70.4522 52.0287H73.5216V55.0981H70.4522V52.0287ZM73.5216 52.0287H76.5911V55.0981H73.5216V52.0287ZM76.5911 52.0287H79.6605V55.0981H76.5911V52.0287ZM12.1328 55.0981H15.2023V58.1675H12.1328V55.0981ZM15.2023 55.0981H18.2717V58.1675H15.2023V55.0981ZM18.2717 55.0981H21.3411V58.1675H18.2717V55.0981ZM24.4106 55.0981H27.48V58.1675H24.4106V55.0981ZM30.5495 55.0981H33.6189V58.1675H30.5495V55.0981ZM36.6883 55.0981H39.7578V58.1675H36.6883V55.0981ZM45.8967 55.0981H48.9661V58.1675H45.8967V55.0981ZM61.2439 55.0981H64.3133V58.1675H61.2439V55.0981ZM64.3133 55.0981H67.3827V58.1675H64.3133V55.0981ZM67.3827 55.0981H70.4522V58.1675H67.3827V55.0981ZM70.4522 55.0981H73.5216V58.1675H70.4522V55.0981ZM73.5216 55.0981H76.5911V58.1675H73.5216V55.0981ZM82.7299 55.0981H85.7994V58.1675H82.7299V55.0981ZM36.6883 58.1675H39.7578V61.237H36.6883V58.1675ZM39.7578 58.1675H42.8272V61.237H39.7578V58.1675ZM42.8272 58.1675H45.8967V61.237H42.8272V58.1675ZM45.8967 58.1675H48.9661V61.237H45.8967V58.1675ZM52.0355 58.1675H55.105V61.237H52.0355V58.1675ZM55.105 58.1675H58.1744V61.237H55.105V58.1675ZM61.2439 58.1675H64.3133V61.237H61.2439V58.1675ZM73.5216 58.1675H76.5911V61.237H73.5216V58.1675ZM85.7994 58.1675H88.8688V61.237H85.7994V58.1675ZM12.1328 61.237H15.2023V64.3064H12.1328V61.237ZM15.2023 61.237H18.2717V64.3064H15.2023V61.237ZM18.2717 61.237H21.3411V64.3064H18.2717V61.237ZM21.3411 61.237H24.4106V64.3064H21.3411V61.237ZM24.4106 61.237H27.48V64.3064H24.4106V61.237ZM27.48 61.237H30.5495V64.3064H27.48V61.237ZM30.5495 61.237H33.6189V64.3064H30.5495V61.237ZM42.8272 61.237H45.8967V64.3064H42.8272V61.237ZM45.8967 61.237H48.9661V64.3064H45.8967V61.237ZM55.105 61.237H58.1744V64.3064H55.105V61.237ZM61.2439 61.237H64.3133V64.3064H61.2439V61.237ZM67.3827 61.237H70.4522V64.3064H67.3827V61.237ZM73.5216 61.237H76.5911V64.3064H73.5216V61.237ZM85.7994 61.237H88.8688V64.3064H85.7994V61.237ZM12.1328 64.3064H15.2023V67.3759H12.1328V64.3064ZM30.5495 64.3064H33.6189V67.3759H30.5495V64.3064ZM39.7578 64.3064H42.8272V67.3759H39.7578V64.3064ZM42.8272 64.3064H45.8967V67.3759H42.8272V64.3064ZM48.9661 64.3064H52.0355V67.3759H48.9661V64.3064ZM52.0355 64.3064H55.105V67.3759H52.0355V64.3064ZM61.2439 64.3064H64.3133V67.3759H61.2439V64.3064ZM73.5216 64.3064H76.5911V67.3759H73.5216V64.3064ZM82.7299 64.3064H85.7994V67.3759H82.7299V64.3064ZM12.1328 67.3759H15.2023V70.4453H12.1328V67.3759ZM18.2717 67.3759H21.3411V70.4453H18.2717V67.3759ZM21.3411 67.3759H24.4106V70.4453H21.3411V67.3759ZM24.4106 67.3759H27.48V70.4453H24.4106V67.3759ZM30.5495 67.3759H33.6189V70.4453H30.5495V67.3759ZM39.7578 67.3759H42.8272V70.4453H39.7578V67.3759ZM42.8272 67.3759H45.8967V70.4453H42.8272V67.3759ZM55.105 67.3759H58.1744V70.4453H55.105V67.3759ZM58.1744 67.3759H61.2439V70.4453H58.1744V67.3759ZM61.2439 67.3759H64.3133V70.4453H61.2439V67.3759ZM64.3133 67.3759H67.3827V70.4453H64.3133V67.3759ZM67.3827 67.3759H70.4522V70.4453H67.3827V67.3759ZM70.4522 67.3759H73.5216V70.4453H70.4522V67.3759ZM73.5216 67.3759H76.5911V70.4453H73.5216V67.3759ZM82.7299 67.3759H85.7994V70.4453H82.7299V67.3759ZM85.7994 67.3759H88.8688V70.4453H85.7994V67.3759ZM12.1328 70.4453H15.2023V73.5147H12.1328V70.4453ZM18.2717 70.4453H21.3411V73.5147H18.2717V70.4453ZM21.3411 70.4453H24.4106V73.5147H21.3411V70.4453ZM24.4106 70.4453H27.48V73.5147H24.4106V70.4453ZM30.5495 70.4453H33.6189V73.5147H30.5495V70.4453ZM39.7578 70.4453H42.8272V73.5147H39.7578V70.4453ZM42.8272 70.4453H45.8967V73.5147H42.8272V70.4453ZM45.8967 70.4453H48.9661V73.5147H45.8967V70.4453ZM48.9661 70.4453H52.0355V73.5147H48.9661V70.4453ZM58.1744 70.4453H61.2439V73.5147H58.1744V70.4453ZM64.3133 70.4453H67.3827V73.5147H64.3133V70.4453ZM73.5216 70.4453H76.5911V73.5147H73.5216V70.4453ZM79.6605 70.4453H82.7299V73.5147H79.6605V70.4453ZM82.7299 70.4453H85.7994V73.5147H82.7299V70.4453ZM12.1328 73.5147H15.2023V76.5842H12.1328V73.5147ZM18.2717 73.5147H21.3411V76.5842H18.2717V73.5147ZM21.3411 73.5147H24.4106V76.5842H21.3411V73.5147ZM24.4106 73.5147H27.48V76.5842H24.4106V73.5147ZM30.5495 73.5147H33.6189V76.5842H30.5495V73.5147ZM36.6883 73.5147H39.7578V76.5842H36.6883V73.5147ZM52.0355 73.5147H55.105V76.5842H52.0355V73.5147ZM55.105 73.5147H58.1744V76.5842H55.105V73.5147ZM58.1744 73.5147H61.2439V76.5842H58.1744V73.5147ZM61.2439 73.5147H64.3133V76.5842H61.2439V73.5147ZM64.3133 73.5147H67.3827V76.5842H64.3133V73.5147ZM70.4522 73.5147H73.5216V76.5842H70.4522V73.5147ZM73.5216 73.5147H76.5911V76.5842H73.5216V73.5147ZM76.5911 73.5147H79.6605V76.5842H76.5911V73.5147ZM82.7299 73.5147H85.7994V76.5842H82.7299V73.5147ZM85.7994 73.5147H88.8688V76.5842H85.7994V73.5147ZM12.1328 76.5842H15.2023V79.6536H12.1328V76.5842ZM30.5495 76.5842H33.6189V79.6536H30.5495V76.5842ZM36.6883 76.5842H39.7578V79.6536H36.6883V76.5842ZM39.7578 76.5842H42.8272V79.6536H39.7578V76.5842ZM42.8272 76.5842H45.8967V79.6536H42.8272V76.5842ZM52.0355 76.5842H55.105V79.6536H52.0355V76.5842ZM61.2439 76.5842H64.3133V79.6536H61.2439V76.5842ZM64.3133 76.5842H67.3827V79.6536H64.3133V76.5842ZM67.3827 76.5842H70.4522V79.6536H67.3827V76.5842ZM70.4522 76.5842H73.5216V79.6536H70.4522V76.5842ZM73.5216 76.5842H76.5911V79.6536H73.5216V76.5842ZM12.1328 79.6536H15.2023V82.7231H12.1328V79.6536ZM15.2023 79.6536H18.2717V82.7231H15.2023V79.6536ZM18.2717 79.6536H21.3411V82.7231H18.2717V79.6536ZM21.3411 79.6536H24.4106V82.7231H21.3411V79.6536ZM24.4106 79.6536H27.48V82.7231H24.4106V79.6536ZM27.48 79.6536H30.5495V82.7231H27.48V79.6536ZM30.5495 79.6536H33.6189V82.7231H30.5495V79.6536ZM42.8272 79.6536H45.8967V82.7231H42.8272V79.6536ZM48.9661 79.6536H52.0355V82.7231H48.9661V79.6536ZM61.2439 79.6536H64.3133V82.7231H61.2439V79.6536ZM67.3827 79.6536H70.4522V82.7231H67.3827V79.6536ZM76.5911 79.6536H79.6605V82.7231H76.5911V79.6536ZM85.7994 79.6536H88.8688V82.7231H85.7994V79.6536Z" fill="black"/>
<path d="M8.218 100.327H6.552C6.44 99.1652 5.726 98.5772 4.382 98.5772C3.78 98.5772 3.318 98.7032 2.982 98.9552C2.646 99.2072 2.478 99.5432 2.478 99.9632C2.478 100.369 2.59 100.649 2.842 100.789C3.094 100.943 3.64 101.125 4.494 101.335C4.718 101.405 4.886 101.447 5.012 101.475C6.118 101.755 6.874 102.007 7.28 102.231C8.162 102.707 8.61 103.449 8.61 104.457C8.61 104.905 8.526 105.297 8.386 105.647C8.232 106.011 8.036 106.305 7.784 106.543C7.532 106.781 7.224 106.977 6.888 107.131C6.538 107.299 6.174 107.411 5.81 107.481C5.432 107.551 5.04 107.579 4.648 107.579C3.388 107.579 2.38 107.285 1.61 106.683C0.826 106.095 0.448 105.213 0.448 104.051H2.17C2.17 104.779 2.408 105.325 2.884 105.675C3.36 106.025 3.976 106.193 4.746 106.193C5.418 106.193 5.936 106.067 6.314 105.787C6.692 105.507 6.888 105.129 6.888 104.625C6.888 104.317 6.776 104.051 6.58 103.855C6.384 103.659 6.16 103.505 5.936 103.421C5.698 103.337 5.292 103.225 4.718 103.071C4.648 103.057 4.592 103.043 4.564 103.029C3.318 102.721 2.506 102.455 2.114 102.245C1.302 101.825 0.868 101.181 0.812 100.299V100.103C0.812 99.2212 1.134 98.5212 1.806 97.9892C2.478 97.4572 3.374 97.1912 4.494 97.1912C5.572 97.1912 6.454 97.4572 7.14 97.9612C7.812 98.4792 8.176 99.2632 8.218 100.327ZM16.4701 104.625C16.3581 105.521 15.9941 106.221 15.4061 106.753C14.8041 107.285 14.0481 107.537 13.1521 107.537C12.0601 107.537 11.2061 107.201 10.5621 106.515C9.91813 105.829 9.59613 104.933 9.59613 103.813C9.59613 102.623 9.91813 101.671 10.5621 100.971C11.2061 100.271 12.0881 99.9072 13.1941 99.9072C14.1181 99.9072 14.8601 100.145 15.4201 100.607C15.9801 101.083 16.3161 101.727 16.4141 102.553H14.8321C14.7341 102.105 14.5521 101.755 14.2721 101.503C13.9921 101.265 13.6281 101.139 13.2081 101.139C12.5921 101.139 12.1021 101.377 11.7521 101.839C11.3881 102.301 11.2201 102.931 11.2201 103.729C11.2201 104.541 11.3881 105.157 11.7241 105.605C12.0601 106.053 12.5361 106.277 13.1521 106.277C13.6281 106.277 14.0061 106.137 14.3141 105.857C14.6221 105.577 14.8181 105.157 14.9021 104.625H16.4701ZM17.6274 102.357C17.7954 100.733 18.8454 99.9072 20.7914 99.9072C21.6874 99.9072 22.4154 100.089 22.9474 100.439C23.4794 100.803 23.7594 101.349 23.7594 102.091V105.759C23.7594 105.969 23.7734 106.109 23.8294 106.179C23.8854 106.263 23.9834 106.291 24.1374 106.291C24.2494 106.291 24.3614 106.291 24.5014 106.263V107.383C24.0814 107.495 23.7454 107.537 23.4654 107.537C22.7794 107.537 22.3874 107.257 22.2894 106.669C21.6734 107.257 20.8334 107.537 19.7554 107.537C18.9994 107.537 18.4114 107.355 17.9774 106.963C17.5294 106.571 17.3194 106.053 17.3194 105.381C17.3194 105.185 17.3334 104.989 17.3894 104.807C17.4314 104.639 17.4874 104.485 17.5434 104.345C17.5994 104.219 17.6974 104.093 17.8374 103.981C17.9774 103.869 18.0894 103.785 18.1734 103.701C18.2574 103.631 18.4114 103.561 18.6074 103.491C18.8034 103.435 18.9574 103.379 19.0554 103.351C19.1534 103.323 19.3214 103.281 19.5734 103.239C19.8114 103.211 19.9654 103.183 20.0494 103.169C20.1334 103.155 20.3014 103.127 20.5534 103.099C21.1134 103.029 21.5054 102.973 21.7154 102.917C21.9114 102.861 22.0514 102.791 22.1354 102.679C22.1914 102.609 22.2334 102.441 22.2334 102.161C22.2334 101.433 21.7294 101.069 20.7494 101.069C20.2174 101.069 19.8394 101.167 19.6014 101.363C19.3494 101.559 19.1954 101.895 19.1394 102.357H17.6274ZM22.2194 103.729C22.0934 103.799 21.9534 103.855 21.7994 103.911C21.6314 103.967 21.5054 103.995 21.4074 104.009C21.3094 104.023 21.1554 104.037 20.9454 104.065C20.7354 104.093 20.5954 104.121 20.5394 104.121C20.3434 104.149 20.1894 104.177 20.0774 104.205C19.9654 104.233 19.8254 104.261 19.6574 104.317C19.4894 104.373 19.3634 104.443 19.2794 104.527C19.1954 104.611 19.1114 104.709 19.0554 104.849C18.9854 104.989 18.9574 105.143 18.9574 105.325C18.9574 105.675 19.0694 105.941 19.2934 106.123C19.5174 106.319 19.8394 106.403 20.2594 106.403C20.9594 106.403 21.5054 106.221 21.8974 105.829C22.1074 105.619 22.2194 105.199 22.2194 104.583V103.729ZM27.0027 100.131V101.195C27.5767 100.355 28.3747 99.9352 29.3967 99.9352C30.2087 99.9352 30.8247 100.159 31.2307 100.607C31.6367 101.055 31.8467 101.699 31.8467 102.539V107.355H30.2507V103.155C30.2507 102.875 30.2367 102.637 30.2087 102.441C30.1807 102.245 30.1107 102.049 30.0267 101.853C29.9427 101.657 29.8027 101.517 29.6067 101.419C29.4107 101.321 29.1587 101.265 28.8507 101.265C27.6747 101.265 27.0867 102.007 27.0867 103.463V107.355H25.4907V100.131H27.0027ZM46.5543 107.327L45.7003 108.279L44.2163 107.019C43.6003 107.411 42.8163 107.593 41.8503 107.593C40.4363 107.593 39.2883 107.117 38.4203 106.165C37.5383 105.213 37.1043 103.953 37.1043 102.399C37.1043 100.859 37.5383 99.6132 38.4343 98.6332C39.3303 97.6672 40.4783 97.1772 41.9063 97.1772C43.3063 97.1772 44.4403 97.6672 45.3363 98.6332C46.2183 99.5992 46.6663 100.845 46.6663 102.357C46.6663 103.155 46.5403 103.883 46.2883 104.555C46.0363 105.227 45.7003 105.787 45.2523 106.207L46.5543 107.327ZM44.0203 105.129C44.6083 104.373 44.9163 103.463 44.9163 102.371C44.9163 101.251 44.6363 100.341 44.0903 99.6692C43.5303 98.9972 42.8023 98.6472 41.8783 98.6472C40.9543 98.6472 40.2263 98.9972 39.6803 99.6692C39.1343 100.341 38.8683 101.251 38.8683 102.371C38.8683 103.533 39.1343 104.457 39.6943 105.143C40.2403 105.829 40.9823 106.165 41.9063 106.165C42.2983 106.165 42.6623 106.095 43.0263 105.927L42.0043 105.059L42.8443 104.107L44.0203 105.129ZM48.245 97.3872H52.963C53.943 97.3872 54.755 97.6112 55.385 98.0592C56.001 98.5072 56.323 99.2072 56.323 100.159C56.323 100.761 56.169 101.279 55.889 101.699C55.595 102.119 55.189 102.427 54.671 102.609C54.909 102.665 55.119 102.749 55.301 102.861C55.469 102.973 55.609 103.099 55.707 103.225C55.805 103.365 55.889 103.533 55.959 103.729C56.015 103.939 56.057 104.121 56.085 104.275C56.113 104.429 56.127 104.625 56.155 104.877C56.155 104.947 56.169 105.073 56.183 105.255C56.197 105.451 56.211 105.577 56.211 105.633C56.211 105.689 56.225 105.801 56.239 105.941C56.253 106.095 56.267 106.207 56.281 106.263C56.281 106.319 56.295 106.417 56.323 106.529C56.351 106.641 56.365 106.739 56.393 106.795C56.407 106.851 56.435 106.921 56.463 107.005C56.491 107.089 56.519 107.145 56.561 107.201C56.589 107.257 56.631 107.313 56.687 107.355H54.811C54.783 107.327 54.755 107.285 54.727 107.229C54.699 107.173 54.685 107.117 54.671 107.061C54.643 107.005 54.629 106.949 54.629 106.893C54.615 106.837 54.601 106.767 54.587 106.683C54.573 106.599 54.573 106.515 54.573 106.459L54.545 106.207L54.517 105.955C54.517 105.899 54.503 105.801 54.503 105.661C54.489 105.521 54.489 105.423 54.489 105.367C54.433 104.555 54.265 104.009 53.971 103.701C53.677 103.393 53.117 103.239 52.305 103.239H49.981V107.355H48.245V97.3872ZM49.981 98.8152V101.937H52.291C52.627 101.937 52.907 101.923 53.145 101.881C53.369 101.853 53.607 101.783 53.845 101.685C54.083 101.587 54.265 101.419 54.391 101.195C54.517 100.971 54.587 100.691 54.587 100.341C54.587 100.033 54.531 99.7672 54.419 99.5572C54.307 99.3472 54.139 99.1932 53.929 99.0812C53.719 98.9832 53.509 98.9132 53.285 98.8712C53.061 98.8432 52.809 98.8152 52.515 98.8152H49.981ZM70.5529 103.561C70.4549 104.793 70.0209 105.773 69.2369 106.501C68.4529 107.229 67.4449 107.593 66.2129 107.593C64.7989 107.593 63.6649 107.117 62.8249 106.165C61.9709 105.213 61.5509 103.953 61.5509 102.371C61.5509 101.419 61.7329 100.565 62.0969 99.7812C62.4609 98.9972 63.0069 98.3672 63.7349 97.8912C64.4629 97.4152 65.3169 97.1632 66.2969 97.1632C67.3469 97.1632 68.2709 97.4572 69.0549 98.0452C69.8389 98.6332 70.3009 99.4732 70.4689 100.565H68.7329C68.6069 99.9772 68.3269 99.5012 67.8929 99.1652C67.4449 98.8292 66.9129 98.6472 66.2689 98.6472C65.5969 98.6472 65.0369 98.8432 64.5749 99.2072C64.1129 99.5852 63.7909 100.047 63.5949 100.593C63.3989 101.139 63.3149 101.727 63.3149 102.371C63.3149 102.861 63.3709 103.323 63.4829 103.743C63.5949 104.177 63.7629 104.569 63.9869 104.933C64.2109 105.297 64.5049 105.577 64.8969 105.787C65.2889 106.011 65.7369 106.109 66.2549 106.109C67.7389 106.109 68.5789 105.269 68.8029 103.561H70.5529ZM75.2524 99.9212C76.3444 99.9212 77.2264 100.271 77.8844 100.957C78.5284 101.657 78.8644 102.581 78.8644 103.743C78.8644 104.919 78.5284 105.857 77.8844 106.543C77.2404 107.243 76.3584 107.579 75.2524 107.579C74.1184 107.579 73.2224 107.243 72.5644 106.543C71.8924 105.857 71.5704 104.919 71.5704 103.743C71.5704 102.581 71.8924 101.657 72.5644 100.957C73.2364 100.271 74.1324 99.9212 75.2524 99.9212ZM75.2244 101.181C74.5804 101.181 74.0904 101.419 73.7264 101.867C73.3624 102.329 73.1804 102.959 73.1804 103.743C73.1804 104.555 73.3624 105.199 73.7264 105.647C74.0904 106.109 74.5944 106.333 75.2384 106.333C75.8544 106.333 76.3444 106.109 76.7084 105.647C77.0724 105.185 77.2544 104.541 77.2544 103.729C77.2544 102.945 77.0724 102.315 76.7084 101.867C76.3444 101.419 75.8544 101.181 75.2244 101.181ZM87.0512 97.3872V107.355H85.5532V106.361C85.0912 107.159 84.3212 107.551 83.2432 107.551C82.2212 107.551 81.4092 107.215 80.8072 106.515C80.2052 105.829 79.9112 104.905 79.9112 103.729C79.9112 102.581 80.2052 101.657 80.7932 100.971C81.3812 100.285 82.1792 99.9352 83.1872 99.9352C84.1952 99.9352 84.9652 100.313 85.4832 101.069V97.3872H87.0512ZM83.4812 101.223C82.8652 101.223 82.3892 101.447 82.0392 101.895C81.6892 102.343 81.5212 102.945 81.5212 103.701C81.5212 104.499 81.6892 105.129 82.0532 105.577C82.4172 106.039 82.9072 106.263 83.5372 106.263C84.1532 106.263 84.6432 106.039 84.9932 105.591C85.3432 105.143 85.5252 104.527 85.5252 103.729C85.5252 102.945 85.3432 102.329 84.9792 101.881C84.6152 101.447 84.1252 101.223 83.4812 101.223ZM95.2318 105.101C95.0498 105.885 94.6578 106.501 94.0698 106.935C93.4818 107.383 92.7678 107.593 91.9558 107.593C90.8638 107.593 89.9958 107.243 89.3518 106.543C88.7078 105.843 88.3998 104.933 88.3998 103.827C88.3998 102.707 88.7218 101.769 89.3798 101.027C90.0378 100.299 90.8778 99.9212 91.8998 99.9212C92.9498 99.9212 93.7898 100.285 94.4058 101.013C95.0218 101.741 95.3298 102.721 95.3298 103.967V104.135H89.9958C90.0098 104.863 90.1918 105.437 90.5418 105.829C90.8778 106.221 91.3678 106.417 91.9838 106.417C92.4178 106.417 92.7678 106.319 93.0478 106.109C93.3278 105.899 93.5378 105.563 93.7058 105.101H95.2318ZM93.7338 103.071C93.6778 102.469 93.4958 101.993 93.1598 101.643C92.8238 101.293 92.4038 101.111 91.8858 101.111C91.3538 101.111 90.9338 101.279 90.6118 101.615C90.2898 101.951 90.0938 102.441 90.0238 103.071H93.7338Z" fill="white"/>
</svg>
