<svg width="123" height="40" viewBox="0 0 123 40" fill="none" xmlns="http://www.w3.org/2000/svg">
<path fill-rule="evenodd" clip-rule="evenodd" d="M65.2592 21.918L65.2694 16.9063C68.3206 16.9063 69.4411 16.7494 69.9735 20.6021H70.2973V16.316L61.981 16.3179V16.9063H63.4229V27.9351H61.8341V28.5156H70.4026V24.0096H69.9735C69.5471 27.4176 68.7067 27.937 66.3525 27.937H65.2597V22.5789H65.892C66.9478 22.6071 67.5511 23.2377 67.7663 25.1106H68.1567L68.1542 19.5684C68.1445 19.5783 67.7707 19.5684 67.7707 19.5684C67.7707 19.5987 67.6944 21.9501 65.8472 21.918H65.2592ZM61.8631 22.1386H57.1722V22.6869H58.778V26.6526C58.5075 27.6579 57.0664 28.079 56.6374 28.079C53.6388 28.079 53.8524 23.5711 53.8524 22.3601C53.8524 21.258 53.7447 16.639 56.6374 16.639C58.6703 16.639 59.7412 18.7249 60.1726 20.6009H60.4993C60.4993 19.829 60.5097 16.1554 60.5017 16.1634C60.5097 16.1357 59.1072 17.2009 59.1011 17.1854C59.1307 17.1774 58.4609 16.1974 56.6374 16.1974C53.1003 16.1974 51.8037 19.829 51.8152 22.3601C51.831 24.6796 52.871 28.6273 56.6374 28.6273C57.8226 28.6273 58.6546 28.0086 59.1011 27.3034C59.1072 27.2891 60.5937 28.5124 60.5973 28.5161V22.6869H61.8631V22.1386ZM102.845 24.1164L104.557 18.8429L106.38 24.1164H102.845ZM96.203 22.0126H94.2779V16.8996H96.738C98.184 17.1237 98.242 18.8429 98.242 19.3869C98.242 20.7127 97.7053 22.0126 96.203 22.0126ZM116.676 24.0096C116.249 27.4189 115.411 27.9289 113.055 27.9289H112.909V16.9014H114.408V16.3067H109.482V16.9014H110.98V27.9283H109.792L105.414 15.9764H104.772C104.785 15.9701 101.133 26.8217 101.125 26.852C101.133 26.8217 100.851 27.7831 100.25 27.9041C99.6953 27.932 99.7383 27.6337 99.7383 27.5294V25.4373C99.7383 24.8914 99.696 23.6464 99.143 23.0721C98.5198 22.4287 97.4628 22.3824 97.4864 22.3583C97.4864 22.3583 100.177 21.7859 100.177 19.1523C100.177 17.3083 98.9294 16.3894 96.8456 16.311H90.9307V16.9051H92.4434V27.932H90.9307V28.5167H95.7844V27.932H94.2682V22.6281H96.2878C99.7873 22.9246 95.6864 28.5249 100.275 28.5167H103.168V27.9283C103.007 27.9283 101.945 27.9604 101.881 27.199C101.834 26.6526 102.578 24.6777 102.578 24.6777H106.515C106.513 24.6697 107.741 27.932 107.751 27.932H106.38V28.5167H117.105V24.009L116.676 24.0096ZM85.0977 16.9001C88.1506 16.9001 89.2772 16.7489 89.8079 20.6016H90.1309V16.316H78.0072V16.9001H78.3242C78.7532 16.9001 79.7655 16.9341 79.8284 17.853H79.8265V24.8864L74.1525 16.3154H71.0656V16.9001H71.5793C72.188 16.9001 73.0423 16.928 73.0798 17.853V26.865C73.0798 27.7437 71.7983 28.0801 71.2659 28.0801H71.2581V28.5174H75.4376V28.0801C74.9028 28.0801 73.6141 27.7437 73.6141 26.865L73.6281 18.933C75.8739 22.2317 80.1122 28.5254 80.1516 28.5167H80.3632V17.8536C80.422 16.9347 81.4366 16.9009 81.8637 16.9009H83.2553V27.9363H81.6695V28.5167H90.238V24.009H89.8072C89.3819 27.4183 88.5421 27.9381 86.1861 27.9381H85.097V22.5781H85.7274C86.7851 22.606 87.3847 23.2389 87.6001 25.1087H87.9897L87.9878 19.5671C87.98 19.5777 87.6038 19.5671 87.6038 19.5671C87.6038 19.5981 87.5293 21.9496 85.6803 21.9169H85.097L85.0977 16.9001ZM122.494 16.902V16.3074H117.656V16.902H119.179L119.182 27.9227H117.656V28.5174H122.494V27.9227H120.974V16.902H122.494ZM51.8152 12.9876V12.3948H53.4168V1.35866H51.9544V0.854775H60.2391V5.07237H59.9239C59.7848 4.1214 59.6105 3.38533 59.3854 2.86539C59.1736 2.38189 58.8954 2.0231 58.5275 1.8076C58.1633 1.57417 57.7107 1.44511 57.1862 1.43091C56.9236 1.41054 56.6295 1.41054 56.2985 1.39448C55.9658 1.39448 55.6173 1.37472 55.2507 1.37472V6.41854C55.2507 6.40001 55.3039 6.40001 55.4249 6.40001C55.4938 6.41854 55.5641 6.41854 55.6173 6.41854H55.809C56.1401 6.41854 56.4021 6.36606 56.5926 6.237C56.8044 6.14807 56.9762 6.00543 57.1329 5.8282C57.1862 5.73743 57.2539 5.64666 57.3071 5.55589C57.3616 5.46943 57.4113 5.36076 57.4645 5.25146C57.4989 5.16314 57.554 5.07237 57.5697 4.96554C57.5879 4.87663 57.6049 4.78831 57.6405 4.69569C57.6557 4.60677 57.6757 4.53206 57.6757 4.46351C57.6932 4.39126 57.6932 4.32086 57.7107 4.2659C57.7107 4.19366 57.7289 4.15723 57.7289 4.13931V4.06644H58.1118V9.59626H57.6932C57.6557 9.36037 57.6405 9.1467 57.5874 8.9491C57.554 8.77003 57.4989 8.58847 57.4639 8.41187C57.3428 8.071 57.2212 7.81906 57.0802 7.63999C56.9229 7.42386 56.7335 7.28059 56.5394 7.2102C56.3494 7.11941 56.1244 7.08113 55.8442 7.08113H55.2512V12.3954H56.8371V12.9882L51.8152 12.9876ZM80.7698 5.34223C80.7547 5.19896 80.7547 5.01803 80.719 4.80437C80.7015 4.67901 80.7015 4.56849 80.6839 4.4456C80.6658 4.32086 80.6658 4.19366 80.6489 4.06644C80.6132 3.81697 80.5605 3.54713 80.4903 3.26244C80.4213 2.99074 80.3329 2.7425 80.1938 2.48871C80.0886 2.2911 79.9494 2.11203 79.7752 1.949C79.6868 1.87799 79.636 1.8255 79.5658 1.75326C79.4993 1.69891 79.411 1.62667 79.3583 1.59394C79.2875 1.53589 79.201 1.50316 79.1132 1.44511C79.0267 1.41054 78.8858 1.35619 78.8017 1.35619H77.6836C77.7011 2.39979 77.7011 3.36929 77.7011 4.28629V12.4133H79.201V12.9876H74.2639V12.4133H75.7663V1.35619C75.7663 1.35619 74.5966 1.34014 74.2814 1.41054C74.1955 1.44511 74.1265 1.48154 73.968 1.57417C73.8996 1.60814 73.8289 1.66496 73.7411 1.71681C73.6703 1.77179 73.5838 1.82611 73.4979 1.8959C73.3412 2.03979 73.202 2.23923 73.0768 2.4529C73.0102 2.57763 72.9576 2.70421 72.9068 2.83143C72.8536 2.95493 72.8185 3.09943 72.7809 3.22663C72.7125 3.51069 72.6599 3.7824 72.6249 4.03434C72.6091 4.15784 72.5892 4.28629 72.5892 4.40917C72.5715 4.51414 72.5559 4.7698 72.5559 4.7698L72.5384 5.05384V5.27183H72.1722V0.854775H81.1027L81.1189 5.34223H80.7698ZM99.6505 5.61207C99.7372 5.48673 99.8248 5.34161 99.8781 5.21687C99.9131 5.07176 99.9639 4.92849 99.999 4.7698C100.068 4.46351 100.103 4.12079 100.103 3.8003C100.103 3.72806 100.103 3.63913 100.087 3.53044C100.087 3.43967 100.068 3.31431 100.068 3.18959C100.035 2.90183 99.9797 2.64989 99.8956 2.39979C99.8073 2.12993 99.6862 1.93233 99.4764 1.70077C99.4061 1.60999 99.2513 1.50316 99.1454 1.46673C99.057 1.41054 98.9185 1.35805 98.6051 1.35805H96.1274V6.43583H98.0624C98.4641 6.43583 98.7793 6.36544 99.0219 6.2228C99.2845 6.09558 99.4895 5.90046 99.6505 5.61207ZM102.659 12.8444C102.533 12.8968 102.394 12.9327 102.258 12.9512C102.081 12.9876 101.907 13.0234 101.732 13.0234C101.261 13.0234 100.896 12.9327 100.67 12.79C100.424 12.6109 100.233 12.4133 100.129 12.1429C100.023 11.857 99.9542 11.5501 99.9368 11.2302C99.9368 11.0647 99.9186 10.8856 99.9186 10.7084V10.1884C99.9368 9.8093 99.9368 9.45053 99.9186 9.11027C99.9186 8.76941 99.8659 8.44707 99.7625 8.16116C99.676 7.89131 99.4999 7.65913 99.2724 7.43991C99.0456 7.26207 98.7145 7.15586 98.2802 7.09904H96.2212V12.4133H97.7918L97.8076 12.9876H92.8881V12.4133H94.4781V1.46673H92.8881V0.856011H98.8356C99.1164 0.856011 99.3608 0.856011 99.5858 0.874537C99.8133 0.9085 100.043 0.946785 100.252 1.01718C100.654 1.12401 101 1.28765 101.28 1.52107C101.56 1.71681 101.77 2.00459 101.925 2.36336C102.081 2.7425 102.152 3.16983 102.152 3.6731C102.152 4.33816 102.013 4.87663 101.715 5.27121C101.437 5.68247 101.122 6.02457 100.79 6.25676C100.389 6.54267 99.9542 6.74211 99.4842 6.86747H99.4999C99.535 6.886 99.5682 6.886 99.6234 6.90391C99.6917 6.90391 99.7443 6.92181 99.8133 6.93973C99.8859 6.93973 99.9719 6.95824 100.043 6.99407C100.217 7.02864 100.389 7.09904 100.583 7.2102C100.773 7.28059 100.965 7.40533 101.121 7.56834C101.243 7.71161 101.366 7.89131 101.454 8.1025C101.525 8.30443 101.593 8.51623 101.629 8.7515C101.648 8.87624 101.662 8.98739 101.662 9.09421C101.682 9.20104 101.682 9.30787 101.697 9.41656C101.697 9.50549 101.715 9.5981 101.715 9.70247V12.1225C101.715 12.1614 101.732 12.1972 101.75 12.2497C101.786 12.288 101.837 12.3226 101.907 12.3608C101.942 12.3769 102.048 12.3948 102.22 12.3948L102.624 12.2497L102.99 12.6288C102.92 12.7172 102.796 12.7894 102.659 12.8444ZM111.976 12.9876H103.414V12.4133H105V1.35866H103.553V0.854775H111.853V5.07237H111.522C111.452 4.58639 111.383 4.15723 111.295 3.79844C111.189 3.4403 111.105 3.11919 110.997 2.86601C110.792 2.38189 110.492 2.0231 110.126 1.78969C109.759 1.55566 109.307 1.44511 108.767 1.43091C108.506 1.41054 108.208 1.41054 107.895 1.39448C107.564 1.39448 107.215 1.37472 106.832 1.37472V6.40001H107.425C107.721 6.40001 107.963 6.34814 108.208 6.237C108.436 6.11411 108.61 5.969 108.732 5.8282C108.802 5.7189 108.854 5.6306 108.922 5.53983C108.976 5.4509 109.029 5.36076 109.062 5.25146C109.098 5.14277 109.133 5.05384 109.168 4.96554C109.204 4.87663 109.221 4.7698 109.239 4.67901C109.274 4.58639 109.291 4.47771 109.291 4.39126C109.307 4.30049 109.324 4.17513 109.324 4.0504H109.709V9.59626H109.291C109.274 9.36037 109.239 9.1467 109.203 8.9491C109.168 8.77003 109.115 8.57243 109.062 8.41187C108.958 8.071 108.819 7.80053 108.696 7.62146C108.539 7.42386 108.367 7.28059 108.175 7.19043C107.948 7.09966 107.721 7.06508 107.478 7.06508H106.832V12.4133H107.912C108.522 12.4133 109.029 12.3769 109.413 12.2867C109.83 12.196 110.181 12.0187 110.439 11.7483C110.721 11.4605 110.947 11.0474 111.121 10.5472C111.209 10.2774 111.295 9.98899 111.348 9.64874C111.418 9.30787 111.471 8.91329 111.522 8.49831H111.976V12.9876ZM68.0895 1.46734V0.854775H71.5443V1.46734H70.091V8.10929C70.091 9.45793 70.0207 10.3404 69.8992 10.7714C69.4799 12.301 68.3618 13.0562 66.5575 13.0562C65.6487 13.0562 64.8265 12.8771 64.1271 12.5165C63.3042 12.1033 62.7797 11.4568 62.5703 10.6102C62.4494 10.1792 62.413 9.34863 62.413 8.10929V1.44511H60.9464V0.854775H65.7372V1.44511H64.2669V8.10929C64.2669 9.36716 64.2857 10.1952 64.337 10.5577C64.3897 10.9325 64.5306 11.2753 64.7557 11.6198C65.2102 12.301 65.9464 12.4683 66.9611 12.4683C68.1149 12.4683 68.7611 12.0169 69.1472 11.1863C69.3038 10.8442 69.3915 10.4855 69.4429 10.1242C69.478 9.76421 69.4955 9.09669 69.4955 8.10929V1.46734H68.0895ZM88.8677 1.46734V0.854775H92.3223V1.46734H90.8691V8.10929C90.8691 9.45793 90.8001 10.3404 90.6791 10.7714C90.258 12.301 89.1374 13.0562 87.3357 13.0562C86.4269 13.0562 85.6041 12.8771 84.9071 12.5165C84.0842 12.1033 83.5597 11.4568 83.3479 10.6102C83.2269 10.1792 83.1912 9.34863 83.1912 8.10929V1.44511H81.7209V0.854775H86.5152V1.44511H85.0462V8.10929C85.0462 9.36716 85.0638 10.1952 85.1146 10.5577C85.1678 10.9325 85.3082 11.2753 85.5357 11.6198C85.99 12.301 86.7246 12.4683 87.7392 12.4683C88.8925 12.4683 89.5368 12.0169 89.9246 11.1863C90.0838 10.8442 90.1697 10.4855 90.2211 10.1242C90.2556 9.76421 90.2755 9.09669 90.2755 8.10929V1.46734H88.8677ZM2.85153 39.8456H1.91131V32.8554H0V31.997H4.77313V32.8554H2.85153V39.8456ZM6.38434 35.922C6.38434 37.7331 6.55435 39.2083 7.85699 39.2083C9.16145 39.2083 9.33207 37.7331 9.33207 35.922C9.33207 34.1101 9.16145 32.6369 7.85699 32.6369C6.55435 32.6369 6.38434 34.1101 6.38434 35.922ZM10.3152 35.922C10.3152 37.898 9.96252 39.9981 7.85699 39.9981C5.7557 39.9981 5.40055 37.8986 5.40055 35.922C5.40055 33.9447 5.7557 31.8451 7.85699 31.8451C9.96252 31.8451 10.3152 33.9447 10.3152 35.922ZM13.7948 39.8456H12.8546V32.8554H10.9433V31.997H15.7158V32.8554H13.7948V39.8456ZM16.9029 36.9001H18.9534L17.9817 33.1091H17.9605L16.9029 36.9001ZM17.3609 31.997H18.6223L20.6735 39.8456H19.6896L19.1451 37.6917H16.711L16.1448 39.8463H15.1615L17.3609 31.997ZM21.2367 31.9977H22.177V38.9886H25.2753V39.8469H21.2367V31.9977ZM28.6042 39.8474H29.5446V31.9983H28.6042V39.8474ZM30.8133 31.9977H32.0311L34.5517 38.5489H34.5736V31.9977H35.5138V39.8469H34.2208L31.7747 33.4933H31.7534V39.8469H30.8133V31.9977ZM40.0176 34.0311C40.0176 33.2086 39.7297 32.638 38.833 32.638C38.0416 32.638 37.5715 33.0753 37.5715 33.9101C37.5715 36.1209 41.1714 34.8006 41.1714 37.6701C41.1714 39.4837 39.8785 39.9994 38.8015 39.9994C37.0166 39.9994 36.4945 39.0546 36.4945 37.3836H37.4324C37.4324 38.2649 37.4868 39.2077 38.8638 39.2077C39.6123 39.2077 40.1901 38.6594 40.1901 37.8233C40.1901 35.6027 36.5901 36.8903 36.5901 34.0107C36.5901 33.2851 36.8879 31.8446 38.8227 31.8446C40.2747 31.8446 40.9361 32.5917 40.9579 34.0306L40.0176 34.0311ZM42.0669 31.9977H43.0071V37.5151C43.0071 38.6699 43.3713 39.2077 44.3 39.2077C45.3026 39.2077 45.6022 38.6137 45.6022 37.5157V31.9977H46.5424V37.5151C46.5424 39.0206 45.7939 40 44.3 40C42.77 40 42.0675 39.1311 42.0675 37.5151L42.0669 31.9977ZM48.666 35.5594H49.596C50.1501 35.5594 51.1648 35.5594 51.1648 34.0423C51.1648 33.2729 50.6633 32.7887 49.7877 32.7887H48.666V35.5594ZM47.7282 31.9964H50.1938C51.3899 31.9964 52.1481 32.7244 52.1481 33.9663C52.1481 34.8247 51.86 35.725 50.973 35.9423V35.967C51.6349 36.0411 52.0088 36.6031 52.0525 37.2749L52.1166 38.6149C52.1577 39.4831 52.2969 39.703 52.5219 39.8463H51.3906C51.2296 39.6807 51.1546 39.0984 51.1334 38.7113L51.071 37.4947C50.9949 36.416 50.4189 36.3517 49.9367 36.3517H48.666V39.8463H47.7282V31.9964ZM54.3346 36.9001H56.3857L55.414 33.1091H55.3946L54.3346 36.9001ZM54.7951 31.997H56.0541L58.1052 39.8456H57.1214L56.5787 37.6917H54.1422L53.5765 39.8463H52.5957L54.7951 31.997ZM58.6709 31.9977H59.8889L62.4075 38.5489H62.4294V31.9977H63.3696V39.8469H62.0767L59.6305 33.4933H59.6087V39.8469H58.6709V31.9977ZM69.305 37.1539C69.2204 38.6347 68.6546 39.9994 66.9877 39.9994C64.8199 39.9994 64.5319 37.8999 64.5319 35.9226C64.5319 33.9434 64.8846 31.8439 66.9884 31.8439C68.547 31.8439 69.1991 32.7449 69.2421 34.2843H68.2589C68.2378 33.3951 67.9594 32.638 66.9884 32.638C65.6857 32.638 65.5132 34.109 65.5132 35.9226C65.5132 37.7343 65.6857 39.209 66.9877 39.209C68.1312 39.209 68.2904 38.1091 68.3237 37.1539H69.305ZM70.2114 31.9977H74.152V32.856H71.1515V35.3169H73.9813V36.1751H71.1515V38.9886H74.2796V39.8469H70.2114V31.9977ZM81.0178 34.0311C81.0178 33.2086 80.7299 32.638 79.8333 32.638C79.0419 32.638 78.5717 33.0753 78.5717 33.9101C78.5717 36.1209 82.1718 34.8006 82.1718 37.6701C82.1718 39.4837 80.8787 39.9994 79.7999 39.9994C78.0152 39.9994 77.4924 39.0546 77.4924 37.3836H78.4326C78.4326 38.2649 78.487 39.2077 79.864 39.2077C80.6106 39.2077 81.1885 38.6594 81.1885 37.8233C81.1885 35.6027 77.5885 36.8903 77.5885 34.0107C77.5885 33.2851 77.8881 31.8446 79.8211 31.8446C81.2744 31.8446 81.9363 32.5917 81.9556 34.0306L81.0178 34.0311ZM84.0286 35.922C84.0286 37.7331 84.1985 39.2083 85.5012 39.2083C86.8038 39.2083 86.9757 37.7331 86.9757 35.922C86.9757 34.1101 86.8038 32.6369 85.5012 32.6369C84.1985 32.6369 84.0286 34.1101 84.0286 35.922ZM87.957 35.922C87.957 37.898 87.6061 39.9981 85.5005 39.9981C83.3975 39.9981 83.0453 37.8986 83.0453 35.922C83.0453 33.9447 83.3975 31.8451 85.5012 31.8451C87.6067 31.8451 87.957 33.9447 87.957 35.922ZM89.1199 31.9977H90.0595V38.9886H93.1579V39.8469H89.1199V31.9977ZM93.8066 31.9977H94.7468V37.5151C94.7468 38.6699 95.111 39.2077 96.0415 39.2077C97.0423 39.2077 97.3424 38.6137 97.3424 37.5157V31.9977H98.282V37.5151C98.282 39.0206 97.5336 40 96.0415 40C94.512 40 93.8066 39.1311 93.8066 37.5151V31.9977ZM101.784 39.8456H100.844V32.8554H98.9323V31.997H103.705V32.8554H101.784V39.8456ZM104.442 39.8474H105.383V31.9983H104.442V39.8474ZM107.314 35.922C107.314 37.7331 107.484 39.2083 108.788 39.2083C110.091 39.2083 110.261 37.7331 110.261 35.922C110.261 34.1101 110.091 32.6369 108.788 32.6369C107.484 32.6369 107.314 34.1101 107.314 35.922ZM111.244 35.922C111.244 37.898 110.892 39.9981 108.788 39.9981C106.685 39.9981 106.332 37.8986 106.332 35.922C106.332 33.9447 106.685 31.8451 108.788 31.8451C110.892 31.8451 111.244 33.9447 111.244 35.922ZM112.194 31.9977H113.412L115.931 38.5489H115.952V31.9977H116.892V39.8469H115.6L113.154 33.4933H113.132V39.8469H112.194V31.9977ZM121.399 34.0311C121.399 33.2086 121.111 32.638 120.213 32.638C119.422 32.638 118.952 33.0753 118.952 33.9101C118.952 36.1209 122.552 34.8006 122.552 37.6701C122.552 39.4837 121.259 39.9994 120.18 39.9994C118.396 39.9994 117.873 39.0546 117.873 37.3836H118.813C118.813 38.2649 118.866 39.2077 120.243 39.2077C120.991 39.2077 121.569 38.6594 121.569 37.8233C121.569 35.6027 117.969 36.8903 117.969 34.0107C117.969 33.2851 118.269 31.8446 120.201 31.8446C121.655 31.8446 122.317 32.5917 122.337 34.0306L121.399 34.0311ZM35.5187 24.2794C35.6124 24.0274 35.8006 23.8687 36.0553 23.8181L38.6521 23.2216L38.4168 20.8399L38.4095 20.7874C38.3465 20.475 38.1524 19.5259 36.9459 19.4227C32.3065 19.0361 31.2313 18.331 30.1029 17.5813L30.0969 17.569L30.0909 17.5733L30.0188 17.5226C28.8124 16.723 27.6174 16.7149 27.4983 16.7186C26.1841 16.7186 24.5234 17.2546 24.3859 17.2991C23.9848 17.4226 23.6085 17.543 23.2461 17.6634C21.7952 18.145 20.5398 18.5607 18.43 18.4964L18.0445 18.4841L17.9465 18.867C17.8704 19.1633 17.281 21.5593 17.8504 23.1006C17.3391 23.5161 17.3391 23.9917 17.3434 24.0577C17.3627 24.5839 17.2411 24.7147 17.2023 24.7556C16.9592 25.0149 16.1502 25.0519 15.4707 25.0519H15.2142L15.069 25.257C14.6485 25.8497 13.7416 25.9906 13.1595 25.8374C12.9072 25.0396 12.8994 24.4289 13.1462 24.0657C13.436 23.6347 14.0531 23.5866 14.3037 23.5866H14.4488C15.0672 23.5866 15.5669 23.0684 15.5669 22.4319V18.1377C15.757 17.8413 15.9058 17.4967 16.0371 17.1077C17.0553 16.9409 17.8346 16.0536 17.8346 14.9834C17.8346 14.5746 17.7173 14.1757 17.5055 13.8373C18.4475 13.3742 19.2511 12.4207 19.2511 11.1709C19.2511 9.92354 18.6418 9.35171 18.0603 8.97441C18.2242 8.49709 18.4947 7.65294 18.6775 6.80449L19.4918 3.80339C19.856 2.62703 20.8097 1.86503 21.9181 1.86503H36.2682C35.6614 2.74374 34.798 3.16303 33.603 3.16303H24.9189L24.4664 4.16031H32.2473C31.6361 5.16191 30.7413 5.63121 29.4701 5.63121H23.8281L23.3738 6.63097H28.4088C27.7995 7.59614 26.9125 8.04939 25.665 8.04939H22.5884L22.1359 9.04729H25.3594C25.3909 9.09174 25.4714 9.24057 25.4714 9.64566C25.4714 10.2903 24.9462 10.8103 24.3 10.8103C24.0804 10.8103 23.8904 10.7603 23.5595 10.6207C23.4168 10.5565 23.2738 10.496 23.1323 10.4336L22.3821 11.1252C22.5212 11.187 22.6629 11.2475 22.8038 11.308C23.4499 11.5982 23.8125 11.7477 24.3 11.7477C24.8954 11.7477 25.4302 11.4932 25.8121 11.0906C26.3626 11.1308 27.255 11.2055 28.1154 11.2759C29.1494 11.3648 30.1229 11.4451 30.6262 11.4735C30.8786 11.4877 31.1133 11.4994 31.339 11.5099C31.768 11.5315 32.1595 11.5519 32.5509 11.5803C34.51 14.8531 35.5125 15.2841 39.308 15.7516C39.5784 16.2554 39.8253 16.7871 40.0624 17.3231V23.7336C40.0835 24.0256 40.0835 24.1244 40.0442 24.1769C39.9136 24.3541 39.328 24.6061 39.1222 24.6926L35.9258 25.9319C35.5023 25.3416 35.3517 24.7253 35.5187 24.2794ZM34.8271 26.0084H28.5068L31.2157 23.0684C31.762 22.4861 31.9381 21.789 31.7068 21.1017C31.5755 20.7066 31.2192 19.9451 30.8453 19.167C31.9204 19.6809 33.5522 20.1446 36.8655 20.4187C37.2672 20.4527 37.3737 20.5917 37.4517 20.9646L37.597 22.4399L35.8629 22.8369C35.2832 22.9554 34.8271 23.3489 34.6116 23.917C34.3745 24.5456 34.4543 25.2853 34.8271 26.0084ZM23.4282 26.0084C23.2521 25.3033 23.3223 24.7389 23.6357 24.3701C23.9358 24.0157 24.3981 23.907 24.723 23.9553L26.572 24.3097L26.6168 24.3177H26.8732L28.1801 22.869L28.1916 22.8567C28.4148 22.5887 29.0944 21.7791 28.4034 20.7473L26.6561 17.7869C26.9458 17.7467 27.2357 17.7184 27.502 17.7184L27.5158 17.7166C27.5236 17.7184 28.3992 17.7041 29.3352 18.2661C29.4622 18.544 29.6407 18.9151 29.8367 19.3264C30.2028 20.0903 30.6596 21.0411 30.7848 21.424C30.826 21.5476 30.9494 21.9119 30.5126 22.3793L27.1667 26.0084H23.4282ZM22.9036 23.7113C22.5509 24.1263 22.2078 24.85 22.4316 26.0084H16.4794C17.1183 25.9443 17.5842 25.7911 17.9036 25.4484C18.2951 25.0316 18.3302 24.461 18.3169 24.054C18.3284 24.0176 18.3931 23.8811 18.6847 23.7453L19.1977 23.5039L18.8904 23.0179C18.381 22.2139 18.6043 20.4589 18.8002 19.5017H18.8457C20.8647 19.5017 22.1691 19.0707 23.5462 18.615C23.9044 18.4964 24.2746 18.373 24.6661 18.2581L24.6782 18.2519C24.6855 18.25 25.0896 18.1173 25.6353 17.9883L27.5745 21.2771L27.5945 21.303C27.7881 21.5871 27.8117 21.7767 27.459 22.1984L26.4879 23.2779L24.8936 22.9716L24.8779 22.9697C24.159 22.8567 23.3834 23.1469 22.9036 23.7113ZM12.3451 23.494C11.9319 24.1066 11.8811 24.9507 12.1939 26.0084H11.1877V17.9339C11.5477 17.8753 11.9355 17.7709 12.2961 17.6017C12.2768 17.9536 12.2296 18.2321 12.1649 18.6051C12.1509 18.6916 12.1352 18.7804 12.1201 18.8769L12.0221 19.4591H12.5974C13.4596 19.4591 14.1015 19.3227 14.5934 19.0584V22.4319C14.5934 22.5183 14.5287 22.5869 14.4482 22.5869H14.3031C13.4475 22.5869 12.7348 22.9171 12.3451 23.494ZM10.2142 25.1366L5.63289 23.9064L1.04792 25.1353V16.7001L5.63289 15.4787L10.2142 16.7001V25.1366ZM1.63783 26.0079L5.63289 24.9396L9.62611 26.0079H1.63783ZM3.23573 13.5928C3.42571 13.2945 3.86497 13.0327 4.41072 13.1334L4.82818 13.2056L4.95767 12.795C4.99276 12.6838 5.03752 12.6035 5.10408 12.5387C5.22206 12.4257 5.3945 12.3738 5.61533 12.3794C6.20282 12.3979 6.93553 12.819 7.53088 13.4761C7.74869 13.7157 7.93807 13.9935 8.1105 14.272C8.14377 14.3301 8.18129 14.395 8.2182 14.4511C8.2654 14.5277 8.30471 14.5919 8.31258 14.6086C8.33618 14.6469 8.62963 15.1026 8.60845 15.1304C8.81173 14.8401 9.0114 14.5499 9.21348 14.2578C9.21954 14.2498 9.20925 14.2233 9.19352 14.185C9.14693 14.0843 9.04105 13.9133 8.97813 13.8126C8.96058 13.7861 8.94726 13.7601 8.93153 13.7379C8.92911 13.736 8.92731 13.7336 8.92731 13.7317C8.92124 13.7194 8.89402 13.6755 8.85893 13.6187C8.79237 13.51 8.69617 13.3532 8.65321 13.268L9.92258 11.1833C10.2372 11.2512 10.5058 11.2617 10.6335 11.2617H10.6668C12.4547 11.2617 14.3031 10.202 14.3031 8.42421V8.38037C14.2818 7.89871 14.1942 7.43681 14.1234 7.06631C14.0762 6.8224 14.0332 6.59269 14.0332 6.47597C14.0332 6.27837 14.2976 6.06471 14.6793 6.06471H15.2571L14.9971 4.5234C15.8096 3.90651 16.3111 2.90553 16.284 1.94591C17.1588 2.63753 17.7783 3.8355 17.8915 5.11127C17.9248 5.48179 17.8522 6.00234 17.7366 6.54637L17.6743 6.77423L17.6863 6.77608C17.4782 7.66653 17.1728 8.58354 17.01 9.01703L16.8611 9.41841L17.226 9.6296C17.8775 10.0106 18.2794 10.2885 18.2794 11.1709C18.2794 12.1849 17.3924 12.9623 16.5369 13.1278L15.3631 13.3538L16.3541 14.0349C16.6711 14.2504 16.8611 14.6067 16.8611 14.984C16.8611 15.62 16.3348 16.1387 15.688 16.1387H15.3141L15.2105 16.4933C14.8463 17.7097 14.4506 18.3069 13.1813 18.4359C13.24 18.063 13.2793 17.7084 13.2793 17.2021C13.2793 17.0854 13.2696 16.7531 13.2654 16.6464L13.2085 15.5101L12.4311 16.3216C12.1685 16.5957 11.7008 16.8156 11.1877 16.9206V15.9263L5.63289 14.4437L3.65441 14.9736C3.21395 14.5184 3.12621 13.7682 3.23573 13.5928ZM9.23465 9.92291C9.24857 9.85499 9.30363 9.79819 9.3605 9.80003L10.1985 9.82844C11.2186 9.792 12.2568 9.36099 12.3724 8.26614C12.3724 7.52697 11.8629 6.80573 11.1423 6.80573C10.7569 6.80573 10.3237 7.0799 9.83607 7.41211C9.52084 7.62824 9.27036 7.7993 9.07796 7.7993C8.95089 7.7993 8.84684 7.71284 8.84684 7.63999C8.84684 7.62763 8.84926 7.61157 8.85288 7.60354L9.38773 6.86624L8.92548 6.54576C8.82746 6.48153 8.67259 6.35433 8.65685 6.26356C8.64717 6.21724 8.7101 6.14067 8.72945 6.11473C8.91944 5.88626 9.14087 5.60467 9.36414 5.2601C9.49906 5.06434 9.57771 4.95566 9.80702 4.95566C10.0321 4.95566 10.2184 5.14339 10.2184 5.37063C10.2184 5.52191 10.3788 5.64296 10.5803 5.64296C10.7799 5.64296 10.8707 5.49784 10.9953 5.37124C10.9953 5.37124 11.4715 4.92356 11.2192 4.70804C10.9288 4.46597 9.77556 4.96184 10.0968 3.87193L10.1767 3.71631C10.3025 3.54713 10.8525 3.12783 11.9924 3.12783C12.2102 3.12783 12.4371 3.14389 12.6682 3.1723L12.8425 3.19453L15.2615 1.65877C15.2826 1.71126 15.2904 1.7477 15.2904 1.7477L15.2928 1.76376C15.4181 2.51711 14.9559 3.41436 14.2195 3.85094L13.9231 4.02507L14.1137 5.14894C13.4929 5.3447 13.0597 5.85661 13.0597 6.47536C13.0597 6.68654 13.1069 6.93849 13.1674 7.25713C13.2364 7.61157 13.3108 8.01049 13.3301 8.41804C13.3301 9.58637 11.7631 10.3601 10.4356 10.3138H10.4024C10.3473 10.3119 9.5033 10.2434 9.29516 10.0761C9.25643 10.0458 9.22498 9.9754 9.23465 9.92291ZM11.2404 2.12253C11.3934 1.92121 11.6439 1.69706 11.9374 1.49576C12.1727 1.33643 12.474 1.19749 12.7699 1.10857C13.24 0.972103 13.7785 0.961605 14.337 1.07029L12.6192 2.16143C12.4056 2.1392 12.1957 2.12931 11.9924 2.12931C11.7008 2.12931 11.4346 2.1534 11.1877 2.19354C11.2053 2.16946 11.2228 2.14476 11.2404 2.12253ZM37.4045 1.8644H43.8772C43.2721 2.74497 42.4069 3.16241 41.212 3.16241H36.4328C36.8128 2.81784 37.1383 2.38434 37.4045 1.8644ZM37.0796 5.63121H32.2986C32.7233 5.25021 33.0742 4.75806 33.3562 4.15969H39.8566C39.2457 5.1613 38.3501 5.63121 37.0796 5.63121ZM33.2758 8.04877H28.4971C28.9061 7.68011 29.2492 7.20279 29.5233 6.63036H36.0178C35.4085 7.59551 34.5251 8.04877 33.2758 8.04877ZM34.3745 11.8032C35.8883 12.0589 37.1281 12.7585 38.0591 13.8849C38.2589 14.1288 38.4499 14.3826 38.64 14.6604C36.0928 14.3159 35.2053 13.933 33.7816 11.7106C33.971 11.7353 34.1688 11.765 34.3745 11.8032ZM44.5373 22.5861C44.6316 22.7393 44.7097 22.8887 44.7884 23.0277C44.8822 23.2006 44.976 23.368 45.0836 23.5433C44.3455 23.4951 43.7889 23.074 43.2721 22.2817C43.7483 22.1107 44.3261 22.2317 44.5373 22.5861ZM38.4814 26.0079L39.4744 25.6231L39.4882 25.6189C40.898 25.0167 41.1 24.6437 41.0335 23.6767V19.7771C42.1068 22.5807 43.1197 24.5506 45.2016 24.5506C45.4835 24.5506 45.7848 24.5147 46.1104 24.44L46.9211 24.251L46.3626 23.6161C46.0063 23.213 45.8338 22.8969 45.6342 22.5356C45.5519 22.3886 45.4696 22.2317 45.3662 22.0601C44.8785 21.248 43.7204 20.9739 42.7844 21.4056C42.3598 20.5367 41.9307 19.4049 41.4152 18.0061L41.3021 17.74C41.2138 17.53 41.1237 17.3207 41.0335 17.1089V17.0749H41.0178C40.699 16.3376 40.3583 15.5936 39.9504 14.9026C39.5802 14.2696 39.2045 13.7274 38.801 13.2383C37.7161 11.9261 36.2804 11.1122 34.533 10.814C33.3266 10.6102 32.4711 10.5657 31.388 10.5114C31.1623 10.5015 30.9294 10.4892 30.6789 10.4731C30.1888 10.449 29.1747 10.3644 28.1952 10.2798C27.5358 10.2236 26.8599 10.1668 26.3269 10.1267C26.362 9.9717 26.3837 9.81177 26.3837 9.64504C26.3837 9.42336 26.362 9.22574 26.3251 9.04606H33.2758C35.066 9.04606 36.3645 8.23217 37.1341 6.6285C38.9165 6.61244 40.2052 5.78251 40.9651 4.15969H41.212C43.0665 4.15969 44.3927 3.289 45.1526 1.57047L45.4673 0.866508H21.9192C20.3734 0.866508 19.0555 1.90269 18.56 3.50946L18.5462 3.56503C18.1468 2.41646 17.4123 1.44326 16.4721 0.868978C15.167 0.0680678 13.6823 -0.198696 12.5 0.150197C12.108 0.267524 11.7183 0.448454 11.4031 0.662113C11.1308 0.847365 10.7509 1.14562 10.4726 1.50624C10.1731 1.90331 9.88145 2.38681 9.66786 2.8339C9.53233 2.94937 9.42706 3.06856 9.35445 3.18094L9.07251 3.72497L9.05678 3.75584C8.71977 4.53946 8.30835 5.08534 7.9913 5.46634C7.67367 5.8492 7.65611 6.20983 7.69969 6.44386C7.74445 6.70321 7.88119 6.91503 8.02641 7.07434L8.01672 7.0904C7.92294 7.25713 7.87394 7.44484 7.87394 7.6406C7.87394 8.2791 8.41423 8.76323 9.07796 8.76323C9.5638 8.76323 9.95767 8.53104 10.3746 8.24514C10.5452 8.12781 10.9953 7.824 11.1429 7.80609C11.3287 7.80609 11.4987 7.98084 11.4987 8.17227C11.4987 8.69654 10.8428 8.97688 10.3709 9.01271L9.41496 9.11954C8.72764 9.18623 8.40031 9.5592 8.40031 9.89574C8.40031 10.2323 8.55763 10.4212 8.66652 10.5343L8.73732 10.6084L8.98236 10.8325L7.96772 12.5134C7.24288 11.8218 6.39705 11.4049 5.64861 11.3827C5.16337 11.3667 4.74408 11.5155 4.4343 11.8137C4.34416 11.9027 4.26611 12.0015 4.20136 12.112H4.182C3.38093 12.112 2.73597 12.5535 2.42135 13.0494C2.07829 13.5891 2.19991 14.5283 2.63675 15.2459L0.0768396 15.927V28.5193H47.0288V26.0084L38.4814 26.0079Z" fill="#C21B17"/>
<path fill-rule="evenodd" clip-rule="evenodd" d="M9.19857 17.9946L6.13769 17.1784V18.2076L9.19857 19.0284V17.9946ZM2.06641 19.0278L5.12608 18.2095V17.1758L2.06641 17.9941V19.0278ZM2.06641 21.1038L5.12608 20.2856V19.2519L2.06641 20.0701V21.1038ZM9.19857 20.0708L6.13769 19.2525V20.2844L9.19857 21.1045V20.0708ZM9.19857 22.1468L6.13769 21.3268V22.3586L9.19857 23.1805V22.1468ZM2.06641 23.1799L5.12608 22.3598V21.3261L2.06641 22.1462V23.1799Z" fill="#C21B17"/>
</svg>
