<svg width="12" height="7" viewBox="0 0 12 7" fill="none" xmlns="http://www.w3.org/2000/svg">
<path d="M10.0859 0.250244L5.75 4.58618L1.41406 0.250244C1.27344 0.0939941 1.09766 0.0158691 0.886719 0.0158691C0.675781 0.0158691 0.5 0.0939941 0.359375 0.250244C0.203125 0.390869 0.125 0.562744 0.125 0.765869C0.125 0.968994 0.203125 1.14868 0.359375 1.30493L5.21094 6.15649C5.28906 6.23462 5.375 6.29321 5.46875 6.33228C5.5625 6.37134 5.65625 6.39087 5.75 6.39087C5.84375 6.39087 5.9375 6.37134 6.03125 6.33228C6.125 6.29321 6.21094 6.23462 6.28906 6.15649L11.1406 1.30493C11.2969 1.14868 11.375 0.968994 11.375 0.765869C11.375 0.562744 11.2969 0.390869 11.1406 0.250244C11 0.0939941 10.8242 0.0158691 10.6133 0.0158691C10.4023 0.0158691 10.2266 0.0939941 10.0859 0.250244Z" fill="#C21B17"/>
</svg>
