<svg width="88" height="80" viewBox="0 0 88 80" fill="none" xmlns="http://www.w3.org/2000/svg">
<path d="M4 76.1545L9.08435 57.5825C5.949 52.1592 4.31071 45.9873 4.31071 39.6743C4.31071 19.9159 20.397 3.84375 40.1554 3.84375C49.745 3.84375 58.7415 7.58639 65.5065 14.3514C72.2715 21.1305 76 30.127 76 39.7025C75.9859 59.4608 59.9137 75.533 40.1554 75.533H40.1412C34.1389 75.533 28.2495 74.0219 23.0098 71.169L4 76.1545ZM23.8854 64.6864L24.9729 65.3361C29.5488 68.0477 34.7885 69.4883 40.1412 69.4883H40.1554C56.5806 69.4883 69.9412 56.1278 69.9412 39.7025C69.9412 31.7512 66.8482 24.2659 61.2271 18.6307C55.6061 12.9956 48.1208 9.9026 40.1695 9.9026C23.7301 9.9026 10.3696 23.2631 10.3696 39.6884C10.3696 45.3094 11.9372 50.7892 14.9172 55.5346L15.6234 56.6645L12.6151 67.6523L23.8854 64.6864Z" fill="white"/>
<path d="M5.25781 74.8983L10.1727 56.976C7.1362 51.7363 5.54028 45.7763 5.54028 39.6892C5.5544 20.6088 21.0758 5.10156 40.1421 5.10156C49.3928 5.10156 58.0926 8.70297 64.6176 15.242C71.1566 21.781 74.758 30.4668 74.7439 39.7175C74.7298 58.7838 59.2084 74.3052 40.1421 74.3052H40.128C34.3375 74.3052 28.6458 72.8505 23.5897 70.0965L5.25781 74.8983Z" fill="url(#paint0_linear_84_3727)"/>
<path d="M4 76.1545L9.08435 57.5825C5.949 52.1592 4.31071 45.9873 4.31071 39.6743C4.31071 19.9159 20.397 3.84375 40.1554 3.84375C49.745 3.84375 58.7415 7.58639 65.5065 14.3514C72.2715 21.1305 76 30.127 76 39.7025C75.9859 59.4608 59.9137 75.533 40.1554 75.533H40.1412C34.1389 75.533 28.2495 74.0219 23.0098 71.169L4 76.1545ZM23.8854 64.6864L24.9729 65.3361C29.5488 68.0477 34.7885 69.4883 40.1412 69.4883H40.1554C56.5806 69.4883 69.9412 56.1278 69.9412 39.7025C69.9412 31.7512 66.8482 24.2659 61.2271 18.6307C55.6061 12.9956 48.1208 9.9026 40.1695 9.9026C23.7301 9.9026 10.3696 23.2631 10.3696 39.6884C10.3696 45.3094 11.9372 50.7892 14.9172 55.5346L15.6234 56.6645L12.6151 67.6523L23.8854 64.6864Z" fill="url(#paint1_linear_84_3727)"/>
<path fill-rule="evenodd" clip-rule="evenodd" d="M31.1867 24.6884C30.5088 23.1913 29.8026 23.1631 29.1671 23.1348C28.6445 23.1066 28.0513 23.1207 27.444 23.1207C26.8509 23.1207 25.8764 23.3467 25.0572 24.2364C24.2381 25.1262 21.9219 27.3012 21.9219 31.7076C21.9219 36.114 25.1278 40.3792 25.5798 40.9724C26.0317 41.5656 31.7799 50.901 40.8752 54.4883C48.4452 57.4683 49.9846 56.8751 51.6229 56.7339C53.2612 56.5927 56.9191 54.573 57.6677 52.4828C58.4162 50.3926 58.4162 48.5989 58.1902 48.2317C57.9642 47.8645 57.3711 47.6386 56.4672 47.1866C55.5774 46.7347 51.171 44.5738 50.3518 44.2772C49.5327 43.9807 48.9395 43.8253 48.3322 44.7292C47.7391 45.619 46.016 47.6386 45.4935 48.2317C44.9709 48.8249 44.4484 48.9097 43.5586 48.4577C42.6688 48.0058 39.7736 47.0595 36.3558 44.0089C33.6865 41.6362 31.8928 38.6986 31.3703 37.8088C30.8477 36.9191 31.3138 36.4248 31.7657 35.9869C32.1612 35.5915 32.6555 34.9418 33.1074 34.4193C33.5594 33.8967 33.7006 33.5295 33.9972 32.9222C34.2938 32.329 34.1526 31.8065 33.9266 31.3545C33.7289 30.8885 31.9917 26.4679 31.1867 24.6884Z" fill="white"/>
<defs>
<linearGradient id="paint0_linear_84_3727" x1="40.0006" y1="74.9041" x2="40.0006" y2="5.09676" gradientUnits="userSpaceOnUse">
<stop stop-color="#20B038"/>
<stop offset="1" stop-color="#60D66A"/>
</linearGradient>
<linearGradient id="paint1_linear_84_3727" x1="40" y1="76.1545" x2="40" y2="3.84375" gradientUnits="userSpaceOnUse">
<stop stop-color="#F9F9F9"/>
<stop offset="1" stop-color="white"/>
</linearGradient>
</defs>
</svg>
