<svg width="94" height="85" viewBox="0 0 94 85" fill="none" xmlns="http://www.w3.org/2000/svg">
<path d="M84.625 84.875C87.1114 84.875 89.496 83.8873 91.2541 82.1291C93.0123 80.371 94 77.9864 94 75.5V52.6062C94 50.1198 93.0123 47.7353 91.2541 45.9771C89.496 44.219 87.1114 43.2313 84.625 43.2313H71.6125C71.6125 39.9375 71.8063 36.6438 72.1937 33.35C72.775 29.8625 73.7438 26.7625 75.1 24.05C76.4562 21.3375 78.2031 19.2031 80.3406 17.6469C82.4656 15.9031 85.1781 15.0313 88.4781 15.0313V0.5C83.0531 0.5 78.3031 1.6625 74.2281 3.9875C70.1813 6.2832 66.7044 9.46208 64.0562 13.2875C61.3901 17.4983 59.4269 22.1149 58.2437 26.9563C57.0473 32.2976 56.4623 37.7577 56.5 43.2313V75.5C56.5 77.9864 57.4877 80.371 59.2459 82.1291C61.004 83.8873 63.3886 84.875 65.875 84.875H84.625ZM28.375 84.875C30.8614 84.875 33.246 83.8873 35.0041 82.1291C36.7623 80.371 37.75 77.9864 37.75 75.5V52.6062C37.75 50.1198 36.7623 47.7353 35.0041 45.9771C33.246 44.219 30.8614 43.2313 28.375 43.2313H15.3625C15.3625 39.9375 15.5562 36.6438 15.9437 33.35C16.5312 29.8625 17.5 26.7625 18.85 24.05C20.2063 21.3375 21.9531 19.2031 24.0906 17.6469C26.2156 15.9031 28.9281 15.0313 32.2281 15.0313V0.5C26.8031 0.5 22.0531 1.6625 17.9781 3.9875C13.9313 6.2832 10.4544 9.46208 7.80625 13.2875C5.1401 17.4983 3.17694 22.1149 1.99375 26.9563C0.797346 32.2976 0.212335 37.7577 0.25 43.2313V75.5C0.25 77.9864 1.23772 80.371 2.99587 82.1291C4.75403 83.8873 7.1386 84.875 9.625 84.875H28.375Z" fill="#F6F6F6"/>
</svg>
