<svg width="150" height="150" viewBox="0 0 150 150" fill="none" xmlns="http://www.w3.org/2000/svg">
<g opacity="0.05">
<path d="M112.5 112.5C114.986 112.5 117.371 111.512 119.129 109.754C120.887 107.996 121.875 105.611 121.875 103.125V80.2312C121.875 77.7448 120.887 75.3603 119.129 73.6021C117.371 71.844 114.986 70.8563 112.5 70.8563H99.4873C99.4873 67.5625 99.681 64.2688 100.069 60.975C100.65 57.4875 101.619 54.3875 102.975 51.675C104.331 48.9625 106.078 46.8281 108.215 45.2719C110.34 43.5281 113.053 42.6563 116.353 42.6563V28.125C110.928 28.125 106.178 29.2875 102.103 31.6125C98.0561 33.9082 94.5792 37.0871 91.931 40.9125C89.2649 45.1233 87.3017 49.7399 86.1185 54.5813C84.9221 59.9226 84.3371 65.3827 84.3748 70.8563V103.125C84.3748 105.611 85.3625 107.996 87.1206 109.754C88.8788 111.512 91.2634 112.5 93.7498 112.5H112.5ZM56.2498 112.5C58.7362 112.5 61.1207 111.512 62.8789 109.754C64.637 107.996 65.6248 105.611 65.6248 103.125V80.2312C65.6248 77.7448 64.637 75.3603 62.8789 73.6021C61.1207 71.844 58.7362 70.8563 56.2498 70.8563H43.2373C43.2373 67.5625 43.431 64.2688 43.8185 60.975C44.406 57.4875 45.3748 54.3875 46.7248 51.675C48.081 48.9625 49.8279 46.8281 51.9654 45.2719C54.0904 43.5281 56.8029 42.6563 60.1029 42.6563V28.125C54.6779 28.125 49.9279 29.2875 45.8529 31.6125C41.8061 33.9082 38.3292 37.0871 35.681 40.9125C33.0149 45.1233 31.0517 49.7399 29.8685 54.5813C28.6721 59.9226 28.0871 65.3827 28.1248 70.8563V103.125C28.1248 105.611 29.1125 107.996 30.8706 109.754C32.6288 111.512 35.0134 112.5 37.4998 112.5H56.2498Z" fill="black"/>
</g>
</svg>
